<?xml version="1.0" encoding="utf-8"?>
<!-- Generator: Adobe Illustrator 26.0.1, SVG Export Plug-In . SVG Version: 6.00 Build 0)  -->
<svg version="1.1" id="Outline" xmlns="http://www.w3.org/2000/svg" xmlns:xlink="http://www.w3.org/1999/xlink" x="0px" y="0px"
	 viewBox="0 0 512 512" style="enable-background:new 0 0 512 512;" xml:space="preserve">
<style type="text/css">
	.st0{fill:#FFFFFF;}
</style>
<path class="st0" d="M0,328c2.1-9.8,5.7-18.8,13.1-25.8c9.2-8.8,20.4-12.2,32.8-12.2c65,0,130,0,195,0h6.5v-19.8
	c0-9.5-0.1-19,0.1-28.5c0-3-0.7-4.7-3.6-6.2c-10.5-5.4-15.7-17.4-12.6-28.8c3.7-13.6,17.7-21.7,31.3-18c8.8,2.4,15.7,9.2,18,18
	c3.1,11.4-2.1,23.4-12.6,28.8c-2.9,1.5-3.6,3.2-3.6,6.2c0.1,17.7,0.1,35.3,0,53c0,9.9-2.5,12.3-12.5,12.3h-205
	c-20.1,0-30.1,10-30.1,30.1c0,31.5,0,63,0,94.5c0,18.7,10.4,29.1,29,29.1h420c18.4,0,28.9-10.5,28.9-28.8c0-32.2,0-64.3,0-96.5
	c0-18-10.6-28.5-28.7-28.5c-56.8,0-113.7,0-170.5,0c-1.2,0-2.3,0-3.5,0c-6.9-0.1-10.6-3.1-10.5-8.6c0.1-5.2,3.8-8.4,10.3-8.4
	c58.8,0,117.6-0.2,176.5,0.1c22.3,0.1,38.2,14,42.7,36c0.2,0.6,0.4,1.2,0.7,1.8v112c-0.3,0.6-0.5,1.2-0.7,1.9
	c-4.6,22.3-20.8,36-43.7,36c-141.1,0.1-282.1,0.1-423.2,0c-10.8,0-20.6-3.1-29.1-10.1C6.6,460.5,2.3,450.8,0,440V328z M256,205
	c-4.5,0-8.2,3.6-8.3,8.1c-0.1,4.7,3.5,8.5,8.2,8.7c0.1,0,0.1,0,0.2,0c4.5-0.1,8.2-3.7,8.3-8.2c0.2-4.6-3.4-8.5-8-8.7
	C256.3,204.9,256.1,204.9,256,205L256,205z"/>
<path class="st0" d="M259.8,34.2c45,0.8,86.4,17.8,120.3,52.3c4.6,4.6,5.1,9.4,1.4,13.2c-3.5,3.7-8.8,3.5-13.2-1
	c-13.7-13.9-29.2-25.3-47-33.3C298.7,55,273.9,50.2,249,51.5c-40.6,2-74.9,17.8-103.9,45.9c-0.6,0.6-1.2,1.2-1.8,1.7
	c-4.5,3.9-9.6,4-12.9,0.4c-3.5-3.8-3.1-8.5,1.3-12.8c11.9-12.1,25.5-22.5,40.4-30.8C198.3,41.4,226.6,34.2,259.8,34.2z"/>
<path class="st0" d="M350.1,129c-2.2,2.7-3.5,6.1-5.8,6.9c-3,1-6.3,0.7-9.1-0.8c-4.8-3-8.6-7.3-13.1-10.7
	c-42.5-31.8-101.6-28.8-140.7,7c-1.4,1.4-2.9,2.7-4.5,3.9c-3.9,2.8-8.9,2.4-11.7-1c-3-3.5-3.1-8.3,0.8-11.7
	c6.3-5.7,12.7-11.4,19.7-16.1c50.4-33.1,115.6-27,159.1,14.8C346.8,123.2,348,126,350.1,129z"/>
<path class="st0" d="M179.8,375.4h80.4c8.6,0,12.7,2.8,12.7,8.6s-4.1,8.5-12.7,8.5H98.4c-0.8,0-1.7,0-2.5,0
	c-6.5-0.2-10.3-3.2-10.4-8.3c-0.2-5.3,3.7-8.7,10.4-8.8C123.9,375.4,151.9,375.4,179.8,375.4z"/>
<path class="st0" d="M249.6,136.5c26.5,0.2,43.7,7,58.4,20.3c5.4,4.9,6.2,9.7,2.5,13.8c-3.5,3.9-8.6,3.5-13.7-0.9
	c-25.1-21.7-56.6-21.7-81.6,0c-3.4,2.9-6.9,4.8-11.3,2.7c-5.8-2.8-6.1-9.8-0.7-14.9C217.4,144,236.5,136.5,249.6,136.5z"/>
<path class="st0" d="M375.3,384c0,14-11.3,25.4-25.3,25.5c-14.1,0.1-25.9-11.8-25.7-25.8c0.3-14,11.7-25.2,25.7-25.3
	C364,358.5,375.4,370,375.3,384z M358.2,384.2c0.2-4.5-3.3-8.3-7.8-8.5c0,0-0.1,0-0.1,0c-4.6-0.3-8.6,3.2-8.9,7.8s3.2,8.6,7.8,8.9
	c0.2,0,0.5,0,0.7,0C354.4,392.4,358.1,388.7,358.2,384.2C358.2,384.2,358.2,384.2,358.2,384.2L358.2,384.2z"/>
<path class="st0" d="M392.7,384.2c-0.2-14,11.1-25.6,25.1-25.8c14.1-0.4,25.8,10.8,26.2,24.9c0.4,14.1-10.8,25.8-24.9,26.2
	c-0.3,0-0.6,0-0.9,0C404.2,409.5,392.8,398.2,392.7,384.2z M418.2,375.7c-4.6-0.1-8.4,3.6-8.4,8.2s3.6,8.4,8.2,8.4s8.4-3.6,8.4-8.2
	S422.9,375.7,418.2,375.7z"/>
</svg>
