<?xml version="1.0" encoding="utf-8"?>
<!-- Generator: Adobe Illustrator 26.0.1, SVG Export Plug-In . SVG Version: 6.00 Build 0)  -->
<svg version="1.1" id="Layer_1" xmlns="http://www.w3.org/2000/svg" xmlns:xlink="http://www.w3.org/1999/xlink" x="0px" y="0px"
	 viewBox="0 0 512 512" style="enable-background:new 0 0 512 512;" xml:space="preserve">
<style type="text/css">
	.st0{fill:#00CEF5;}
</style>
<path class="st0" d="M405.3,85.3H320V64c0-35.3-28.7-64-64-64s-64,28.7-64,64v21.3h-85.3C47.8,85.4,0.1,133.1,0,192v213.3
	C0.1,464.2,47.8,511.9,106.7,512h298.7c58.9-0.1,106.6-47.8,106.7-106.7V192C511.9,133.1,464.2,85.4,405.3,85.3z M234.7,64
	c0-11.8,9.6-21.3,21.3-21.3c11.8,0,21.3,9.6,21.3,21.3v42.7c0,11.8-9.6,21.3-21.3,21.3c-11.8,0-21.3-9.6-21.3-21.3V64z M469.3,405.3
	c0,35.3-28.7,64-64,64H106.7c-35.3,0-64-28.7-64-64V192c0-35.3,28.7-64,64-64h89.3c11.6,33.2,47.8,50.7,81,39.1
	c18.3-6.4,32.8-20.8,39.1-39.1h89.3c35.3,0,64,28.7,64,64V405.3z M213.3,213.3H106.7c-11.8,0-21.3,9.6-21.3,21.3v170.7
	c0,11.8,9.6,21.3,21.3,21.3h106.7c11.8,0,21.3-9.6,21.3-21.3V234.7C234.7,222.9,225.1,213.3,213.3,213.3z M192,384h-64V256h64V384z
	 M426.7,320c0,11.8-9.6,21.3-21.3,21.3H298.7c-11.8,0-21.3-9.6-21.3-21.3c0-11.8,9.6-21.3,21.3-21.3h106.7
	C417.1,298.7,426.7,308.2,426.7,320z M426.7,234.7c0,11.8-9.6,21.3-21.3,21.3H298.7c-11.8,0-21.3-9.6-21.3-21.3s9.6-21.3,21.3-21.3
	h106.7C417.1,213.3,426.7,222.9,426.7,234.7z M384,405.3c0,11.8-9.6,21.3-21.3,21.3h-64c-11.8,0-21.3-9.6-21.3-21.3
	s9.6-21.3,21.3-21.3h64C374.4,384,384,393.6,384,405.3z"/>
</svg>
