<svg id="Capa_1" data-name="Capa 1" xmlns="http://www.w3.org/2000/svg" viewBox="0 0 116.37 38.77"><defs><style>.cls-1{isolation:isolate;}.cls-2{fill:#fff;}.cls-3{fill:none;stroke:#03a7d3;stroke-miterlimit:10;}</style></defs><g id="Grupo_167" data-name="Grupo 167"><g id="Entrenamiento_" data-name="Entrenamiento " class="cls-1"><g class="cls-1"><path class="cls-2" d="M14,12.58H10.44v2.63h4.12V16.4H9V7.83h5.56V9H10.44V11.4H14Z"/><path class="cls-2" d="M17,10l0,.74a2.29,2.29,0,0,1,1.86-.85c1.32,0,2,.75,2,2.27V16.4H19.45V12.28a1.32,1.32,0,0,0-.26-.9,1.09,1.09,0,0,0-.86-.29,1.39,1.39,0,0,0-1.29.78V16.4H15.61V10Z"/><path class="cls-2" d="M24.13,8.48V10h1.12v1.06H24.13v3.56a.79.79,0,0,0,.14.52.67.67,0,0,0,.52.17,2.2,2.2,0,0,0,.5-.06v1.1a3.57,3.57,0,0,1-.94.14c-1.1,0-1.65-.61-1.65-1.82V11.09H21.65V10H22.7V8.48Z"/><path class="cls-2" d="M29.68,11.34a3.68,3.68,0,0,0-.58-.05,1.31,1.31,0,0,0-1.33.76V16.4H26.34V10h1.37l0,.72a1.61,1.61,0,0,1,1.44-.83,1.3,1.3,0,0,1,.51.08Z"/><path class="cls-2" d="M33.39,16.52a3,3,0,0,1-2.21-.86,3.11,3.11,0,0,1-.84-2.28v-.17a3.77,3.77,0,0,1,.37-1.71,2.8,2.8,0,0,1,1-1.17,2.71,2.71,0,0,1,1.48-.41,2.47,2.47,0,0,1,2,.83,3.45,3.45,0,0,1,.71,2.34v.58H31.78a1.89,1.89,0,0,0,.53,1.25,1.6,1.6,0,0,0,1.16.46,1.93,1.93,0,0,0,1.6-.8l.77.74a2.5,2.5,0,0,1-1,.88A3.17,3.17,0,0,1,33.39,16.52Zm-.17-5.46a1.22,1.22,0,0,0-.95.41,2.12,2.12,0,0,0-.46,1.15h2.72v-.1a1.77,1.77,0,0,0-.38-1.09A1.23,1.23,0,0,0,33.22,11.06Z"/><path class="cls-2" d="M38.38,10l0,.74a2.29,2.29,0,0,1,1.86-.85c1.32,0,2,.75,2,2.27V16.4H40.87V12.28a1.32,1.32,0,0,0-.26-.9,1.09,1.09,0,0,0-.86-.29,1.39,1.39,0,0,0-1.29.78V16.4H37V10Z"/><path class="cls-2" d="M47.56,16.4a2.08,2.08,0,0,1-.16-.59,2.41,2.41,0,0,1-3.24.16,1.75,1.75,0,0,1-.61-1.35,1.84,1.84,0,0,1,.76-1.57,3.69,3.69,0,0,1,2.16-.54h.88v-.42a1.09,1.09,0,0,0-.28-.79,1.08,1.08,0,0,0-.84-.3,1.29,1.29,0,0,0-.8.25.74.74,0,0,0-.31.62H43.69a1.59,1.59,0,0,1,.35-1,2.39,2.39,0,0,1,.94-.72,3.35,3.35,0,0,1,1.33-.25,2.67,2.67,0,0,1,1.79.56,2,2,0,0,1,.68,1.58v2.87A3.27,3.27,0,0,0,49,16.3v.1Zm-1.57-1a1.72,1.72,0,0,0,.8-.2,1.37,1.37,0,0,0,.56-.56v-1.2h-.77a2,2,0,0,0-1.19.28.88.88,0,0,0-.41.78.86.86,0,0,0,.28.66A1.07,1.07,0,0,0,46,15.37Z"/><path class="cls-2" d="M51.62,10l.05.67a2.28,2.28,0,0,1,1.83-.78,1.76,1.76,0,0,1,1.75,1,2.25,2.25,0,0,1,2-1,2,2,0,0,1,1.57.58,2.54,2.54,0,0,1,.53,1.72V16.4H57.87V12.26a1.25,1.25,0,0,0-.27-.89,1.12,1.12,0,0,0-.87-.28,1.17,1.17,0,0,0-.8.26,1.31,1.31,0,0,0-.43.68V16.4H54.07V12.21a1,1,0,0,0-1.14-1.12,1.25,1.25,0,0,0-1.22.7V16.4H50.28V10Z"/><path class="cls-2" d="M60.77,8.38A.77.77,0,0,1,61,7.83a.93.93,0,0,1,1.2,0,.81.81,0,0,1,0,1.09,1,1,0,0,1-1.2,0A.76.76,0,0,1,60.77,8.38Zm1.52,8H60.86V10h1.43Z"/><path class="cls-2" d="M66.65,16.52a3,3,0,0,1-2.2-.86,3.08,3.08,0,0,1-.85-2.28v-.17A3.91,3.91,0,0,1,64,11.5a2.87,2.87,0,0,1,1-1.17,2.74,2.74,0,0,1,1.49-.41,2.5,2.5,0,0,1,2,.83,3.5,3.5,0,0,1,.71,2.34v.58H65.05a1.89,1.89,0,0,0,.52,1.25,1.62,1.62,0,0,0,1.16.46,2,2,0,0,0,1.61-.8l.77.74a2.64,2.64,0,0,1-1,.88A3.24,3.24,0,0,1,66.65,16.52Zm-.17-5.46a1.22,1.22,0,0,0-1,.41,2.2,2.2,0,0,0-.46,1.15h2.72v-.1a1.71,1.71,0,0,0-.38-1.09A1.2,1.2,0,0,0,66.48,11.06Z"/><path class="cls-2" d="M71.64,10l0,.74a2.27,2.27,0,0,1,1.85-.85c1.33,0,2,.75,2,2.27V16.4H74.13V12.28a1.27,1.27,0,0,0-.26-.9,1.07,1.07,0,0,0-.85-.29,1.37,1.37,0,0,0-1.29.78V16.4H70.3V10Z"/><path class="cls-2" d="M78.81,8.48V10h1.13v1.06H78.81v3.56a.73.73,0,0,0,.15.52.65.65,0,0,0,.51.17,2.14,2.14,0,0,0,.5-.06v1.1a3.51,3.51,0,0,1-.94.14c-1.1,0-1.65-.61-1.65-1.82V11.09h-1V10h1V8.48Z"/><path class="cls-2" d="M80.58,13.16A3.72,3.72,0,0,1,81,11.47a2.64,2.64,0,0,1,1-1.15,2.9,2.9,0,0,1,1.54-.4,2.74,2.74,0,0,1,2.09.83A3.21,3.21,0,0,1,86.5,13v.33A3.64,3.64,0,0,1,86.14,15a2.62,2.62,0,0,1-1,1.15,3,3,0,0,1-1.56.41,2.76,2.76,0,0,1-2.16-.9,3.43,3.43,0,0,1-.81-2.39Zm1.44.12a2.56,2.56,0,0,0,.4,1.54,1.33,1.33,0,0,0,1.13.56,1.31,1.31,0,0,0,1.13-.57,2.81,2.81,0,0,0,.4-1.65,2.55,2.55,0,0,0-.41-1.53,1.34,1.34,0,0,0-1.13-.57,1.3,1.3,0,0,0-1.11.56A2.73,2.73,0,0,0,82,13.28Z"/></g></g><g id="Scripting" class="cls-1"><g class="cls-1"><path class="cls-2" d="M43.88,26.44a1,1,0,0,0-.39-.87A4.8,4.8,0,0,0,42.05,25a6.59,6.59,0,0,1-1.64-.7,2.19,2.19,0,0,1-1.18-1.91,2.1,2.1,0,0,1,.85-1.71A3.39,3.39,0,0,1,42.27,20a3.72,3.72,0,0,1,1.6.33,2.66,2.66,0,0,1,1.1.94,2.43,2.43,0,0,1,.4,1.35H43.88a1.33,1.33,0,0,0-.42-1,1.7,1.7,0,0,0-1.2-.38,1.79,1.79,0,0,0-1.13.31,1,1,0,0,0-.41.87,1,1,0,0,0,.44.79,5.07,5.07,0,0,0,1.44.61,6.81,6.81,0,0,1,1.6.67,2.58,2.58,0,0,1,.89.88,2.23,2.23,0,0,1,.28,1.15,2,2,0,0,1-.82,1.7,3.56,3.56,0,0,1-2.23.63,4.18,4.18,0,0,1-1.71-.34,2.91,2.91,0,0,1-1.21-1A2.38,2.38,0,0,1,39,26.06h1.49a1.4,1.4,0,0,0,.48,1.13,2.14,2.14,0,0,0,1.38.4,1.83,1.83,0,0,0,1.17-.32A1,1,0,0,0,43.88,26.44Z"/><path class="cls-2" d="M49.16,27.62a1.29,1.29,0,0,0,.89-.31,1.07,1.07,0,0,0,.37-.77h1.35a2.1,2.1,0,0,1-.37,1.11,2.4,2.4,0,0,1-.94.81,2.8,2.8,0,0,1-1.28.3,2.74,2.74,0,0,1-2.12-.86,3.46,3.46,0,0,1-.79-2.39v-.15A3.38,3.38,0,0,1,47.05,23a2.71,2.71,0,0,1,2.12-.87,2.62,2.62,0,0,1,1.85.66,2.34,2.34,0,0,1,.75,1.74H50.42a1.31,1.31,0,0,0-.37-.9,1.18,1.18,0,0,0-.89-.35,1.24,1.24,0,0,0-1.07.5,2.62,2.62,0,0,0-.39,1.53v.23a2.59,2.59,0,0,0,.38,1.54A1.26,1.26,0,0,0,49.16,27.62Z"/><path class="cls-2" d="M56.19,23.58a3.81,3.81,0,0,0-.59,0,1.31,1.31,0,0,0-1.32.75v4.36H52.85V22.28h1.37l0,.71a1.62,1.62,0,0,1,1.44-.83,1.41,1.41,0,0,1,.5.08Z"/><path class="cls-2" d="M57.09,20.62a.73.73,0,0,1,.21-.54.93.93,0,0,1,1.2,0,.8.8,0,0,1,0,1.08.93.93,0,0,1-1.2,0A.73.73,0,0,1,57.09,20.62Zm1.52,8H57.18V22.28h1.43Z"/><path class="cls-2" d="M65.75,25.53a3.75,3.75,0,0,1-.68,2.35,2.12,2.12,0,0,1-1.8.88,2.14,2.14,0,0,1-1.67-.69v3H60.17V22.28h1.31l.06.64a2.1,2.1,0,0,1,1.72-.76,2.16,2.16,0,0,1,1.82.87,3.9,3.9,0,0,1,.67,2.41Zm-1.43-.13a2.68,2.68,0,0,0-.38-1.51,1.23,1.23,0,0,0-1.08-.56,1.31,1.31,0,0,0-1.26.72v2.83a1.32,1.32,0,0,0,1.27.74,1.24,1.24,0,0,0,1.07-.55A3,3,0,0,0,64.32,25.4Z"/><path class="cls-2" d="M68.75,20.73v1.55h1.12v1.06H68.75v3.55a.84.84,0,0,0,.14.53.67.67,0,0,0,.52.16,2.2,2.2,0,0,0,.5-.06v1.11a3.54,3.54,0,0,1-.94.13c-1.1,0-1.65-.6-1.65-1.82v-3.6h-1V22.28h1V20.73Z"/><path class="cls-2" d="M71,20.62a.73.73,0,0,1,.21-.54.74.74,0,0,1,.59-.22.78.78,0,0,1,.6.22.77.77,0,0,1,0,1.08.82.82,0,0,1-.6.22.78.78,0,0,1-.59-.22A.73.73,0,0,1,71,20.62Zm1.52,8H71.06V22.28h1.43Z"/><path class="cls-2" d="M75.37,22.28l0,.73a2.29,2.29,0,0,1,1.86-.85c1.32,0,2,.76,2,2.28v4.21H77.86V24.52a1.36,1.36,0,0,0-.26-.9,1.13,1.13,0,0,0-.86-.29,1.37,1.37,0,0,0-1.29.78v4.54H74V22.28Z"/><path class="cls-2" d="M80.5,25.41a3.72,3.72,0,0,1,.69-2.36,2.24,2.24,0,0,1,1.86-.89,2.09,2.09,0,0,1,1.71.76l.06-.64h1.29v6.17a2.56,2.56,0,0,1-.78,2,3,3,0,0,1-2.1.72,3.31,3.31,0,0,1-1.37-.29,2.47,2.47,0,0,1-1-.76l.68-.86a2,2,0,0,0,1.63.78,1.6,1.6,0,0,0,1.12-.38,1.51,1.51,0,0,0,.41-1.14v-.43a2.1,2.1,0,0,1-1.65.69,2.2,2.2,0,0,1-1.82-.89A3.79,3.79,0,0,1,80.5,25.41Zm1.42.13a2.58,2.58,0,0,0,.39,1.51,1.28,1.28,0,0,0,1.09.55,1.38,1.38,0,0,0,1.28-.74V24.05a1.35,1.35,0,0,0-1.27-.72,1.27,1.27,0,0,0-1.1.56A2.87,2.87,0,0,0,81.92,25.54Z"/></g></g><path id="Trazado_287" data-name="Trazado 287" class="cls-3" d="M94.07,18.35a12.48,12.48,0,0,1-1.19-2.07,4.83,4.83,0,0,1-.44-2,4.86,4.86,0,0,1,1.47-3.67,5.36,5.36,0,0,1,3.85-1.4,4.93,4.93,0,0,1,3.52,1.3,4.23,4.23,0,0,1,1.4,3.22c0,1.6-.89,3-2.65,4.25l-1,.69L101.94,22a6.82,6.82,0,0,0,.71-3.11h3.65a9.74,9.74,0,0,1-1.76,6.1l2.87,3.29h-4.85l-.88-1a8.87,8.87,0,0,1-2.21,1,9.52,9.52,0,0,1-2.55.3,6.49,6.49,0,0,1-4.46-1.46,4.85,4.85,0,0,1-1.68-3.85,4.31,4.31,0,0,1,.67-2.36A10.1,10.1,0,0,1,94,18.37Zm3.13,6.81a4.67,4.67,0,0,0,2.17-.53L96,20.79l-.12.07a3.22,3.22,0,0,0-.73,2,2.35,2.35,0,0,0,.59,1.6A1.9,1.9,0,0,0,97.2,25.16Zm-1-10.95a3.92,3.92,0,0,0,1,2.19l.86-.54a3,3,0,0,0,.87-.8A1.94,1.94,0,0,0,99.18,14a1.52,1.52,0,0,0-.41-1,1.41,1.41,0,0,0-1-.44,1.47,1.47,0,0,0-1.14.46A1.78,1.78,0,0,0,96.2,14.21Z"/></g></svg>