<?xml version="1.0" encoding="utf-8"?>
<!-- Generator: Adobe Illustrator 26.0.1, SVG Export Plug-In . SVG Version: 6.00 Build 0)  -->
<svg version="1.1" id="Capa_1" xmlns="http://www.w3.org/2000/svg" xmlns:xlink="http://www.w3.org/1999/xlink" x="0px" y="0px"
	 viewBox="0 0 512 55.8" style="enable-background:new 0 0 512 55.8;" xml:space="preserve">
<style type="text/css">
	.st0{fill:#FFFFFF;}
</style>
<g>
	<path class="st0" d="M12.6,12H8.2l-0.3,4.8H4.6v3.9h3.3l0,13.1c0,3.2,1.3,4.9,3.8,4.9h5.2v-4.3h-3.7c-0.5,0-0.7-0.1-0.7-0.9V20.7
		h4.3v-3.9h-4.4V12z"/>
	<path class="st0" d="M29.5,16.2c-2.9,0-5.6,1.2-7.6,3.3c-2,2.1-3.1,5.1-3.1,8.3c0,3.3,1,6.1,3,8.2c2,2.1,4.9,3.3,8.2,3.3
		c1.8,0,3.5-0.4,5.1-1.1c1.6-0.8,3-1.8,4.1-3.2l0.1-0.1l-2.7-2.8l-0.1,0.2c-1.5,1.7-3.6,2.7-5.9,2.7c-4,0-6.2-1.7-6.7-5.2h15.7
		l0-0.2c0-1.5,0-2.1,0-2.9c0-2.8-0.9-5.4-2.6-7.3C35,17.3,32.5,16.2,29.5,16.2 M34.8,26H23.6c0.5-3.5,2.4-5.2,5.9-5.2
		C32.6,20.8,34.6,22.9,34.8,26"/>
	<path class="st0" d="M63.8,16.2c-2.9,0-5.6,1.2-7.6,3.3c-2,2.1-3.1,5.1-3.1,8.3c0,3.3,1,6.1,3,8.2c2,2.1,4.9,3.3,8.2,3.3
		c1.8,0,3.5-0.4,5.1-1.1c1.6-0.8,3-1.8,4.1-3.2l0.1-0.1l-2.7-2.8l-0.1,0.2c-1.5,1.7-3.6,2.7-5.9,2.7c-4,0-6.2-1.7-6.7-5.2h15.7
		l0-0.2c0-1.5,0-2.1,0-2.9c0-2.8-0.9-5.4-2.6-7.3C69.3,17.3,66.7,16.2,63.8,16.2 M69.1,26H57.9c0.5-3.5,2.4-5.2,5.9-5.2
		C66.8,20.8,68.9,22.9,69.1,26"/>
	<path class="st0" d="M47.8,34.3c-0.1-0.1-0.1-0.3-0.1-0.7V8.8H43v25c0,1.6,0.3,2.8,1,3.7c0.6,0.8,1.6,1.2,2.9,1.2h4.5v-4.3h-3.1
		C47.9,34.4,47.8,34.4,47.8,34.3"/>
	<path class="st0" d="M156.4,18.6c-1.3-1.5-3.1-2.4-5.4-2.4c-1.8,0-3.3,0.5-4.6,1.5c-1.1,0.9-2,2.1-2.7,3.7h-0.2
		c-0.9-3.4-3.3-5.3-6.6-5.3c-3.2,0-5.7,1.7-7,4.7h-0.2l-0.3-4.1h-4v21.9h4.7V26.5c0-1,0.3-2.6,1.2-3.9c0.7-1,1.9-2.3,4.2-2.3
		c2.7,0,4,1.8,4,5.3v13.1h4.7V26.5c0-1.4,0.5-2.9,1.2-4c0.7-1,2-2.2,4.1-2.2c1.3,0,2.3,0.4,2.9,1.2c0.7,0.9,1.1,2.2,1.1,4.1v13.1
		h4.7V25C158.3,22.3,157.6,20.1,156.4,18.6"/>
	<path class="st0" d="M93.6,31.5c-1.4,2.1-3.6,3.4-6.1,3.4c-1.7,0-3.3-0.7-4.4-2c-1.1-1.3-1.7-3.1-1.7-5.1c0-2.1,0.6-3.9,1.8-5.1
		c1-1.1,2.5-1.7,4-1.7h0.1l0.1,0c0.8,0,4.4,0.3,5.9,3.8L97,23c0,0-1.8-6.8-10-6.8c-2.9,0-5.5,1.2-7.5,3.3c-1.9,2.1-3,5.1-3,8.3
		c0,6.6,4.4,11.4,10.5,11.4c2.1,0,4-0.5,5.6-1.4c1.7-1,3.1-2.4,4.2-4.2l0.1-0.1l-3.3-2.2L93.6,31.5z"/>
	<path class="st0" d="M110.7,20.8c2.6,0,4.9,1.5,6.1,3.7h4.9c-1.4-4.8-5.8-8.2-11-8.2c-5.2,0-9.6,3.5-11,8.2h4.9
		C105.8,22.3,108.1,20.8,110.7,20.8"/>
	<path class="st0" d="M117.7,27.7c0,3.8-3.1,7-6.9,7c-3.8,0-6.9-3.1-6.9-7c0-0.3,0-0.7,0.1-1h-4.6c0,0.3,0,0.7,0,1
		c0,6.4,5.1,11.5,11.4,11.5c6.3,0,11.4-5.2,11.4-11.5c0-0.3,0-0.7,0-1h-4.6C117.6,27.1,117.7,27.4,117.7,27.7"/>
	<path class="st0" d="M459.5,15.7c-6.6,0-11.9,5.4-11.9,11.9c0,6.6,5.3,11.9,11.9,11.9c6.6,0,11.9-5.4,11.9-11.9
		C471.4,21.1,466.1,15.7,459.5,15.7 M466.7,27.7c0,4-3.2,7.2-7.2,7.2c-4,0-7.2-3.2-7.2-7.2s3.2-7.2,7.2-7.2
		C463.5,20.5,466.7,23.7,466.7,27.7"/>
	<path class="st0" d="M426.2,9.3c-0.9,0.9-1.4,2.1-1.4,3.7v3.9h-2.7v4.1h2.7V39h4.9V20.9h4.9v-4.1h-4.9V13c0-0.7,0.3-1,0.8-1h5.1V8
		h-5.7C428.4,8,427.1,8.5,426.2,9.3"/>
	<path class="st0" d="M442.7,34.5c-0.1-0.1-0.1-0.3-0.1-0.7V8.1h-4.9V34c0,1.7,0.3,2.9,1,3.8c0.7,0.8,1.7,1.3,3,1.3h4.7v-4.4h-3.2
		C442.9,34.6,442.8,34.5,442.7,34.5"/>
	<polygon class="st0" points="502.8,16.4 497.8,34.9 497.8,34.9 492.3,16.5 492.3,16.4 487.3,16.4 482.1,34.9 482.1,34.9 
		476.9,16.4 471.7,16.4 478.3,38.9 478.4,39 485.1,39 489.8,23.1 494.2,39 501,39 507.5,16.4 	"/>
	<path class="st0" d="M462.8,27.3L462.8,27.3l-5-2.9c-0.1-0.1-0.3-0.1-0.4,0l0,0c-0.1,0.1-0.2,0.2-0.2,0.4v5.8
		c0,0.2,0.1,0.3,0.2,0.4c0.1,0,0.1,0.1,0.2,0.1c0.1,0,0.1,0,0.2-0.1l5-2.9c0.1-0.1,0.2-0.2,0.2-0.4C463,27.5,462.9,27.4,462.8,27.3"
		/>
	<path class="st0" d="M241.6,15.9c-3,0-5.8,1.2-7.9,3.4c-2.1,2.2-3.2,5.2-3.2,8.5c0,3.4,1.1,6.3,3.1,8.5c2.1,2.2,5,3.4,8.5,3.4
		c1.8,0,3.6-0.4,5.2-1.1c1.7-0.8,3.1-1.9,4.2-3.3l0.1-0.1l-2.8-2.8l-0.1,0.2c-1.5,1.8-3.8,2.8-6.2,2.8c-4.1,0-6.4-1.7-6.9-5.3h16.3
		l0-0.2c0-1.6,0-2.2,0-2.9c0-2.9-1-5.6-2.7-7.5C247.3,17.1,244.7,15.9,241.6,15.9 M247.1,26h-11.5c0.5-3.6,2.5-5.3,6.1-5.3
		C244.8,20.7,247,22.8,247.1,26"/>
	<path class="st0" d="M302.3,15.9c-6.5,0-11.8,5.3-11.8,11.9c0,6.5,5.3,11.9,11.8,11.9c6.5,0,11.8-5.3,11.8-11.9
		C314.2,21.3,308.9,15.9,302.3,15.9 M309.5,27.8c0,4-3.2,7.2-7.1,7.2c-3.9,0-7.1-3.2-7.1-7.2c0-4,3.2-7.2,7.1-7.2
		C306.3,20.6,309.5,23.9,309.5,27.8"/>
	<path class="st0" d="M217.4,15.9c-3.4,0-5.9,1.6-7.5,4.9h-0.2l-0.1-4.3h-4v30.6h4.8V34.9h0.2c0.6,1.4,1.4,2.5,2.4,3.3
		c1.3,1,2.8,1.5,4.6,1.5c2.7,0,5.2-1.2,7-3.3c1.8-2.2,2.9-5.2,2.9-8.6c0-3.4-1-6.4-2.9-8.5C222.8,17.1,220.3,15.9,217.4,15.9
		 M222.6,27.9c0,4.3-2.4,7.3-6,7.3c-1.8,0-3.4-0.8-4.4-2.2c-1-1.3-1.6-3.1-1.6-5.1c0-2,0.6-3.9,1.6-5.2c1.1-1.4,2.7-2.2,4.5-2.2
		c1.7,0,3.2,0.7,4.2,2.1C222,23.9,222.6,25.7,222.6,27.9"/>
	<path class="st0" d="M260.3,20.6h-0.1l-0.3-4.1h-4.1v22.6h4.9v-13c0-3,1.2-4.2,4-4.2h3.1v-5.3h-1.6C263,16.5,261.1,17.9,260.3,20.6
		"/>
	<path class="st0" d="M278.6,19.7c2.7,0,4.7,1.4,5.6,3.9l0.1,0.2l3.8-1.4l-0.1-0.2c-0.8-2-2-3.6-3.6-4.6c-1.6-1.1-3.5-1.6-5.8-1.6
		c-2,0-4,0.7-5.5,1.8c-1.6,1.3-2.5,3.1-2.5,5.1c0,1.9,0.7,3.5,2.1,4.7c1.2,1,2.8,1.8,5,2.4l0,0c0.2,0,0.3,0.1,0.5,0.1
		c1.4,0.3,2.6,0.6,3.6,1c1,0.5,1.4,1.1,1.4,2c0,1.8-2.1,2.5-4.1,2.5c-2.7,0-5.3-1.5-6.6-3.8l-0.1-0.2l-3.5,1.9l0.1,0.2
		c0.8,1.8,2.2,3.3,4,4.3c1.8,1,3.9,1.6,6.2,1.6c2.4,0,4.7-0.6,6.3-1.7c1.8-1.2,2.7-2.9,2.7-5c0-1.9-0.8-3.4-2.4-4.6
		c-1.5-1.1-3.6-1.7-5.2-2.1c-2.5-0.7-5.4-1.5-5.4-3.7C275,21.1,276.4,19.7,278.6,19.7"/>
	<path class="st0" d="M329.5,15.9c-1.7,0-3.3,0.5-4.6,1.5c-1.2,0.9-2.2,2-2.8,3.4h-0.2v-4.3h-4.5v22.6h4.9V26.5c0-1,0.4-2.5,1.3-3.9
		c0.8-1.1,2.1-2.4,4.3-2.4c1.5,0,2.6,0.4,3.3,1.4c0.7,0.9,1,2.2,1,4v13.5h4.9V25c0-2.8-0.6-5-1.9-6.6
		C333.8,16.8,331.9,15.9,329.5,15.9"/>
	<path class="st0" d="M359.9,34.7V24.5c0-2.5-0.8-4.6-2.3-6.2c-1.6-1.6-3.8-2.4-6.5-2.4c-4.9,0-8.2,2.2-10.3,6.8l-0.1,0.2l4.2,2
		l0.1-0.2c1.2-2.5,3.4-4.2,5.6-4.2c2.5,0,4.4,1.7,4.4,3.9V26h-5.1c-5.7,0-9.3,2.8-9.3,7.2c0,1.9,0.7,3.6,2.1,4.7
		c1.3,1.1,3.1,1.7,5,1.7c1.8,0,3.5-0.5,5-1.5c1.3-0.9,2.4-2.2,3-3.7h0.2l0,1.2c0,2.2,1.1,3.4,3.2,3.4h3.2v-3.9h-1.9
		C360,35.2,359.9,34.9,359.9,34.7 M355,30c-0.2,1.3-1,2.6-2.3,3.7c-1.2,0.9-2.6,1.5-3.7,1.5c-1,0-1.8-0.2-2.5-0.6
		c-0.7-0.4-1-1-1-1.7c0-0.9,0.6-1.7,1.7-2.2c1-0.5,2.5-0.7,4.2-0.7H355z"/>
	<path class="st0" d="M371,34.7c-0.3,0-0.5-0.1-0.5-0.2c-0.1-0.1-0.1-0.3-0.1-0.7V8.3h-4.9v25.8c0,1.7,0.3,2.9,1,3.8
		c0.7,0.8,1.7,1.3,3,1.3h4.7v-4.4H371z"/>
	<rect x="396.6" y="10.5" class="st0" width="2.5" height="30.6"/>
	<rect x="181" y="10.5" class="st0" width="2.5" height="30.6"/>
</g>
</svg>
