<?xml version="1.0" encoding="utf-8"?>
<!-- Generator: Adobe Illustrator 26.0.1, SVG Export Plug-In . SVG Version: 6.00 Build 0)  -->
<svg version="1.1" id="Capa_1" xmlns="http://www.w3.org/2000/svg" xmlns:xlink="http://www.w3.org/1999/xlink" x="0px" y="0px"
	 viewBox="0 0 512 512" style="enable-background:new 0 0 512 512;" xml:space="preserve">
<style type="text/css">
	.st0{fill:#00CEF5;}
</style>
<g>
	<path class="st0" d="M417.7,463H92.3c-51,0-92.5-41.5-92.5-92.5v-231c0-51,41.5-92.5,92.5-92.5h325.4c51,0,92.5,41.5,92.5,92.5v231
		C510.2,421.5,468.7,463,417.7,463z M92.3,85.3c-29.9,0-54.2,24.3-54.2,54.2v231c0,29.9,24.3,54.2,54.2,54.2h325.4
		c29.9,0,54.2-24.3,54.2-54.2v-231c0-29.9-24.3-54.2-54.2-54.2H92.3z"/>
	<g>
		<path class="st0" d="M212.9,336.7h-33.7V173.3h33.7V336.7z"/>
		<path class="st0" d="M244.1,336.7V173.3h50.3c14.4,0,27.2,3.2,38.6,9.7c11.3,6.5,20.2,15.7,26.6,27.6s9.5,25.5,9.5,40.7v7.5
			c0,15.2-3.1,28.7-9.4,40.5c-6.3,11.8-15.1,21-26.4,27.5c-11.4,6.5-24.2,9.8-38.5,9.9H244.1z M277.8,200.5v109.1h16.3
			c13.2,0,23.2-4.3,30.2-12.9c7-8.6,10.5-20.9,10.7-36.9v-8.6c0-16.6-3.4-29.2-10.3-37.8c-6.9-8.6-17-12.9-30.2-12.9H277.8z"/>
	</g>
</g>
</svg>
