<?xml version="1.0" encoding="UTF-8" standalone="no"?>
<!-- Generator: Adobe Illustrator 26.0.1, SVG Export Plug-In . SVG Version: 6.00 Build 0)  -->

<svg
   version="1.1"
   id="Outline"
   x="0px"
   y="0px"
   viewBox="0 0 512 512"
   style="enable-background:new 0 0 512 512;"
   xml:space="preserve"
   sodipodi:docname="actualizacion.svg"
   inkscape:version="1.1.1 (3bf5ae0d25, 2021-09-20)"
   xmlns:inkscape="http://www.inkscape.org/namespaces/inkscape"
   xmlns:sodipodi="http://sodipodi.sourceforge.net/DTD/sodipodi-0.dtd"
   xmlns="http://www.w3.org/2000/svg"
   xmlns:svg="http://www.w3.org/2000/svg"><defs
   id="defs13" /><sodipodi:namedview
   id="namedview11"
   pagecolor="#ffffff"
   bordercolor="#666666"
   borderopacity="1.0"
   inkscape:pageshadow="2"
   inkscape:pageopacity="0.0"
   inkscape:pagecheckerboard="0"
   showgrid="false"
   inkscape:zoom="0.82421875"
   inkscape:cx="439.81043"
   inkscape:cy="324.54976"
   inkscape:window-width="1920"
   inkscape:window-height="1016"
   inkscape:window-x="1920"
   inkscape:window-y="27"
   inkscape:window-maximized="1"
   inkscape:current-layer="Outline" />
<style
   type="text/css"
   id="style2">
	.st0{fill:#00CEF5;}
</style>
<g
   id="g8"
   style="fill:#ffffff;fill-opacity:1">
	<path
   class="st0"
   d="M491.1,233.6c-11.8,0-21.4,9.6-21.4,21.4c0.4,118.7-95.5,215.2-214.1,215.6C136.8,471,40.3,375.2,39.9,256.5   S135.3,41.3,254,40.8c57.7-0.2,113,22.8,153.5,63.8c-0.7,0.2-1.4,0.3-2.1,0.4h-64.2c-11.8,0-21.4,9.6-21.4,21.4s9.6,21.4,21.4,21.4   h64.2c35.5,0,64.2-28.8,64.2-64.2V19.4c0-11.8-9.6-21.4-21.4-21.4s-21.4,9.6-21.4,21.4v44.2C321.1-30.9,158.7-21.8,64.1,83.9   s-85.5,268.1,20.3,362.7s268.1,85.5,362.7-20.3c42.1-47.1,65.4-108.1,65.4-171.3C512.5,243.2,502.9,233.6,491.1,233.6z"
   id="path4"
   style="fill:#ffffff;fill-opacity:1" />
	<path
   class="st0"
   d="M255.5,126.5c-11.8,0-21.4,9.6-21.4,21.4V255c0,5.7,2.3,11.1,6.3,15.1l64.2,64.2c8.5,8.2,22.1,8,30.3-0.5   c8-8.3,8-21.5,0-29.8l-58-58v-98.2C276.9,136.1,267.3,126.5,255.5,126.5L255.5,126.5z"
   id="path6"
   style="fill:#ffffff;fill-opacity:1" />
</g>
</svg>
