<?xml version="1.0" encoding="utf-8"?>
<!-- Generator: Adobe Illustrator 26.0.1, SVG Export Plug-In . SVG Version: 6.00 Build 0)  -->
<svg version="1.1" id="Capa_1" xmlns="http://www.w3.org/2000/svg" xmlns:xlink="http://www.w3.org/1999/xlink" x="0px" y="0px"
	 viewBox="0 0 512 512" style="enable-background:new 0 0 512 512;" xml:space="preserve">
<style type="text/css">
	.st0{fill:#00CEF5;}
</style>
<g>
	<path class="st0" d="M129.1,511.7c-5.8-2.8-7.9-7.6-7.5-13.8c0.7-10.7-0.1-21.8,2.3-32.2c3.8-16.4,18.4-26.9,35.4-28
		c2-0.1,3.9-0.3,6.5-0.5c0-2.4,0-4.5,0-6.6c0-128,0-255.9-0.1-383.9c0-10.6,1.9-20.5,8.4-29.1c8.6-11.4,20.3-17.1,34.4-17.2
		c31.6-0.2,63.2-0.3,94.9,0c24.2,0.3,41.6,17.6,42.6,41.8c0.1,2.2,0.1,4.3,0.1,6.5c0,127.1,0,254.3,0,381.4c0,2.2,0,4.3,0,6.9
		c4.5,0.5,8.8,0.6,12.9,1.6c19.2,4.5,30.7,19.5,31.2,40.3c0.2,6.3-0.2,12.7,0.1,19c0.3,6.3-1.7,11-7.5,13.8
		C298.3,511.7,213.7,511.7,129.1,511.7z M325.9,491.1c0-2.2,0-3.8,0-5.5c0-146.4,0-292.8,0-439.3c0-17-8.5-25.6-25.4-25.6
		c-29.6,0-59.2,0-88.9,0c-16.9,0-25.5,8.6-25.5,25.5c0,146.4,0,292.8,0,439.3c0,1.8,0,3.6,0,5.6C232.9,491.1,279,491.1,325.9,491.1z
		 M165.6,491.1c0-11.4,0-22.1,0-32.9c-11.9-1.5-21.8,5.3-23.1,16.2c-0.7,5.4-0.1,10.9-0.1,16.6C150.1,491.1,157.7,491.1,165.6,491.1
		z M346.1,458.2c0,10.1,0,19.9,0,29.7c0,1,0.2,1.9,0.3,3.2c7.8,0,15.3,0,22.9,0C373.1,469.5,364.1,456.4,346.1,458.2z"/>
	<path class="st0" d="M241.1,404.9c0,17.5,0.1,35,0,52.4c-0.1,8.5-6.9,13.5-13.9,10.5c-4.3-1.8-6.2-5.3-6.3-9.9c0-6.8,0-13.6,0-20.5
		c0-28.1,0-56.3,0-84.4c0-7.4,3.2-11.6,9.1-12.2c6.7-0.6,11.1,3.8,11.1,11.6C241.1,369.9,241.1,387.4,241.1,404.9z"/>
	<path class="st0" d="M232.1,194.2c-15.2,0-27.7-12.4-27.7-27.5c0.1-15.1,12.7-27.6,27.8-27.5c14.9,0.1,27.2,12.4,27.4,27.4
		C259.8,181.7,247.3,194.2,232.1,194.2z M239.1,167c0.1-4.1-3-7.3-7-7.3c-3.9,0-6.9,3-7.1,6.8c-0.1,4,3.1,7.4,7.1,7.4
		C235.8,174,239,170.8,239.1,167z"/>
	<path class="st0" d="M232.3,218.8c15.2,0.1,27.7,12.9,27.3,27.8c-0.4,15-12.8,27.2-27.6,27.2c-15,0-27.7-12.8-27.6-27.7
		C204.6,230.9,217.1,218.7,232.3,218.8z M232.2,253.3c3.9-0.1,6.9-3,6.9-6.9c0.1-4-3.2-7.3-7.2-7.2c-3.8,0.1-6.9,3.2-6.9,7
		C224.9,250.2,228.1,253.3,232.2,253.3z"/>
	<path class="st0" d="M204.5,87.4c0-15.1,12.6-27.7,27.7-27.6c15,0.1,27.2,12.2,27.5,27.3c0.3,14.9-12.3,27.7-27.4,27.9
		C217.2,115.1,204.5,102.5,204.5,87.4z M239.1,87.3c0-3.8-3-6.9-6.8-7c-4-0.1-7.3,3.1-7.2,7.1c0,4,3.3,7.1,7.4,7
		C236.2,94.2,239.1,91.1,239.1,87.3z"/>
	<path class="st0" d="M241.2,309.2c-0.1,1.7,0,3.3-0.3,5c-0.9,5.1-5.2,8.7-10.1,8.6c-4.9-0.1-9.1-3.9-9.7-9c-0.3-2.5-0.3-5-0.1-7.5
		c0.3-6.1,4.5-10.3,10-10.3c5.5,0,9.7,4.2,10.1,10.2c0.1,1,0,2,0,3C241.1,309.2,241.1,309.2,241.2,309.2z"/>
</g>
</svg>
