<?xml version="1.0" encoding="utf-8"?>
<!-- Generator: Adobe Illustrator 26.0.1, SVG Export Plug-In . SVG Version: 6.00 Build 0)  -->
<svg version="1.1" id="Layer_1" xmlns="http://www.w3.org/2000/svg" xmlns:xlink="http://www.w3.org/1999/xlink" x="0px" y="0px"
	 viewBox="0 0 512 512" style="enable-background:new 0 0 512 512;" xml:space="preserve">
<style type="text/css">
	.st0{fill:#00CEF5;}
</style>
<path class="st0" d="M234.7,490.7c0-11.8,9.6-21.3,21.3-21.3c11.8,0,21.3,9.6,21.3,21.3c0,11.8-9.6,21.3-21.3,21.3
	C244.2,512,234.7,502.4,234.7,490.7z M331.4,445.4c8.3-8.3,8.3-21.8,0-30.2c-41.7-41.6-109.2-41.6-150.8,0c-8.2,8.5-8,22,0.5,30.2
	c8.3,8,21.4,8,29.6,0c25.3-24.1,65.2-24.1,90.5,0C309.6,453.7,323.1,453.7,331.4,445.4z M391.8,385.1c8.3-8.3,8.3-21.8,0-30.2
	c-75-74.9-196.5-74.9-271.5,0c-8.2,8.5-8,22,0.5,30.2c8.3,8,21.4,8,29.6,0c58.4-58.2,152.8-58.2,211.2,0
	C369.9,393.4,383.4,393.4,391.8,385.1z M127.7,472.8c1.9-11.6-6-22.6-17.6-24.5c0,0,0,0,0,0c-33-5.2-59.4-30.1-66.6-62.7
	c-4.7-31.2,10.9-62,38.9-76.7c20.4-11.2,28.1-36.8,17.2-57.4c-32.9-62.6-8.8-140,53.8-172.8s140-8.8,172.8,53.8
	c3.8,7.3,6.9,14.9,9.3,22.7c6.4,20.9,22.7,37.3,43.6,43.8c57.4,17.5,94.9,72.7,89.9,132.5c-3.9,44.4-31.8,83.1-72.7,100.8
	c-10.5,5.3-14.7,18.1-9.4,28.7c5.1,10.2,17.3,14.5,27.7,9.9c54.9-24.1,92.1-76.3,97-136c6.6-79.8-43.3-153.3-119.9-176.6
	c-7.4-2.3-13.2-8.2-15.4-15.7c-28-90-123.7-140.2-213.7-112.2C102.6,49,57.8,99,45.8,160.5c-7.5,37.7-1.6,76.8,16.6,110.7
	c-43.9,23-68.5,71.3-61.1,120.3c10,51,50.7,90.5,102,98.8C114.9,492.3,125.8,484.4,127.7,472.8C127.7,472.8,127.7,472.8,127.7,472.8
	L127.7,472.8z"/>
</svg>
