<svg xmlns="http://www.w3.org/2000/svg" xmlns:xlink="http://www.w3.org/1999/xlink" viewBox="0 0 419.65 280"><defs><style>.cls-1{mask:url(#mask);filter:url(#luminosity-noclip-3);}.cls-10,.cls-12,.cls-14,.cls-2,.cls-20,.cls-4,.cls-6{mix-blend-mode:multiply;}.cls-2{fill:url(#linear-gradient);}.cls-3{mask:url(#mask-2);filter:url(#luminosity-noclip-4);}.cls-4{fill:url(#linear-gradient-2);}.cls-5{isolation:isolate;}.cls-6,.cls-74{fill:#0f012d;}.cls-7{fill:url(#linear-gradient-3);}.cls-8{fill:url(#linear-gradient-4);}.cls-9{fill:url(#linear-gradient-5);}.cls-11,.cls-20{fill:#808184;}.cls-12{fill:#bbbdbf;}.cls-13{fill:url(#linear-gradient-6);}.cls-14,.cls-29{fill:#6d6e70;}.cls-15{fill:url(#linear-gradient-7);}.cls-16{fill:url(#linear-gradient-8);}.cls-17{fill:url(#linear-gradient-9);}.cls-18{fill:url(#linear-gradient-10);}.cls-19{fill:url(#linear-gradient-11);}.cls-21{fill:url(#linear-gradient-12);}.cls-22{fill:url(#linear-gradient-13);}.cls-23{fill:url(#linear-gradient-14);}.cls-24{fill:url(#linear-gradient-15);}.cls-25{fill:url(#linear-gradient-16);}.cls-26{fill:url(#linear-gradient-17);}.cls-27{fill:url(#linear-gradient-18);}.cls-28{fill:url(#linear-gradient-19);}.cls-30{fill:url(#linear-gradient-20);}.cls-31{fill:url(#linear-gradient-21);}.cls-32{fill:url(#linear-gradient-22);}.cls-33{fill:url(#linear-gradient-23);}.cls-34{fill:url(#linear-gradient-24);}.cls-35{fill:url(#linear-gradient-25);}.cls-36{fill:url(#linear-gradient-26);}.cls-37{fill:url(#linear-gradient-27);}.cls-38{fill:url(#linear-gradient-28);}.cls-39{fill:url(#linear-gradient-29);}.cls-40{fill:url(#linear-gradient-30);}.cls-41{fill:url(#linear-gradient-31);}.cls-42{fill:url(#linear-gradient-32);}.cls-43{fill:url(#linear-gradient-33);}.cls-44{fill:url(#linear-gradient-34);}.cls-45{fill:url(#linear-gradient-35);}.cls-46{fill:url(#linear-gradient-36);}.cls-47{fill:url(#linear-gradient-37);}.cls-48{fill:url(#linear-gradient-38);}.cls-49{fill:url(#linear-gradient-39);}.cls-50{fill:url(#linear-gradient-40);}.cls-51{fill:url(#linear-gradient-41);}.cls-52{fill:url(#linear-gradient-42);}.cls-53{fill:url(#linear-gradient-43);}.cls-54{fill:url(#linear-gradient-44);}.cls-55{fill:url(#linear-gradient-45);}.cls-56{fill:url(#linear-gradient-46);}.cls-57{fill:url(#linear-gradient-47);}.cls-58{fill:url(#linear-gradient-48);}.cls-59{fill:url(#linear-gradient-49);}.cls-60{fill:url(#linear-gradient-50);}.cls-61{fill:url(#linear-gradient-51);}.cls-62{fill:url(#linear-gradient-52);}.cls-63{fill:url(#linear-gradient-53);}.cls-64{fill:url(#linear-gradient-54);}.cls-65{fill:url(#linear-gradient-55);}.cls-66{fill:url(#linear-gradient-56);}.cls-67{fill:url(#linear-gradient-57);}.cls-68{fill:url(#linear-gradient-58);}.cls-195,.cls-69{fill-opacity:0.5;}.cls-69{fill:url(#linear-gradient-59);}.cls-70{fill:url(#linear-gradient-60);}.cls-71{fill:url(#linear-gradient-61);}.cls-72{fill:url(#linear-gradient-62);}.cls-73{fill:url(#linear-gradient-63);}.cls-75{fill:url(#linear-gradient-64);}.cls-76{fill:url(#linear-gradient-65);}.cls-77{fill:url(#linear-gradient-66);}.cls-78{fill:url(#linear-gradient-67);}.cls-79{fill:url(#linear-gradient-68);}.cls-80{fill:url(#linear-gradient-69);}.cls-81{fill:url(#linear-gradient-70);}.cls-82{fill:url(#linear-gradient-71);}.cls-83{fill:url(#linear-gradient-72);}.cls-84{fill:url(#linear-gradient-73);}.cls-85{fill:url(#linear-gradient-74);}.cls-86{fill:url(#linear-gradient-75);}.cls-87{fill:url(#linear-gradient-76);}.cls-88{fill:url(#linear-gradient-77);}.cls-89{fill:url(#linear-gradient-78);}.cls-90{fill:url(#linear-gradient-79);}.cls-91{fill:url(#linear-gradient-80);}.cls-92{fill:url(#linear-gradient-81);}.cls-93{fill:url(#linear-gradient-82);}.cls-94{fill:url(#linear-gradient-83);}.cls-95{fill:url(#linear-gradient-84);}.cls-96{fill:url(#linear-gradient-85);}.cls-97{fill:url(#linear-gradient-86);}.cls-98{fill:url(#linear-gradient-87);}.cls-99{fill:url(#linear-gradient-88);}.cls-100{fill:url(#linear-gradient-89);}.cls-101{fill:url(#linear-gradient-90);}.cls-102{fill:url(#linear-gradient-91);}.cls-103{fill:url(#linear-gradient-92);}.cls-104{fill:url(#linear-gradient-93);}.cls-105{fill:url(#linear-gradient-94);}.cls-106{fill:url(#linear-gradient-95);}.cls-107{fill:url(#linear-gradient-96);}.cls-108{fill:url(#linear-gradient-97);}.cls-109{fill:url(#linear-gradient-98);}.cls-110{fill:url(#linear-gradient-99);}.cls-111{fill:url(#linear-gradient-100);}.cls-112{fill:url(#linear-gradient-101);}.cls-113{fill:url(#linear-gradient-102);}.cls-114{fill:url(#linear-gradient-103);}.cls-115{fill:url(#linear-gradient-104);}.cls-116{fill:url(#linear-gradient-105);}.cls-117{fill:url(#linear-gradient-106);}.cls-118{fill:url(#linear-gradient-107);}.cls-119{fill:url(#linear-gradient-108);}.cls-120{fill:url(#linear-gradient-109);}.cls-121{fill:url(#linear-gradient-110);}.cls-122{fill:url(#linear-gradient-111);}.cls-123{fill:url(#linear-gradient-112);}.cls-124{fill:url(#linear-gradient-113);}.cls-125{fill:url(#linear-gradient-114);}.cls-126{fill:url(#linear-gradient-115);}.cls-127{fill:url(#linear-gradient-116);}.cls-128{fill:url(#linear-gradient-117);}.cls-129{fill:url(#linear-gradient-118);}.cls-130{fill:url(#linear-gradient-119);}.cls-131{fill:url(#linear-gradient-120);}.cls-132{fill:url(#linear-gradient-121);}.cls-133{fill:url(#linear-gradient-122);}.cls-134{fill:url(#linear-gradient-123);}.cls-135{fill:url(#linear-gradient-124);}.cls-136{fill:url(#linear-gradient-125);}.cls-137{fill:url(#linear-gradient-126);}.cls-138{fill:url(#linear-gradient-127);}.cls-139{fill:url(#linear-gradient-128);}.cls-140{fill:url(#linear-gradient-129);}.cls-141{fill:url(#linear-gradient-130);}.cls-142{fill:url(#linear-gradient-131);}.cls-143{fill:url(#linear-gradient-132);}.cls-144{fill:url(#linear-gradient-134);}.cls-145{fill:url(#linear-gradient-135);}.cls-146{fill:url(#linear-gradient-136);}.cls-147{fill:url(#linear-gradient-137);}.cls-148{fill:url(#linear-gradient-138);}.cls-149{fill:url(#linear-gradient-139);}.cls-150{fill:url(#linear-gradient-140);}.cls-151{fill:url(#linear-gradient-142);}.cls-152{fill:url(#linear-gradient-143);}.cls-153{fill:url(#linear-gradient-144);}.cls-154{fill:url(#linear-gradient-145);}.cls-155{fill:url(#linear-gradient-146);}.cls-156{fill:url(#linear-gradient-147);}.cls-157{fill:url(#linear-gradient-148);}.cls-158{fill:url(#linear-gradient-149);}.cls-159{fill:url(#linear-gradient-150);}.cls-160{fill:url(#linear-gradient-151);}.cls-161{fill:url(#linear-gradient-152);}.cls-162{fill:url(#linear-gradient-153);}.cls-163{fill:url(#linear-gradient-154);}.cls-164{fill:url(#linear-gradient-155);}.cls-165{fill:url(#linear-gradient-156);}.cls-166{fill:url(#linear-gradient-157);}.cls-167{fill:url(#linear-gradient-158);}.cls-168{fill:url(#linear-gradient-159);}.cls-169{fill:url(#linear-gradient-160);}.cls-170{fill:url(#linear-gradient-161);}.cls-171{fill:url(#linear-gradient-162);}.cls-172{fill:url(#linear-gradient-163);}.cls-173{fill:url(#linear-gradient-164);}.cls-174{fill:url(#linear-gradient-165);}.cls-175{fill:url(#linear-gradient-166);}.cls-176{fill:url(#linear-gradient-167);}.cls-177{fill:url(#linear-gradient-168);}.cls-178{fill:url(#linear-gradient-169);}.cls-179{fill:url(#linear-gradient-170);}.cls-180{fill:url(#linear-gradient-171);}.cls-181{fill:url(#linear-gradient-172);}.cls-182{fill:url(#linear-gradient-173);}.cls-183{fill:url(#linear-gradient-174);}.cls-184{fill:url(#linear-gradient-175);}.cls-185{fill:url(#linear-gradient-176);}.cls-186{fill:url(#linear-gradient-177);}.cls-187{fill:url(#linear-gradient-178);}.cls-188{fill:url(#linear-gradient-179);}.cls-189{fill:url(#linear-gradient-180);}.cls-190{fill:url(#linear-gradient-181);}.cls-191{fill:url(#linear-gradient-182);}.cls-192{fill:url(#linear-gradient-183);}.cls-193{fill:url(#linear-gradient-184);}.cls-194{fill:url(#linear-gradient-185);}.cls-195{fill:url(#linear-gradient-186);}.cls-196{fill:url(#linear-gradient-187);}.cls-197{fill:url(#linear-gradient-188);}.cls-198{fill:url(#linear-gradient-189);}.cls-199{fill:url(#linear-gradient-190);}.cls-200{fill:url(#linear-gradient-191);}.cls-201{fill:url(#linear-gradient-192);}.cls-202{mask:url(#mask-3);}.cls-203{fill:url(#linear-gradient-193);}.cls-204{fill:url(#linear-gradient-194);}.cls-205{fill:url(#linear-gradient-195);}.cls-206{fill:url(#linear-gradient-196);}.cls-207{fill:url(#linear-gradient-197);}.cls-208{fill:url(#linear-gradient-198);}.cls-209{fill:url(#linear-gradient-199);}.cls-210{fill:url(#linear-gradient-200);}.cls-211{mask:url(#mask-4);}.cls-212{fill:url(#linear-gradient-201);}.cls-213{fill:url(#linear-gradient-202);}.cls-214{fill:url(#linear-gradient-203);}.cls-215{fill:url(#linear-gradient-204);}.cls-216{fill:url(#linear-gradient-205);}.cls-217{filter:url(#luminosity-noclip-2);}.cls-218{filter:url(#luminosity-noclip);}</style><filter id="luminosity-noclip" x="358.67" y="-8332" width="19.6" height="32766" filterUnits="userSpaceOnUse" color-interpolation-filters="sRGB"><feFlood flood-color="#fff" result="bg"/><feBlend in="SourceGraphic" in2="bg"/></filter><mask id="mask" x="358.67" y="-8332" width="19.6" height="32766" maskUnits="userSpaceOnUse"><g class="cls-218"/></mask><linearGradient id="linear-gradient" x1="653.97" y1="298.09" x2="666.6" y2="298.95" gradientTransform="matrix(-0.87, -0.5, -1, 0.58, 1239.37, 403.3)" gradientUnits="userSpaceOnUse"><stop offset="0" stop-color="gray"/><stop offset="0.14" stop-color="#787878"/><stop offset="0.36" stop-color="#626262"/><stop offset="0.63" stop-color="#3e3e3e"/><stop offset="0.93" stop-color="#0c0c0c"/><stop offset="1"/></linearGradient><filter id="luminosity-noclip-2" x="371.83" y="-8332" width="19.6" height="32766" filterUnits="userSpaceOnUse" color-interpolation-filters="sRGB"><feFlood flood-color="#fff" result="bg"/><feBlend in="SourceGraphic" in2="bg"/></filter><mask id="mask-2" x="371.83" y="-8332" width="19.6" height="32766" maskUnits="userSpaceOnUse"><g class="cls-217"/></mask><linearGradient id="linear-gradient-2" x1="382.27" y1="255.43" x2="369.61" y2="255.93" gradientTransform="matrix(0.87, 0.5, -1, 0.58, 311.28, -132.3)" gradientUnits="userSpaceOnUse"><stop offset="0" stop-color="gray"/><stop offset="0.11" stop-color="#676767"/><stop offset="0.29" stop-color="#424242"/><stop offset="0.47" stop-color="#252525"/><stop offset="0.65" stop-color="#111"/><stop offset="0.83" stop-color="#040404"/><stop offset="1"/></linearGradient><linearGradient id="linear-gradient-3" x1="31.58" y1="231.68" x2="102.85" y2="231.95" gradientUnits="userSpaceOnUse"><stop offset="0" stop-color="#4600dd"/><stop offset="0.29" stop-color="#4802de"/><stop offset="0.4" stop-color="#4f08e0"/><stop offset="0.47" stop-color="#5a12e3"/><stop offset="0.53" stop-color="#6b21e8"/><stop offset="0.59" stop-color="#8135ef"/><stop offset="0.63" stop-color="#9c4df7"/><stop offset="0.67" stop-color="#b664ff"/><stop offset="0.67" stop-color="#b45efa"/><stop offset="0.7" stop-color="#a741e1"/><stop offset="0.74" stop-color="#9d29cd"/><stop offset="0.77" stop-color="#9517bd"/><stop offset="0.82" stop-color="#8f0ab2"/><stop offset="0.88" stop-color="#8c02ac"/><stop offset="1" stop-color="#8b00aa"/></linearGradient><linearGradient id="linear-gradient-4" x1="458.48" y1="96.45" x2="515.54" y2="139.17" gradientTransform="matrix(-0.87, 0.5, 1.5, 0.29, 312.16, -54.59)" gradientUnits="userSpaceOnUse"><stop offset="0" stop-color="#89b2ff"/><stop offset="0.57" stop-color="#714eff"/><stop offset="1" stop-color="#8980ff"/></linearGradient><linearGradient id="linear-gradient-5" x1="36.82" y1="223.59" x2="97.9" y2="223.59" gradientUnits="userSpaceOnUse"><stop offset="0" stop-color="#4600b5"/><stop offset="0.29" stop-color="#4802b6"/><stop offset="0.4" stop-color="#4f08bb"/><stop offset="0.47" stop-color="#5a12c3"/><stop offset="0.53" stop-color="#6b21ce"/><stop offset="0.59" stop-color="#8135dc"/><stop offset="0.63" stop-color="#9c4dee"/><stop offset="0.67" stop-color="#b664ff"/><stop offset="0.67" stop-color="#b45efa"/><stop offset="0.7" stop-color="#a741e1"/><stop offset="0.74" stop-color="#9d29cd"/><stop offset="0.77" stop-color="#9517bd"/><stop offset="0.82" stop-color="#8f0ab2"/><stop offset="0.88" stop-color="#8c02ac"/><stop offset="1" stop-color="#8b00aa"/></linearGradient><linearGradient id="linear-gradient-6" x1="37.01" y1="223.59" x2="97.71" y2="223.59" gradientUnits="userSpaceOnUse"><stop offset="0" stop-color="#00dfff"/><stop offset="0.65" stop-color="#00baff"/><stop offset="1" stop-color="#00acff"/></linearGradient><linearGradient id="linear-gradient-7" x1="-97.35" y1="278.62" x2="-97.99" y2="275.31" gradientTransform="matrix(0.87, 0.5, 0.5, 1.44, -12.37, -125.42)" xlink:href="#linear-gradient-4"/><linearGradient id="linear-gradient-8" x1="-97.76" y1="278.61" x2="-98.35" y2="275.52" gradientTransform="matrix(0.87, 0.5, 0.5, 1.44, -12.37, -125.42)" gradientUnits="userSpaceOnUse"><stop offset="0" stop-color="#532295"/><stop offset="0.44" stop-color="#4b168c"/><stop offset="1" stop-color="#440c84"/></linearGradient><linearGradient id="linear-gradient-9" x1="163.17" y1="234.27" x2="285.78" y2="234.74" xlink:href="#linear-gradient-3"/><linearGradient id="linear-gradient-10" x1="384.76" y1="155.24" x2="481.98" y2="228.05" xlink:href="#linear-gradient-4"/><linearGradient id="linear-gradient-11" x1="170.66" y1="218.58" x2="278.84" y2="218.58" xlink:href="#linear-gradient-5"/><linearGradient id="linear-gradient-12" x1="170.94" y1="218.58" x2="278.56" y2="218.58" xlink:href="#linear-gradient-6"/><linearGradient id="linear-gradient-13" x1="197.44" y1="197.88" x2="198.53" y2="197.88" gradientTransform="matrix(0.87, 0.5, 0, 1.15, 19.81, -96.97)" xlink:href="#linear-gradient-6"/><linearGradient id="linear-gradient-14" x1="199.19" y1="197.88" x2="200.27" y2="197.88" gradientTransform="matrix(0.87, 0.5, 0, 1.15, 19.81, -96.97)" xlink:href="#linear-gradient-6"/><linearGradient id="linear-gradient-15" x1="200.93" y1="197.89" x2="202.01" y2="197.89" gradientTransform="matrix(0.87, 0.5, 0, 1.15, 19.81, -96.97)" xlink:href="#linear-gradient-6"/><linearGradient id="linear-gradient-16" x1="202.67" y1="197.89" x2="203.76" y2="197.89" gradientTransform="matrix(0.87, 0.5, 0, 1.15, 19.81, -96.97)" xlink:href="#linear-gradient-6"/><linearGradient id="linear-gradient-17" x1="204.42" y1="197.9" x2="205.5" y2="197.9" gradientTransform="matrix(0.87, 0.5, 0, 1.15, 19.81, -96.97)" xlink:href="#linear-gradient-6"/><linearGradient id="linear-gradient-18" x1="206.16" y1="197.9" x2="207.24" y2="197.9" gradientTransform="matrix(0.87, 0.5, 0, 1.15, 19.81, -96.97)" xlink:href="#linear-gradient-6"/><linearGradient id="linear-gradient-19" x1="207.91" y1="197.9" x2="208.99" y2="197.9" gradientTransform="matrix(0.87, 0.5, 0, 1.15, 19.81, -96.97)" xlink:href="#linear-gradient-6"/><linearGradient id="linear-gradient-20" x1="228.46" y1="162.65" x2="228.46" y2="169.13" gradientTransform="matrix(0.87, -0.5, 0, 1.15, 8.61, 31.55)" gradientUnits="userSpaceOnUse"><stop offset="0" stop-color="#420091"/><stop offset="0.44" stop-color="#49008e"/><stop offset="1" stop-color="#590086"/></linearGradient><linearGradient id="linear-gradient-21" x1="204.31" y1="41.77" x2="204.31" y2="115.64" gradientUnits="userSpaceOnUse"><stop offset="0" stop-color="#42007f"/><stop offset="0.46" stop-color="#470078"/><stop offset="1" stop-color="#52006a"/></linearGradient><linearGradient id="linear-gradient-22" x1="206.28" y1="436.9" x2="206.28" y2="835.25" gradientTransform="matrix(1, 0, 0, -0.15, 0, 170.29)" xlink:href="#linear-gradient-20"/><linearGradient id="linear-gradient-23" x1="226.38" y1="-2.55" x2="221.66" y2="3.6" gradientTransform="matrix(0.87, 0.5, 0, 1.15, 10.75, -68.27)" gradientUnits="userSpaceOnUse"><stop offset="0" stop-color="#4600b5"/><stop offset="0.45" stop-color="#5b00be"/><stop offset="1" stop-color="#7a00cc"/></linearGradient><linearGradient id="linear-gradient-24" x1="257.79" y1="162.6" x2="257.79" y2="169.08" xlink:href="#linear-gradient-20"/><linearGradient id="linear-gradient-25" x1="229.71" y1="27.05" x2="229.71" y2="100.92" xlink:href="#linear-gradient-21"/><linearGradient id="linear-gradient-26" x1="231.68" y1="536.45" x2="231.68" y2="934.8" gradientTransform="matrix(1, 0, 0, -0.15, 0, 170.29)" xlink:href="#linear-gradient-20"/><linearGradient id="linear-gradient-27" x1="255.71" y1="-28" x2="250.99" y2="-21.85" xlink:href="#linear-gradient-23"/><linearGradient id="linear-gradient-28" x1="287.14" y1="162.65" x2="287.14" y2="169.13" xlink:href="#linear-gradient-20"/><linearGradient id="linear-gradient-29" x1="255.13" y1="12.44" x2="255.13" y2="86.3" xlink:href="#linear-gradient-21"/><linearGradient id="linear-gradient-30" x1="257.09" y1="635.27" x2="257.09" y2="1033.61" gradientTransform="matrix(1, 0, 0, -0.15, 0, 170.29)" xlink:href="#linear-gradient-20"/><linearGradient id="linear-gradient-31" x1="285.06" y1="-53.37" x2="280.34" y2="-47.21" xlink:href="#linear-gradient-23"/><linearGradient id="linear-gradient-32" x1="202.09" y1="117.93" x2="250.81" y2="149.02" gradientUnits="userSpaceOnUse"><stop offset="0" stop-color="#4600b5"/><stop offset="0.21" stop-color="#4900b7"/><stop offset="0.4" stop-color="#5400bb"/><stop offset="0.57" stop-color="#6600c3"/><stop offset="0.74" stop-color="#7f00ce"/><stop offset="0.91" stop-color="#a000dc"/><stop offset="1" stop-color="#b600e6"/></linearGradient><linearGradient id="linear-gradient-33" x1="303.31" y1="207.14" x2="271.97" y2="242.88" gradientTransform="matrix(0.87, -0.5, 0, 1.15, 1.9, -2.79)" gradientUnits="userSpaceOnUse"><stop offset="0" stop-color="#89b2ff"/><stop offset="0.07" stop-color="#86a5ff"/><stop offset="0.35" stop-color="#7b76ff"/><stop offset="0.57" stop-color="#7459ff"/><stop offset="0.69" stop-color="#714eff"/><stop offset="1" stop-color="#8980ff"/></linearGradient><linearGradient id="linear-gradient-34" x1="322.66" y1="230.47" x2="303.66" y2="263.39" gradientTransform="matrix(0.87, -0.5, 0, 1.15, 1.9, -2.79)" gradientUnits="userSpaceOnUse"><stop offset="0" stop-color="#89e4ff"/><stop offset="0.24" stop-color="#7fa6ff"/><stop offset="0.44" stop-color="#7776ff"/><stop offset="0.6" stop-color="#7359ff"/><stop offset="0.69" stop-color="#714eff"/><stop offset="1" stop-color="#89a3ff"/></linearGradient><linearGradient id="linear-gradient-35" x1="322.11" y1="231.61" x2="304.08" y2="262.84" gradientTransform="matrix(0.87, -0.5, 0, 1.15, 1.9, -2.79)" gradientUnits="userSpaceOnUse"><stop offset="0" stop-color="#420091"/><stop offset="0.31" stop-color="#45008a"/><stop offset="0.74" stop-color="#4c0078"/><stop offset="1" stop-color="#52006a"/></linearGradient><linearGradient id="linear-gradient-36" x1="316" y1="181.51" x2="314.65" y2="183.85" gradientTransform="matrix(0.87, -0.5, 0, 1.15, 24.39, 60.08)" xlink:href="#linear-gradient-6"/><linearGradient id="linear-gradient-37" x1="315.66" y1="182.1" x2="314.98" y2="183.27" gradientTransform="matrix(0.87, -0.5, 0, 1.15, 24.39, 60.08)" xlink:href="#linear-gradient-35"/><linearGradient id="linear-gradient-38" x1="311.43" y1="181.51" x2="310.08" y2="183.85" gradientTransform="matrix(0.87, -0.5, 0, 1.15, 24.39, 60.08)" xlink:href="#linear-gradient-6"/><linearGradient id="linear-gradient-39" x1="311.09" y1="182.1" x2="310.41" y2="183.27" gradientTransform="matrix(0.87, -0.5, 0, 1.15, 24.39, 60.08)" xlink:href="#linear-gradient-35"/><linearGradient id="linear-gradient-40" x1="306.86" y1="181.51" x2="305.51" y2="183.85" gradientTransform="matrix(0.87, -0.5, 0, 1.15, 24.39, 60.08)" xlink:href="#linear-gradient-6"/><linearGradient id="linear-gradient-41" x1="306.52" y1="182.1" x2="305.84" y2="183.27" gradientTransform="matrix(0.87, -0.5, 0, 1.15, 24.39, 60.08)" xlink:href="#linear-gradient-35"/><linearGradient id="linear-gradient-42" x1="302.29" y1="181.51" x2="300.94" y2="183.85" gradientTransform="matrix(0.87, -0.5, 0, 1.15, 24.39, 60.08)" xlink:href="#linear-gradient-6"/><linearGradient id="linear-gradient-43" x1="301.95" y1="182.1" x2="301.27" y2="183.27" gradientTransform="matrix(0.87, -0.5, 0, 1.15, 24.39, 60.08)" xlink:href="#linear-gradient-35"/><linearGradient id="linear-gradient-44" x1="297.72" y1="181.51" x2="296.37" y2="183.85" gradientTransform="matrix(0.87, -0.5, 0, 1.15, 24.39, 60.08)" xlink:href="#linear-gradient-6"/><linearGradient id="linear-gradient-45" x1="297.38" y1="182.1" x2="296.7" y2="183.27" gradientTransform="matrix(0.87, -0.5, 0, 1.15, 24.39, 60.08)" xlink:href="#linear-gradient-35"/><linearGradient id="linear-gradient-46" x1="293.15" y1="181.51" x2="291.8" y2="183.85" gradientTransform="matrix(0.87, -0.5, 0, 1.15, 24.39, 60.08)" xlink:href="#linear-gradient-6"/><linearGradient id="linear-gradient-47" x1="292.81" y1="182.1" x2="292.13" y2="183.27" gradientTransform="matrix(0.87, -0.5, 0, 1.15, 24.39, 60.08)" xlink:href="#linear-gradient-35"/><linearGradient id="linear-gradient-48" x1="288.58" y1="181.51" x2="287.23" y2="183.85" gradientTransform="matrix(0.87, -0.5, 0, 1.15, 24.39, 60.08)" xlink:href="#linear-gradient-6"/><linearGradient id="linear-gradient-49" x1="288.24" y1="182.1" x2="287.56" y2="183.27" gradientTransform="matrix(0.87, -0.5, 0, 1.15, 24.39, 60.08)" xlink:href="#linear-gradient-35"/><linearGradient id="linear-gradient-50" x1="263.23" y1="181.92" x2="268.56" y2="181.92" gradientTransform="matrix(0.87, -0.5, 0, 1.15, 24.39, 60.08)" xlink:href="#linear-gradient-6"/><linearGradient id="linear-gradient-51" x1="264.23" y1="182.97" x2="267.55" y2="182.97" gradientTransform="matrix(0.87, -0.5, 0, 1.15, 24.39, 60.08)" xlink:href="#linear-gradient-6"/><linearGradient id="linear-gradient-52" x1="265.25" y1="184.01" x2="266.55" y2="184.01" gradientTransform="matrix(0.87, -0.5, 0, 1.15, 24.39, 60.08)" xlink:href="#linear-gradient-6"/><linearGradient id="linear-gradient-53" x1="258.26" y1="182.93" x2="261.77" y2="182.93" gradientTransform="matrix(0.87, -0.5, 0, 1.15, 24.39, 60.08)" xlink:href="#linear-gradient-6"/><linearGradient id="linear-gradient-54" x1="259.72" y1="181.91" x2="260.31" y2="181.91" gradientTransform="matrix(0.87, -0.5, 0, 1.15, 24.39, 60.08)" xlink:href="#linear-gradient-6"/><linearGradient id="linear-gradient-55" x1="-40.44" y1="177.9" x2="8.27" y2="208.99" gradientTransform="matrix(-1, 0, 0, 1, 317.49, 0)" xlink:href="#linear-gradient-32"/><linearGradient id="linear-gradient-56" x1="23.24" y1="137.81" x2="-8.1" y2="173.54" gradientTransform="matrix(-0.87, -0.5, 0, 1.15, 315.6, -2.79)" gradientUnits="userSpaceOnUse"><stop offset="0" stop-color="#8980ff"/><stop offset="0.25" stop-color="#714eff"/><stop offset="1" stop-color="#89b2ff"/></linearGradient><linearGradient id="linear-gradient-57" x1="42.6" y1="161.13" x2="23.59" y2="194.05" gradientTransform="matrix(-0.87, -0.5, 0, 1.15, 315.6, -2.79)" xlink:href="#linear-gradient-34"/><linearGradient id="linear-gradient-58" x1="42.04" y1="162.27" x2="24.01" y2="193.5" gradientTransform="matrix(-0.87, -0.5, 0, 1.15, 315.6, -2.79)" xlink:href="#linear-gradient-35"/><linearGradient id="linear-gradient-59" x1="-9.96" y1="112.22" x2="-11.3" y2="114.55" gradientTransform="matrix(-0.87, -0.5, 0, 1.15, 293.1, 60.08)" xlink:href="#linear-gradient-6"/><linearGradient id="linear-gradient-60" x1="-14.53" y1="112.22" x2="-15.87" y2="114.55" gradientTransform="matrix(-0.87, -0.5, 0, 1.15, 293.1, 60.08)" xlink:href="#linear-gradient-6"/><linearGradient id="linear-gradient-61" x1="-19.1" y1="112.22" x2="-20.44" y2="114.55" gradientTransform="matrix(-0.87, -0.5, 0, 1.15, 293.1, 60.08)" xlink:href="#linear-gradient-6"/><linearGradient id="linear-gradient-62" x1="32.73" y1="113.53" x2="36.25" y2="113.53" gradientTransform="matrix(-0.87, -0.5, 0, 1.15, 293.1, 60.08)" xlink:href="#linear-gradient-6"/><linearGradient id="linear-gradient-63" x1="34.2" y1="112.52" x2="34.78" y2="112.52" gradientTransform="matrix(-0.87, -0.5, 0, 1.15, 293.1, 60.08)" xlink:href="#linear-gradient-6"/><linearGradient id="linear-gradient-64" x1="97.82" y1="20.49" x2="54.19" y2="200.94" gradientUnits="userSpaceOnUse"><stop offset="0" stop-color="#4600dd"/><stop offset="0.23" stop-color="#4802de"/><stop offset="0.31" stop-color="#4f08e0"/><stop offset="0.36" stop-color="#5a12e3"/><stop offset="0.41" stop-color="#6b21e8"/><stop offset="0.45" stop-color="#8135ef"/><stop offset="0.49" stop-color="#9c4df7"/><stop offset="0.51" stop-color="#b664ff"/><stop offset="0.53" stop-color="#b056f3"/><stop offset="0.56" stop-color="#a53bdc"/><stop offset="0.6" stop-color="#9b25ca"/><stop offset="0.65" stop-color="#9414bb"/><stop offset="0.7" stop-color="#8f09b1"/><stop offset="0.78" stop-color="#8c02ac"/><stop offset="1" stop-color="#8b00aa"/></linearGradient><linearGradient id="linear-gradient-65" x1="505.49" y1="18.18" x2="393.53" y2="145.83" gradientTransform="matrix(-0.75, 0.43, -0.14, 1.42, 448.36, -196.76)" xlink:href="#linear-gradient-4"/><linearGradient id="linear-gradient-66" x1="499.74" y1="24.54" x2="401.55" y2="136.49" gradientTransform="matrix(-0.75, 0.43, -0.14, 1.42, 448.36, -196.76)" xlink:href="#linear-gradient-5"/><linearGradient id="linear-gradient-67" x1="387.59" y1="103.76" x2="515.32" y2="51.88" gradientTransform="matrix(-0.75, 0.43, -0.14, 1.42, 448.36, -196.76)" xlink:href="#linear-gradient-6"/><linearGradient id="linear-gradient-68" x1="58.17" y1="180.6" x2="224.8" y2="181.24" gradientUnits="userSpaceOnUse"><stop offset="0" stop-color="#4600dd"/><stop offset="0.17" stop-color="#4802de"/><stop offset="0.23" stop-color="#4f08e0"/><stop offset="0.27" stop-color="#5a12e3"/><stop offset="0.3" stop-color="#6b21e8"/><stop offset="0.33" stop-color="#8135ef"/><stop offset="0.36" stop-color="#9c4df7"/><stop offset="0.38" stop-color="#b664ff"/><stop offset="0.4" stop-color="#b056f3"/><stop offset="0.44" stop-color="#a53bdc"/><stop offset="0.49" stop-color="#9b25ca"/><stop offset="0.55" stop-color="#9414bb"/><stop offset="0.62" stop-color="#8f09b1"/><stop offset="0.72" stop-color="#8c02ac"/><stop offset="1" stop-color="#8b00aa"/></linearGradient><linearGradient id="linear-gradient-69" x1="198.48" y1="75.66" x2="173.92" y2="177.25" gradientTransform="matrix(-0.87, 0.5, 1.5, 0.29, 119.18, 31.75)" gradientUnits="userSpaceOnUse"><stop offset="0" stop-color="#8980ff"/><stop offset="0.57" stop-color="#714eff"/><stop offset="1" stop-color="#89b2ff"/></linearGradient><linearGradient id="linear-gradient-70" x1="133.07" y1="171.66" x2="187.91" y2="171.66" gradientUnits="userSpaceOnUse"><stop offset="0" stop-color="#7c7aff"/><stop offset="1" stop-color="#8980ff"/></linearGradient><linearGradient id="linear-gradient-71" x1="-13.6" y1="219.37" x2="20.73" y2="219.37" gradientTransform="matrix(0.87, 0.5, -1, 0.58, 347.95, 26.46)" xlink:href="#linear-gradient-6"/><linearGradient id="linear-gradient-72" x1="-512.06" y1="489.81" x2="-498.51" y2="489.81" gradientTransform="matrix(0.75, 0.43, 1.3, -0.58, -81.74, 632.89)" xlink:href="#linear-gradient-35"/><linearGradient id="linear-gradient-73" x1="-319.01" y1="217.69" x2="-310.81" y2="217.69" gradientTransform="matrix(-0.87, 0.5, 1.5, 0.29, -498.51, 281.84)" xlink:href="#linear-gradient-35"/><linearGradient id="linear-gradient-74" x1="-412.43" y1="201.43" x2="-404.23" y2="201.43" gradientTransform="matrix(-0.87, 0.5, 1.5, 0.29, -498.51, 281.84)" xlink:href="#linear-gradient-35"/><linearGradient id="linear-gradient-75" x1="-327.11" y1="212.27" x2="-313.93" y2="212.27" gradientTransform="matrix(-0.87, 0.5, 1.5, 0.29, -498.51, 281.84)" xlink:href="#linear-gradient-35"/><linearGradient id="linear-gradient-76" x1="-327.99" y1="206.85" x2="-317.06" y2="206.85" gradientTransform="matrix(-0.87, 0.5, 1.5, 0.29, -498.51, 281.84)" xlink:href="#linear-gradient-35"/><linearGradient id="linear-gradient-77" x1="-330.53" y1="196.01" x2="-323.32" y2="196.01" gradientTransform="matrix(-0.87, 0.5, 1.5, 0.29, -498.51, 281.84)" xlink:href="#linear-gradient-35"/><linearGradient id="linear-gradient-78" x1="-330.13" y1="201.43" x2="-320.19" y2="201.43" gradientTransform="matrix(-0.87, 0.5, 1.5, 0.29, -498.51, 281.84)" xlink:href="#linear-gradient-35"/><linearGradient id="linear-gradient-79" x1="-310.16" y1="491.04" x2="-303.5" y2="491.04" gradientTransform="matrix(0.75, 0.43, 1.3, -0.58, -323.69, 591.12)" xlink:href="#linear-gradient-35"/><linearGradient id="linear-gradient-80" x1="-311.06" y1="495.73" x2="-304.4" y2="495.73" gradientTransform="matrix(0.75, 0.43, 1.3, -0.58, -323.69, 591.12)" xlink:href="#linear-gradient-35"/><linearGradient id="linear-gradient-81" x1="-311.97" y1="500.43" x2="-305.3" y2="500.43" gradientTransform="matrix(0.75, 0.43, 1.3, -0.58, -323.69, 591.12)" xlink:href="#linear-gradient-35"/><linearGradient id="linear-gradient-82" x1="-312.87" y1="505.12" x2="-306.21" y2="505.12" gradientTransform="matrix(0.75, 0.43, 1.3, -0.58, -323.69, 591.12)" xlink:href="#linear-gradient-35"/><linearGradient id="linear-gradient-83" x1="-361.82" y1="196.01" x2="-354.61" y2="196.01" gradientTransform="matrix(-0.87, 0.5, 1.5, 0.29, -498.51, 281.84)" xlink:href="#linear-gradient-35"/><linearGradient id="linear-gradient-84" x1="-314.68" y1="514.51" x2="-308.01" y2="514.51" gradientTransform="matrix(0.75, 0.43, 1.3, -0.58, -323.69, 591.12)" xlink:href="#linear-gradient-35"/><linearGradient id="linear-gradient-85" x1="-315.58" y1="519.2" x2="-308.92" y2="519.2" gradientTransform="matrix(0.75, 0.43, 1.3, -0.58, -323.69, 591.12)" xlink:href="#linear-gradient-35"/><linearGradient id="linear-gradient-86" x1="-316.48" y1="523.9" x2="-309.82" y2="523.9" gradientTransform="matrix(0.75, 0.43, 1.3, -0.58, -323.69, 591.12)" xlink:href="#linear-gradient-35"/><linearGradient id="linear-gradient-87" x1="-317.39" y1="528.59" x2="-310.72" y2="528.59" gradientTransform="matrix(0.75, 0.43, 1.3, -0.58, -323.69, 591.12)" xlink:href="#linear-gradient-35"/><linearGradient id="linear-gradient-88" x1="-318.29" y1="533.28" x2="-311.63" y2="533.28" gradientTransform="matrix(0.75, 0.43, 1.3, -0.58, -323.69, 591.12)" xlink:href="#linear-gradient-35"/><linearGradient id="linear-gradient-89" x1="-319.19" y1="537.98" x2="-312.53" y2="537.98" gradientTransform="matrix(0.75, 0.43, 1.3, -0.58, -323.69, 591.12)" xlink:href="#linear-gradient-35"/><linearGradient id="linear-gradient-90" x1="-320.1" y1="542.67" x2="-313.43" y2="542.67" gradientTransform="matrix(0.75, 0.43, 1.3, -0.58, -323.69, 591.12)" xlink:href="#linear-gradient-35"/><linearGradient id="linear-gradient-91" x1="-321.53" y1="548.74" x2="-314.34" y2="548.74" gradientTransform="matrix(0.75, 0.43, 1.3, -0.58, -323.69, 591.12)" xlink:href="#linear-gradient-35"/><linearGradient id="linear-gradient-92" x1="-291.49" y1="540.98" x2="-283.58" y2="540.98" gradientTransform="matrix(0.75, 0.43, 1.3, -0.58, -323.69, 591.12)" xlink:href="#linear-gradient-35"/><linearGradient id="linear-gradient-93" x1="-307.08" y1="547.8" x2="-299.52" y2="547.8" gradientTransform="matrix(0.75, 0.43, 1.3, -0.58, -323.69, 591.12)" xlink:href="#linear-gradient-35"/><linearGradient id="linear-gradient-94" x1="-303.32" y1="493.05" x2="-296.66" y2="493.05" gradientTransform="matrix(0.75, 0.43, 1.3, -0.58, -323.69, 591.12)" xlink:href="#linear-gradient-35"/><linearGradient id="linear-gradient-95" x1="-304.22" y1="497.75" x2="-297.56" y2="497.75" gradientTransform="matrix(0.75, 0.43, 1.3, -0.58, -323.69, 591.12)" xlink:href="#linear-gradient-35"/><linearGradient id="linear-gradient-96" x1="-305.13" y1="502.44" x2="-298.47" y2="502.44" gradientTransform="matrix(0.75, 0.43, 1.3, -0.58, -323.69, 591.12)" xlink:href="#linear-gradient-35"/><linearGradient id="linear-gradient-97" x1="-306.03" y1="507.13" x2="-299.37" y2="507.13" gradientTransform="matrix(0.75, 0.43, 1.3, -0.58, -323.69, 591.12)" xlink:href="#linear-gradient-35"/><linearGradient id="linear-gradient-98" x1="-361.37" y1="201.43" x2="-354.16" y2="201.43" gradientTransform="matrix(-0.87, 0.5, 1.5, 0.29, -498.51, 281.84)" xlink:href="#linear-gradient-35"/><linearGradient id="linear-gradient-99" x1="-307.84" y1="516.52" x2="-301.18" y2="516.52" gradientTransform="matrix(0.75, 0.43, 1.3, -0.58, -323.69, 591.12)" xlink:href="#linear-gradient-35"/><linearGradient id="linear-gradient-100" x1="-308.74" y1="521.21" x2="-302.08" y2="521.21" gradientTransform="matrix(0.75, 0.43, 1.3, -0.58, -323.69, 591.12)" xlink:href="#linear-gradient-35"/><linearGradient id="linear-gradient-101" x1="-309.64" y1="525.91" x2="-302.98" y2="525.91" gradientTransform="matrix(0.75, 0.43, 1.3, -0.58, -323.69, 591.12)" xlink:href="#linear-gradient-35"/><linearGradient id="linear-gradient-102" x1="-310.55" y1="530.6" x2="-303.89" y2="530.6" gradientTransform="matrix(0.75, 0.43, 1.3, -0.58, -323.69, 591.12)" xlink:href="#linear-gradient-35"/><linearGradient id="linear-gradient-103" x1="-311.45" y1="535.3" x2="-304.79" y2="535.3" gradientTransform="matrix(0.75, 0.43, 1.3, -0.58, -323.69, 591.12)" xlink:href="#linear-gradient-35"/><linearGradient id="linear-gradient-104" x1="-312.35" y1="539.99" x2="-305.69" y2="539.99" gradientTransform="matrix(0.75, 0.43, 1.3, -0.58, -323.69, 591.12)" xlink:href="#linear-gradient-35"/><linearGradient id="linear-gradient-105" x1="-313.26" y1="544.68" x2="-306.6" y2="544.68" gradientTransform="matrix(0.75, 0.43, 1.3, -0.58, -323.69, 591.12)" xlink:href="#linear-gradient-35"/><linearGradient id="linear-gradient-106" x1="-296.25" y1="493.84" x2="-289.58" y2="493.84" gradientTransform="matrix(0.75, 0.43, 1.3, -0.58, -323.69, 591.12)" xlink:href="#linear-gradient-35"/><linearGradient id="linear-gradient-107" x1="-297.15" y1="498.54" x2="-290.49" y2="498.54" gradientTransform="matrix(0.75, 0.43, 1.3, -0.58, -323.69, 591.12)" xlink:href="#linear-gradient-35"/><linearGradient id="linear-gradient-108" x1="-298.05" y1="503.23" x2="-291.39" y2="503.23" gradientTransform="matrix(0.75, 0.43, 1.3, -0.58, -323.69, 591.12)" xlink:href="#linear-gradient-35"/><linearGradient id="linear-gradient-109" x1="-353.04" y1="206.85" x2="-345.83" y2="206.85" gradientTransform="matrix(-0.87, 0.5, 1.5, 0.29, -498.51, 281.84)" xlink:href="#linear-gradient-35"/><linearGradient id="linear-gradient-110" x1="-299.86" y1="512.62" x2="-293.2" y2="512.62" gradientTransform="matrix(0.75, 0.43, 1.3, -0.58, -323.69, 591.12)" xlink:href="#linear-gradient-35"/><linearGradient id="linear-gradient-111" x1="-300.76" y1="517.31" x2="-294.1" y2="517.31" gradientTransform="matrix(0.75, 0.43, 1.3, -0.58, -323.69, 591.12)" xlink:href="#linear-gradient-35"/><linearGradient id="linear-gradient-112" x1="-301.67" y1="522.01" x2="-295" y2="522.01" gradientTransform="matrix(0.75, 0.43, 1.3, -0.58, -323.69, 591.12)" xlink:href="#linear-gradient-35"/><linearGradient id="linear-gradient-113" x1="-302.57" y1="526.7" x2="-295.91" y2="526.7" gradientTransform="matrix(0.75, 0.43, 1.3, -0.58, -323.69, 591.12)" xlink:href="#linear-gradient-35"/><linearGradient id="linear-gradient-114" x1="-303.47" y1="531.39" x2="-296.81" y2="531.39" gradientTransform="matrix(0.75, 0.43, 1.3, -0.58, -323.69, 591.12)" xlink:href="#linear-gradient-35"/><linearGradient id="linear-gradient-115" x1="-304.38" y1="536.09" x2="-297.71" y2="536.09" gradientTransform="matrix(0.75, 0.43, 1.3, -0.58, -323.69, 591.12)" xlink:href="#linear-gradient-35"/><linearGradient id="linear-gradient-116" x1="-305.28" y1="540.78" x2="-298.62" y2="540.78" gradientTransform="matrix(0.75, 0.43, 1.3, -0.58, -323.69, 591.12)" xlink:href="#linear-gradient-35"/><linearGradient id="linear-gradient-117" x1="-289.34" y1="495.51" x2="-282.68" y2="495.51" gradientTransform="matrix(0.75, 0.43, 1.3, -0.58, -323.69, 591.12)" xlink:href="#linear-gradient-35"/><linearGradient id="linear-gradient-118" x1="-290.24" y1="500.21" x2="-283.58" y2="500.21" gradientTransform="matrix(0.75, 0.43, 1.3, -0.58, -323.69, 591.12)" xlink:href="#linear-gradient-35"/><linearGradient id="linear-gradient-119" x1="-345.88" y1="212.27" x2="-338.67" y2="212.27" gradientTransform="matrix(-0.87, 0.5, 1.5, 0.29, -498.51, 281.84)" xlink:href="#linear-gradient-35"/><linearGradient id="linear-gradient-120" x1="-292.05" y1="509.59" x2="-285.39" y2="509.59" gradientTransform="matrix(0.75, 0.43, 1.3, -0.58, -323.69, 591.12)" xlink:href="#linear-gradient-35"/><linearGradient id="linear-gradient-121" x1="-281.4" y1="491.77" x2="-274.73" y2="491.77" gradientTransform="matrix(0.75, 0.43, 1.3, -0.58, -323.69, 591.12)" xlink:href="#linear-gradient-35"/><linearGradient id="linear-gradient-122" x1="-331.51" y1="217.69" x2="-324.3" y2="217.69" gradientTransform="matrix(-0.87, 0.5, 1.5, 0.29, -498.51, 281.84)" xlink:href="#linear-gradient-35"/><linearGradient id="linear-gradient-123" x1="-283.2" y1="501.16" x2="-276.54" y2="501.16" gradientTransform="matrix(0.75, 0.43, 1.3, -0.58, -323.69, 591.12)" xlink:href="#linear-gradient-35"/><linearGradient id="linear-gradient-124" x1="-287.53" y1="514.77" x2="-277.44" y2="514.77" gradientTransform="matrix(0.75, 0.43, 1.3, -0.58, -323.69, 591.12)" xlink:href="#linear-gradient-35"/><linearGradient id="linear-gradient-125" x1="-292.95" y1="514.29" x2="-286.29" y2="514.29" gradientTransform="matrix(0.75, 0.43, 1.3, -0.58, -323.69, 591.12)" xlink:href="#linear-gradient-35"/><linearGradient id="linear-gradient-126" x1="-293.86" y1="518.98" x2="-287.2" y2="518.98" gradientTransform="matrix(0.75, 0.43, 1.3, -0.58, -323.69, 591.12)" xlink:href="#linear-gradient-35"/><linearGradient id="linear-gradient-127" x1="-294.76" y1="523.67" x2="-288.1" y2="523.67" gradientTransform="matrix(0.75, 0.43, 1.3, -0.58, -323.69, 591.12)" xlink:href="#linear-gradient-35"/><linearGradient id="linear-gradient-128" x1="-295.66" y1="528.37" x2="-289" y2="528.37" gradientTransform="matrix(0.75, 0.43, 1.3, -0.58, -323.69, 591.12)" xlink:href="#linear-gradient-35"/><linearGradient id="linear-gradient-129" x1="-296.57" y1="533.06" x2="-289.91" y2="533.06" gradientTransform="matrix(0.75, 0.43, 1.3, -0.58, -323.69, 591.12)" xlink:href="#linear-gradient-35"/><linearGradient id="linear-gradient-130" x1="-288.44" y1="528.37" x2="-281.78" y2="528.37" gradientTransform="matrix(0.75, 0.43, 1.3, -0.58, -323.69, 591.12)" xlink:href="#linear-gradient-35"/><linearGradient id="linear-gradient-131" x1="-289.34" y1="533.06" x2="-282.68" y2="533.06" gradientTransform="matrix(0.75, 0.43, 1.3, -0.58, -323.69, 591.12)" xlink:href="#linear-gradient-35"/><linearGradient id="linear-gradient-132" x1="-297.47" y1="537.76" x2="-290.81" y2="537.76" gradientTransform="matrix(0.75, 0.43, 1.3, -0.58, -323.69, 591.12)" xlink:href="#linear-gradient-35"/><linearGradient id="linear-gradient-134" x1="-299.28" y1="544.81" x2="-291.71" y2="544.81" gradientTransform="matrix(0.75, 0.43, 1.3, -0.58, -323.69, 591.12)" xlink:href="#linear-gradient-35"/><linearGradient id="linear-gradient-135" x1="-332.49" y1="191.61" x2="-326.45" y2="191.61" gradientTransform="matrix(-0.87, 0.5, 1.5, 0.29, -498.51, 281.84)" xlink:href="#linear-gradient-35"/><linearGradient id="linear-gradient-136" x1="-495.25" y1="477.55" x2="-488.93" y2="477.55" gradientTransform="matrix(0.75, 0.43, 1.3, -0.58, -81.74, 632.89)" xlink:href="#linear-gradient-35"/><linearGradient id="linear-gradient-137" x1="-488.02" y1="477.55" x2="-481.7" y2="477.55" gradientTransform="matrix(0.75, 0.43, 1.3, -0.58, -81.74, 632.89)" xlink:href="#linear-gradient-35"/><linearGradient id="linear-gradient-138" x1="-495.9" y1="480.93" x2="-489.58" y2="480.93" gradientTransform="matrix(0.75, 0.43, 1.3, -0.58, -81.74, 632.89)" xlink:href="#linear-gradient-35"/><linearGradient id="linear-gradient-139" x1="-488.67" y1="480.93" x2="-482.35" y2="480.93" gradientTransform="matrix(0.75, 0.43, 1.3, -0.58, -81.74, 632.89)" xlink:href="#linear-gradient-35"/><linearGradient id="linear-gradient-140" x1="-487.45" y1="474.6" x2="-481.13" y2="474.6" gradientTransform="matrix(0.75, 0.43, 1.3, -0.58, -81.74, 632.89)" xlink:href="#linear-gradient-35"/><linearGradient id="linear-gradient-142" x1="-496.47" y1="483.89" x2="-490.15" y2="483.89" gradientTransform="matrix(0.75, 0.43, 1.3, -0.58, -81.74, 632.89)" xlink:href="#linear-gradient-35"/><linearGradient id="linear-gradient-143" x1="-489.24" y1="483.89" x2="-482.92" y2="483.89" gradientTransform="matrix(0.75, 0.43, 1.3, -0.58, -81.74, 632.89)" xlink:href="#linear-gradient-35"/><linearGradient id="linear-gradient-144" x1="-497.04" y1="486.85" x2="-490.72" y2="486.85" gradientTransform="matrix(0.75, 0.43, 1.3, -0.58, -81.74, 632.89)" xlink:href="#linear-gradient-35"/><linearGradient id="linear-gradient-145" x1="-489.81" y1="486.85" x2="-483.49" y2="486.85" gradientTransform="matrix(0.75, 0.43, 1.3, -0.58, -81.74, 632.89)" xlink:href="#linear-gradient-35"/><linearGradient id="linear-gradient-146" x1="-497.61" y1="489.81" x2="-484.06" y2="489.81" gradientTransform="matrix(0.75, 0.43, 1.3, -0.58, -81.74, 632.89)" xlink:href="#linear-gradient-35"/><linearGradient id="linear-gradient-147" x1="-510.35" y1="480.93" x2="-504.03" y2="480.93" gradientTransform="matrix(0.75, 0.43, 1.3, -0.58, -81.74, 632.89)" xlink:href="#linear-gradient-35"/><linearGradient id="linear-gradient-148" x1="-503.13" y1="480.93" x2="-496.8" y2="480.93" gradientTransform="matrix(0.75, 0.43, 1.3, -0.58, -81.74, 632.89)" xlink:href="#linear-gradient-35"/><linearGradient id="linear-gradient-149" x1="-510.92" y1="483.89" x2="-504.6" y2="483.89" gradientTransform="matrix(0.75, 0.43, 1.3, -0.58, -81.74, 632.89)" xlink:href="#linear-gradient-35"/><linearGradient id="linear-gradient-150" x1="-503.7" y1="483.89" x2="-497.37" y2="483.89" gradientTransform="matrix(0.75, 0.43, 1.3, -0.58, -81.74, 632.89)" xlink:href="#linear-gradient-35"/><linearGradient id="linear-gradient-151" x1="-511.49" y1="486.85" x2="-505.17" y2="486.85" gradientTransform="matrix(0.75, 0.43, 1.3, -0.58, -81.74, 632.89)" xlink:href="#linear-gradient-35"/><linearGradient id="linear-gradient-152" x1="-517.58" y1="480.93" x2="-511.25" y2="480.93" gradientTransform="matrix(0.75, 0.43, 1.3, -0.58, -81.74, 632.89)" xlink:href="#linear-gradient-35"/><linearGradient id="linear-gradient-153" x1="-510.13" y1="418.72" x2="-506.51" y2="418.72" gradientTransform="matrix(0.75, 0.43, 1.3, -0.58, -81.74, 632.89)" xlink:href="#linear-gradient-35"/><linearGradient id="linear-gradient-154" x1="-510.7" y1="421.66" x2="-507.07" y2="421.66" gradientTransform="matrix(0.75, 0.43, 1.3, -0.58, -81.74, 632.89)" xlink:href="#linear-gradient-35"/><linearGradient id="linear-gradient-155" x1="-511.26" y1="424.6" x2="-507.64" y2="424.6" gradientTransform="matrix(0.75, 0.43, 1.3, -0.58, -81.74, 632.89)" xlink:href="#linear-gradient-35"/><linearGradient id="linear-gradient-156" x1="-511.83" y1="427.54" x2="-508.21" y2="427.54" gradientTransform="matrix(0.75, 0.43, 1.3, -0.58, -81.74, 632.89)" xlink:href="#linear-gradient-35"/><linearGradient id="linear-gradient-157" x1="-512.4" y1="430.48" x2="-508.77" y2="430.48" gradientTransform="matrix(0.75, 0.43, 1.3, -0.58, -81.74, 632.89)" xlink:href="#linear-gradient-35"/><linearGradient id="linear-gradient-158" x1="-512.96" y1="433.43" x2="-509.34" y2="433.43" gradientTransform="matrix(0.75, 0.43, 1.3, -0.58, -81.74, 632.89)" xlink:href="#linear-gradient-35"/><linearGradient id="linear-gradient-159" x1="-513.53" y1="436.37" x2="-509.9" y2="436.37" gradientTransform="matrix(0.75, 0.43, 1.3, -0.58, -81.74, 632.89)" xlink:href="#linear-gradient-35"/><linearGradient id="linear-gradient-160" x1="-514.09" y1="439.31" x2="-510.47" y2="439.31" gradientTransform="matrix(0.75, 0.43, 1.3, -0.58, -81.74, 632.89)" xlink:href="#linear-gradient-35"/><linearGradient id="linear-gradient-161" x1="-514.66" y1="442.25" x2="-511.04" y2="442.25" gradientTransform="matrix(0.75, 0.43, 1.3, -0.58, -81.74, 632.89)" xlink:href="#linear-gradient-35"/><linearGradient id="linear-gradient-162" x1="-515.23" y1="445.19" x2="-511.6" y2="445.19" gradientTransform="matrix(0.75, 0.43, 1.3, -0.58, -81.74, 632.89)" xlink:href="#linear-gradient-35"/><linearGradient id="linear-gradient-163" x1="-515.79" y1="448.14" x2="-512.17" y2="448.14" gradientTransform="matrix(0.75, 0.43, 1.3, -0.58, -81.74, 632.89)" xlink:href="#linear-gradient-35"/><linearGradient id="linear-gradient-164" x1="-516.36" y1="451.08" x2="-512.74" y2="451.08" gradientTransform="matrix(0.75, 0.43, 1.3, -0.58, -81.74, 632.89)" xlink:href="#linear-gradient-35"/><linearGradient id="linear-gradient-165" x1="-516.93" y1="454.02" x2="-513.3" y2="454.02" gradientTransform="matrix(0.75, 0.43, 1.3, -0.58, -81.74, 632.89)" xlink:href="#linear-gradient-35"/><linearGradient id="linear-gradient-166" x1="-517.49" y1="456.96" x2="-513.87" y2="456.96" gradientTransform="matrix(0.75, 0.43, 1.3, -0.58, -81.74, 632.89)" xlink:href="#linear-gradient-35"/><linearGradient id="linear-gradient-167" x1="-518.06" y1="459.9" x2="-514.43" y2="459.9" gradientTransform="matrix(0.75, 0.43, 1.3, -0.58, -81.74, 632.89)" xlink:href="#linear-gradient-35"/><linearGradient id="linear-gradient-168" x1="-518.62" y1="462.85" x2="-515" y2="462.85" gradientTransform="matrix(0.75, 0.43, 1.3, -0.58, -81.74, 632.89)" xlink:href="#linear-gradient-35"/><linearGradient id="linear-gradient-169" x1="-519.19" y1="465.79" x2="-515.57" y2="465.79" gradientTransform="matrix(0.75, 0.43, 1.3, -0.58, -81.74, 632.89)" xlink:href="#linear-gradient-35"/><linearGradient id="linear-gradient-170" x1="-519.76" y1="468.73" x2="-516.13" y2="468.73" gradientTransform="matrix(0.75, 0.43, 1.3, -0.58, -81.74, 632.89)" xlink:href="#linear-gradient-35"/><linearGradient id="linear-gradient-171" x1="-520.32" y1="471.67" x2="-516.7" y2="471.67" gradientTransform="matrix(0.75, 0.43, 1.3, -0.58, -81.74, 632.89)" xlink:href="#linear-gradient-35"/><linearGradient id="linear-gradient-172" x1="-520.89" y1="474.61" x2="-517.26" y2="474.61" gradientTransform="matrix(0.75, 0.43, 1.3, -0.58, -81.74, 632.89)" xlink:href="#linear-gradient-35"/><linearGradient id="linear-gradient-173" x1="-521.46" y1="477.55" x2="-517.83" y2="477.55" gradientTransform="matrix(0.75, 0.43, 1.3, -0.58, -81.74, 632.89)" xlink:href="#linear-gradient-35"/><linearGradient id="linear-gradient-174" x1="-522.11" y1="480.93" x2="-518.48" y2="480.93" gradientTransform="matrix(0.75, 0.43, 1.3, -0.58, -81.74, 632.89)" xlink:href="#linear-gradient-35"/><linearGradient id="linear-gradient-175" x1="-522.67" y1="483.87" x2="-519.05" y2="483.87" gradientTransform="matrix(0.75, 0.43, 1.3, -0.58, -81.74, 632.89)" xlink:href="#linear-gradient-35"/><linearGradient id="linear-gradient-176" x1="-523.24" y1="486.82" x2="-519.61" y2="486.82" gradientTransform="matrix(0.75, 0.43, 1.3, -0.58, -81.74, 632.89)" xlink:href="#linear-gradient-35"/><linearGradient id="linear-gradient-177" x1="-523.8" y1="489.76" x2="-520.18" y2="489.76" gradientTransform="matrix(0.75, 0.43, 1.3, -0.58, -81.74, 632.89)" xlink:href="#linear-gradient-35"/><linearGradient id="linear-gradient-178" x1="-518.15" y1="483.89" x2="-511.82" y2="483.89" gradientTransform="matrix(0.75, 0.43, 1.3, -0.58, -81.74, 632.89)" xlink:href="#linear-gradient-35"/><linearGradient id="linear-gradient-179" x1="-518.72" y1="486.85" x2="-512.39" y2="486.85" gradientTransform="matrix(0.75, 0.43, 1.3, -0.58, -81.74, 632.89)" xlink:href="#linear-gradient-35"/><linearGradient id="linear-gradient-180" x1="-519.29" y1="489.81" x2="-512.96" y2="489.81" gradientTransform="matrix(0.75, 0.43, 1.3, -0.58, -81.74, 632.89)" xlink:href="#linear-gradient-35"/><linearGradient id="linear-gradient-181" x1="-504.27" y1="486.85" x2="-497.94" y2="486.85" gradientTransform="matrix(0.75, 0.43, 1.3, -0.58, -81.74, 632.89)" xlink:href="#linear-gradient-35"/><linearGradient id="linear-gradient-182" x1="250.2" y1="60.77" x2="254.8" y2="60.77" gradientTransform="matrix(-0.87, 0.5, 1, 0.58, 315.72, -42.4)" xlink:href="#linear-gradient-35"/><linearGradient id="linear-gradient-183" x1="271.99" y1="120.37" x2="275.07" y2="120.37" gradientTransform="matrix(-0.87, 0.5, 1, 0.58, 274.54, -87.2)" xlink:href="#linear-gradient-6"/><linearGradient id="linear-gradient-184" x1="273.27" y1="119.48" x2="273.78" y2="119.48" gradientTransform="matrix(-0.87, 0.5, 1, 0.58, 274.54, -87.2)" xlink:href="#linear-gradient-6"/><linearGradient id="linear-gradient-185" x1="143.84" y1="135.4" x2="144.79" y2="135.4" gradientTransform="matrix(0.87, -0.5, 0, 1.15, 38.56, 103.21)" xlink:href="#linear-gradient-6"/><linearGradient id="linear-gradient-186" x1="149.98" y1="135.4" x2="150.93" y2="135.4" gradientTransform="matrix(0.87, -0.5, 0, 1.15, 38.56, 103.21)" xlink:href="#linear-gradient-6"/><linearGradient id="linear-gradient-187" x1="162.27" y1="135.4" x2="163.22" y2="135.4" gradientTransform="matrix(0.87, -0.5, 0, 1.15, 38.56, 103.21)" xlink:href="#linear-gradient-6"/><linearGradient id="linear-gradient-188" x1="168.41" y1="135.4" x2="169.36" y2="135.4" gradientTransform="matrix(0.87, -0.5, 0, 1.15, 38.56, 103.21)" xlink:href="#linear-gradient-6"/><linearGradient id="linear-gradient-189" x1="661.75" y1="291.1" x2="672.72" y2="310.07" gradientTransform="matrix(-0.87, -0.5, -1, 0.58, 1239.37, 403.3)" gradientUnits="userSpaceOnUse"><stop offset="0.81" stop-color="#4600dd"/><stop offset="0.85" stop-color="#4608e0"/><stop offset="0.9" stop-color="#461de9"/><stop offset="0.97" stop-color="#463ff8"/><stop offset="1" stop-color="#4650ff"/></linearGradient><linearGradient id="linear-gradient-190" x1="659" y1="300.21" x2="652.28" y2="306.17" gradientTransform="matrix(-0.87, -0.5, -1, 0.58, 1239.37, 403.3)" gradientUnits="userSpaceOnUse"><stop offset="0.69" stop-color="#714eff"/><stop offset="1" stop-color="#8980ff"/></linearGradient><linearGradient id="linear-gradient-191" x1="661.66" y1="295.09" x2="681.51" y2="304.37" gradientTransform="matrix(-0.87, -0.5, -1, 0.58, 1239.37, 403.3)" gradientUnits="userSpaceOnUse"><stop offset="0" stop-color="#808cff"/><stop offset="0.46" stop-color="#7f8aff"/><stop offset="0.67" stop-color="#7e83ff"/><stop offset="0.83" stop-color="#7a76ff"/><stop offset="0.96" stop-color="#7664ff"/><stop offset="1" stop-color="#745cff"/></linearGradient><linearGradient id="linear-gradient-192" x1="660.46" y1="293.61" x2="660.26" y2="303.24" gradientTransform="matrix(-0.87, -0.5, -1, 0.58, 1239.37, 403.3)" gradientUnits="userSpaceOnUse"><stop offset="0" stop-color="#89b2ff"/><stop offset="0.07" stop-color="#86a5ff"/><stop offset="0.35" stop-color="#7b76ff"/><stop offset="0.57" stop-color="#7459ff"/><stop offset="0.69" stop-color="#714eff"/><stop offset="1" stop-color="#795eff"/></linearGradient><filter id="luminosity-noclip-3" x="358.67" y="239.61" width="19.6" height="11.31" filterUnits="userSpaceOnUse" color-interpolation-filters="sRGB"><feFlood flood-color="#fff" result="bg"/><feBlend in="SourceGraphic" in2="bg"/></filter><mask id="mask-3" x="358.67" y="239.61" width="19.6" height="11.31" maskUnits="userSpaceOnUse"><g class="cls-1"><path class="cls-2" d="M377.61,245a1,1,0,0,1,0,1.85l-6.37,3.67a3.54,3.54,0,0,1-3.2,0l-9.37-5.41,9.57-5.52Z"/></g></mask><linearGradient id="linear-gradient-193" x1="653.97" y1="298.09" x2="666.6" y2="298.95" gradientTransform="matrix(-0.87, -0.5, -1, 0.58, 1239.37, 403.3)" gradientUnits="userSpaceOnUse"><stop offset="0" stop-color="#89b2ff"/><stop offset="0.2" stop-color="#8af"/><stop offset="0.52" stop-color="#8494ff"/><stop offset="0.91" stop-color="#7e70ff"/><stop offset="1" stop-color="#7d67ff"/></linearGradient><linearGradient id="linear-gradient-194" x1="346.79" y1="237.47" x2="352.23" y2="237.47" gradientTransform="matrix(1, 0, 0, 1, 0, 0)" xlink:href="#linear-gradient-35"/><linearGradient id="linear-gradient-195" x1="349.12" y1="236.13" x2="354.56" y2="236.13" gradientTransform="matrix(1, 0, 0, 1, 0, 0)" xlink:href="#linear-gradient-35"/><linearGradient id="linear-gradient-196" x1="351.45" y1="234.78" x2="356.89" y2="234.78" gradientTransform="matrix(1, 0, 0, 1, 0, 0)" xlink:href="#linear-gradient-35"/><linearGradient id="linear-gradient-197" x1="387.21" y1="257.93" x2="398.53" y2="248.04" gradientTransform="matrix(0.87, 0.5, -1, 0.58, 311.28, -132.3)" gradientUnits="userSpaceOnUse"><stop offset="0" stop-color="#4600dd"/><stop offset="0.26" stop-color="#5300d3"/><stop offset="0.74" stop-color="#7600ba"/><stop offset="1" stop-color="#8b00aa"/></linearGradient><linearGradient id="linear-gradient-198" x1="372.24" y1="252.33" x2="379.65" y2="265.12" gradientTransform="matrix(0.87, 0.5, -1, 0.58, 311.28, -132.3)" gradientUnits="userSpaceOnUse"><stop offset="0" stop-color="#714eff"/><stop offset="1" stop-color="#8980ff"/></linearGradient><linearGradient id="linear-gradient-199" x1="380.67" y1="246.37" x2="391.64" y2="265.33" gradientTransform="matrix(0.87, 0.5, -1, 0.58, 311.28, -132.3)" gradientUnits="userSpaceOnUse"><stop offset="0" stop-color="#808cff"/><stop offset="0.51" stop-color="#7971ff"/><stop offset="1" stop-color="#745cff"/></linearGradient><linearGradient id="linear-gradient-200" x1="375.89" y1="250.91" x2="375.92" y2="260.59" gradientTransform="matrix(0.87, 0.5, -1, 0.58, 311.28, -132.3)" gradientUnits="userSpaceOnUse"><stop offset="0" stop-color="#89b2ff"/><stop offset="0.07" stop-color="#86a5ff"/><stop offset="0.35" stop-color="#7b76ff"/><stop offset="0.57" stop-color="#7459ff"/><stop offset="0.69" stop-color="#714eff"/><stop offset="1" stop-color="#785dff"/></linearGradient><filter id="luminosity-noclip-4" x="371.83" y="197.88" width="19.6" height="11.31" filterUnits="userSpaceOnUse" color-interpolation-filters="sRGB"><feFlood flood-color="#fff" result="bg"/><feBlend in="SourceGraphic" in2="bg"/></filter><mask id="mask-4" x="371.83" y="197.88" width="19.6" height="11.31" maskUnits="userSpaceOnUse"><g class="cls-3"><path class="cls-4" d="M382.05,198.26a3.52,3.52,0,0,0-3.19,0l-6.37,3.67a1,1,0,0,0,0,1.85l9.37,5.41,9.57-5.52Z"/></g></mask><linearGradient id="linear-gradient-201" x1="382.27" y1="255.43" x2="369.61" y2="255.93" gradientTransform="matrix(0.87, 0.5, -1, 0.58, 311.28, -132.3)" gradientUnits="userSpaceOnUse"><stop offset="0" stop-color="#89b2ff"/><stop offset="0.07" stop-color="#88a9ff"/><stop offset="0.3" stop-color="#838cff"/><stop offset="0.54" stop-color="#8077ff"/><stop offset="0.77" stop-color="#7e6bff"/><stop offset="1" stop-color="#7d67ff"/></linearGradient><linearGradient id="linear-gradient-202" x1="393.2" y1="214.94" x2="398.65" y2="214.94" gradientTransform="matrix(1, 0, 0, 1, 0, 0)" xlink:href="#linear-gradient-35"/><linearGradient id="linear-gradient-203" x1="395.54" y1="213.6" x2="400.98" y2="213.6" gradientTransform="matrix(1, 0, 0, 1, 0, 0)" xlink:href="#linear-gradient-35"/><linearGradient id="linear-gradient-204" x1="397.87" y1="212.25" x2="403.31" y2="212.25" gradientTransform="matrix(1, 0, 0, 1, 0, 0)" xlink:href="#linear-gradient-35"/><linearGradient id="linear-gradient-205" x1="389.31" y1="202.36" x2="383.56" y2="212.34" gradientTransform="matrix(1, 0, 0, 1, 0, 0)" xlink:href="#linear-gradient-190"/></defs><g class="cls-5"><g id="equipment"><g id="smartphone"><path class="cls-6" d="M79.28,246.81l23-13.17c.77-.45.68-1.23-.22-1.75l-48.13-27.7a3.36,3.36,0,0,0-3-.13L27.25,217.74c-.77.45-.68,1.23.22,1.75l47.44,27.32Z"/><path class="cls-7" d="M80.2,243.94l-2.21-.1L31.72,216.73v2.69a1,1,0,0,0,.54.68L78,246.5a2.44,2.44,0,0,0,2.21.09l22.42-12.94a.66.66,0,0,0,.38-.55v-2.7Z"/><path class="cls-8" d="M80.2,244,102.62,231c.56-.33.49-.9-.16-1.28l-45.73-26.4a2.44,2.44,0,0,0-2.21-.09L32.1,216.18c-.57.33-.49.9.16,1.28L78,243.86A2.44,2.44,0,0,0,80.2,244Z"/><path class="cls-9" d="M77.39,241.16l20.39-11.78c.18-.1.16-.29,0-.41L58.05,206.06a.83.83,0,0,0-.72,0L36.94,217.8c-.18.11-.16.3.05.42l39.68,22.91A.83.83,0,0,0,77.39,241.16Z"/><g class="cls-10"><path class="cls-11" d="M43,212.51l5.79-3.34c.15-.09.13-.24,0-.34h0a.63.63,0,0,0-.58,0l-5.79,3.34c-.15.09-.13.24,0,.34h0A.63.63,0,0,0,43,212.51Z"/><path class="cls-11" d="M50.29,208a.66.66,0,0,0,.61,0,.19.19,0,0,0,0-.36.66.66,0,0,0-.61,0A.19.19,0,0,0,50.29,208Z"/><path class="cls-11" d="M49.44,208.46a.75.75,0,0,0,.62,0,.19.19,0,0,0,0-.36.68.68,0,0,0-.62,0A.19.19,0,0,0,49.44,208.46Z"/><ellipse class="cls-11" cx="52.12" cy="206.91" rx="0.68" ry="0.39"/></g><path class="cls-12" d="M89.23,237.52,93,235.33c.45-.25.39-.7-.12-1h0a1.88,1.88,0,0,0-1.72-.07l-3.79,2.18c-.44.26-.38.7.13,1h0A1.94,1.94,0,0,0,89.23,237.52Z"/><path class="cls-13" d="M77.08,241a.43.43,0,0,0,.21,0l20.39-11.77s0,0,0,0h0l-.08-.06L58,206.23a.66.66,0,0,0-.32-.08.51.51,0,0,0-.22,0L37,218l0,0h0a.3.3,0,0,0,.08.07L76.76,241A.66.66,0,0,0,77.08,241Z"/><path class="cls-14" d="M98.07,235a1.57,1.57,0,0,1-.72,1.24c-.39.23-.71,0-.71-.41a1.57,1.57,0,0,1,.71-1.24C97.75,234.37,98.07,234.55,98.07,235Z"/><path class="cls-14" d="M87.45,241.13a.37.37,0,0,1-.18.3c-.1.06-.18,0-.18-.1a.4.4,0,0,1,.18-.31C87.37,241,87.45,241,87.45,241.13Z"/><path class="cls-14" d="M93.88,236.84l-2.6,1.5a.63.63,0,0,0-.27.38l-.24.79c0,.23.08.36.27.25L94.12,238a.57.57,0,0,0,.27-.56l-.24-.51C94.11,236.8,94,236.77,93.88,236.84Z"/><path class="cls-15" d="M44.25,226.29l-7-4.24a.58.58,0,0,1-.23-.44l-.17,0,.25-.15a.16.16,0,0,1,.15,0l7.07,4.08a.56.56,0,0,1,.22.44h0a.19.19,0,0,1-.08.18Z"/><path class="cls-16" d="M44.11,226.27,37,222.19a.54.54,0,0,1-.22-.43h0c0-.17.1-.24.22-.17l7.07,4.08a.53.53,0,0,1,.23.43h0C44.34,226.27,44.24,226.35,44.11,226.27Z"/></g><g id="tablet"><path class="cls-6" d="M235.49,256.3l49.78-28.59c.78-.45.68-1.23-.22-1.75l-72.26-41.8a3.38,3.38,0,0,0-3-.12l-50.43,29.09c-.78.45-.68,1.24.22,1.76L231.1,256.3Z"/><path class="cls-17" d="M236.68,253.65l-3.33-.14-70-41v2.38a1.43,1.43,0,0,0,.81,1l69.14,39.92a3.71,3.71,0,0,0,3.33.14l48.82-28.19a1,1,0,0,0,.58-.83v-2.38Z"/><path class="cls-18" d="M236.68,253.68l48.82-28.26c.86-.5.75-1.36-.24-1.93l-69.13-39.91a3.71,3.71,0,0,0-3.33-.14L164,211.7c-.85.49-.75,1.35.24,1.92l69.14,39.92A3.71,3.71,0,0,0,236.68,253.68Z"/><path class="cls-19" d="M232,249.7l46.66-26.95c.28-.16.25-.44-.07-.63l-60-34.62a1.2,1.2,0,0,0-1.09-.05l-46.66,27c-.28.16-.25.44.08.63l60,34.63A1.23,1.23,0,0,0,232,249.7Z"/><path class="cls-20" d="M189,201.15l5.79-3.34c.15-.09.13-.24,0-.34h0a.63.63,0,0,0-.58,0l-5.8,3.34c-.14.09-.13.24,0,.34h0A.63.63,0,0,0,189,201.15Z"/><path class="cls-12" d="M257.12,239.3l3.79-2.18c.44-.26.38-.7-.13-1h0a1.94,1.94,0,0,0-1.72-.07l-3.78,2.19c-.45.25-.39.7.12,1h0A1.88,1.88,0,0,0,257.12,239.3Z"/><path class="cls-21" d="M231.52,249.52a.65.65,0,0,0,.33-.07l46.66-26.95.05,0-15.84,9.15s15.8-9.2,15.71-9.25l-60-34.62a.92.92,0,0,0-.48-.12.77.77,0,0,0-.33.07l-46.66,27-.05,0h0l.12.09,60,34.63A1.06,1.06,0,0,0,231.52,249.52Z"/><path class="cls-14" d="M257.16,243a1.57,1.57,0,0,1-.72,1.24c-.39.23-.71.05-.71-.41a1.59,1.59,0,0,1,.71-1.24C256.84,242.35,257.16,242.54,257.16,243Z"/><path class="cls-14" d="M262.45,239.37l-2.61,1.51a.66.66,0,0,0-.26.38l-.24.79c0,.23.08.36.26.25l3.09-1.78A.58.58,0,0,0,263,240l-.24-.51C262.68,239.33,262.57,239.3,262.45,239.37Z"/><path class="cls-12" d="M221.15,248.31l-4-2.29a1.08,1.08,0,0,1-.46-.87h0c0-.34.21-.49.46-.35l4,2.29a1.11,1.11,0,0,1,.46.87h0C221.61,248.3,221.4,248.46,221.15,248.31Z"/><path class="cls-12" d="M179,224l-4-2.29a1.06,1.06,0,0,1-.46-.87h0c0-.34.2-.49.46-.35l4,2.29a1.11,1.11,0,0,1,.45.87h0C179.4,224,179.2,224.11,179,224Z"/><path class="cls-22" d="M191.73,230.78c0,.3-.21.42-.47.27a1,1,0,0,1-.47-.81c0-.3.21-.42.47-.27A1,1,0,0,1,191.73,230.78Z"/><path class="cls-23" d="M193.24,231.66c0,.3-.21.42-.47.27a1,1,0,0,1-.47-.81c0-.3.21-.42.47-.27A1,1,0,0,1,193.24,231.66Z"/><path class="cls-24" d="M194.75,232.53c0,.3-.21.42-.47.28a1,1,0,0,1-.47-.82c0-.29.21-.42.47-.27A1,1,0,0,1,194.75,232.53Z"/><path class="cls-25" d="M196.26,233.41c0,.3-.21.42-.47.27a1,1,0,0,1-.47-.81c0-.3.21-.42.47-.27A1,1,0,0,1,196.26,233.41Z"/><path class="cls-26" d="M197.77,234.29c0,.3-.21.42-.47.27a1,1,0,0,1-.47-.81c0-.3.21-.42.47-.27A1,1,0,0,1,197.77,234.29Z"/><path class="cls-27" d="M199.28,235.17c0,.3-.21.42-.47.27a1,1,0,0,1-.47-.81c0-.3.21-.42.47-.28A1,1,0,0,1,199.28,235.17Z"/><path class="cls-28" d="M200.79,236c0,.3-.21.42-.47.27a1,1,0,0,1-.47-.81c0-.3.21-.42.47-.27A1,1,0,0,1,200.79,236Z"/><g class="cls-10"><path class="cls-29" d="M243.59,250.89c0,.3.21.42.47.27a1,1,0,0,0,.46-.81c0-.3-.21-.42-.46-.27A1,1,0,0,0,243.59,250.89Z"/><path class="cls-29" d="M242.65,251.43c0,.3.21.42.47.27a1,1,0,0,0,.47-.81c0-.3-.21-.42-.47-.27A1,1,0,0,0,242.65,251.43Z"/></g><g class="cls-10"><path class="cls-29" d="M245.46,249.81c0,.3.21.42.47.27a1,1,0,0,0,.47-.81c0-.3-.21-.42-.47-.27A1,1,0,0,0,245.46,249.81Z"/><path class="cls-29" d="M244.52,250.36c0,.3.21.42.47.27a1,1,0,0,0,.47-.81c0-.3-.21-.42-.47-.27A1,1,0,0,0,244.52,250.36Z"/></g><g class="cls-10"><path class="cls-29" d="M247.34,248.73c0,.3.21.42.46.27a1,1,0,0,0,.47-.81c0-.3-.21-.42-.47-.27A1,1,0,0,0,247.34,248.73Z"/><path class="cls-29" d="M246.4,249.27c0,.3.21.42.47.27a1,1,0,0,0,.47-.81c0-.3-.21-.42-.47-.27A1,1,0,0,0,246.4,249.27Z"/></g><g class="cls-10"><path class="cls-29" d="M249.21,247.65c0,.3.21.42.47.27a1,1,0,0,0,.47-.81c0-.3-.21-.42-.47-.27A1,1,0,0,0,249.21,247.65Z"/><path class="cls-29" d="M248.27,248.19c0,.3.21.42.47.27a1,1,0,0,0,.47-.81c0-.3-.21-.42-.47-.27A1,1,0,0,0,248.27,248.19Z"/></g><g class="cls-10"><path class="cls-29" d="M273,233.85c0,.3.21.42.47.27a1,1,0,0,0,.47-.81c0-.3-.21-.42-.47-.27A1,1,0,0,0,273,233.85Z"/><path class="cls-29" d="M272.06,234.4c0,.3.21.42.47.27a1,1,0,0,0,.46-.81c0-.3-.21-.42-.46-.27A1,1,0,0,0,272.06,234.4Z"/></g><g class="cls-10"><path class="cls-29" d="M274.87,232.78c0,.3.21.42.47.27a1,1,0,0,0,.47-.81c0-.3-.21-.42-.47-.27A1,1,0,0,0,274.87,232.78Z"/><path class="cls-29" d="M273.93,233.32c0,.3.21.42.47.27a1,1,0,0,0,.47-.81c0-.3-.21-.42-.47-.27A1,1,0,0,0,273.93,233.32Z"/></g><g class="cls-10"><path class="cls-29" d="M276.74,231.69c0,.3.21.42.47.27a1,1,0,0,0,.47-.81c0-.3-.21-.42-.47-.27A1,1,0,0,0,276.74,231.69Z"/><path class="cls-29" d="M275.81,232.24c0,.29.21.42.46.27a1,1,0,0,0,.47-.82c0-.29-.21-.42-.47-.27A1.07,1.07,0,0,0,275.81,232.24Z"/></g><g class="cls-10"><path class="cls-29" d="M278.62,230.61c0,.3.21.42.47.27a1,1,0,0,0,.46-.81c0-.3-.21-.42-.46-.27A1,1,0,0,0,278.62,230.61Z"/><path class="cls-29" d="M277.68,231.16c0,.3.21.42.47.27a1,1,0,0,0,.47-.81c0-.3-.21-.42-.47-.27A1,1,0,0,0,277.68,231.16Z"/></g></g><g id="router_1"><path class="cls-6" d="M253.94,84.42a16.86,16.86,0,0,0-1.87.69L233.75,74.6s-.93-.53-2.57.41-.71,1.49-.71,1.49l17.9,10.25c-4.4,2.08-12,6-24.39,13.09l-17-9.76s-.93-.54-2.57.41-.7,1.48-.7,1.48l17,9.76c-12.37,7.18-19.07,11.54-22.66,14.09l-17.9-10.26s-.93-.54-2.57.4-.71,1.49-.71,1.49L195.18,118A7.82,7.82,0,0,0,194,119l46.2,26.88h6.58l51-36.13Z"/><polygon class="cls-30" points="207.57 111.97 205.35 113.25 205.87 105.47 207.05 104.79 207.57 111.97"/><path class="cls-31" d="M205.87,105.67l-.52,7.58-3.77,2.39L202.83,104s-1.25-60.69-1.25-61.16.77-1.06.77-1.06l4.49,5,.21.61-1.18.68Z"/><polygon class="cls-32" points="205.87 48.04 205.51 47.54 206.84 46.75 207.05 47.36 207.05 104.99 205.87 105.67 205.87 48.04"/><path class="cls-33" d="M202.35,41.77l1.29-.74a.8.8,0,0,1,1.15.44l2.05,5.28a.79.79,0,0,1-1.39.72l-3.34-4.54A.8.8,0,0,1,202.35,41.77Z"/><polygon class="cls-34" points="232.96 97.25 230.75 98.53 231.27 90.75 232.44 90.07 232.96 97.25"/><path class="cls-35" d="M231.27,90.94l-.52,7.59L227,100.92l1.25-11.65S227,28.58,227,28.11s.77-1.06.77-1.06l4.48,5,.21.61-1.17.68Z"/><polygon class="cls-36" points="231.27 33.32 230.91 32.82 232.24 32.03 232.44 32.63 232.44 90.27 231.27 90.94 231.27 33.32"/><path class="cls-37" d="M227.75,27.05l1.29-.74a.78.78,0,0,1,1.14.44l2,5.28a.79.79,0,0,1-1.39.72l-3.33-4.54A.8.8,0,0,1,227.75,27.05Z"/><polygon class="cls-38" points="258.38 82.63 256.17 83.91 256.69 76.13 257.86 75.45 258.38 82.63"/><path class="cls-39" d="M256.69,76.33l-.52,7.58L252.4,86.3l1.25-11.65S252.4,14,252.4,13.5s.77-1.06.77-1.06l4.48,5,.21.6-1.17.68Z"/><polygon class="cls-40" points="256.69 18.7 256.33 18.21 257.65 17.41 257.86 18.02 257.86 75.65 256.69 76.33 256.69 18.7"/><path class="cls-41" d="M253.17,12.44l1.28-.74a.79.79,0,0,1,1.15.44l2,5.28a.79.79,0,0,1-1.39.71l-3.34-4.54A.79.79,0,0,1,253.17,12.44Z"/><path class="cls-42" d="M200,116.35h0s0,3,1.76,4.13h0l.09.06.11.06,43,24.87-1.77-4.13S200,116.34,200,116.35Z"/><path class="cls-43" d="M303.79,106.32l-60.66,35-43.15-25s9.45-6.73,30.33-18.78,30.32-16.24,30.32-16.24Z"/><path class="cls-44" d="M297,117.6l-47,27.15c-6.82,3.94-6.82-3.41-6.82-3.41s9.45-6.73,30.33-18.79,30.33-16.23,30.33-16.23A13.83,13.83,0,0,1,297,117.6Z"/><path class="cls-45" d="M246.48,145c-1.91,0-2.33-2.23-2.42-3.22,2-1.4,11.61-7.92,29.85-18.46C290,114,299.4,109.39,302.74,107.8a12.69,12.69,0,0,1-6.22,9L249.5,144A6.41,6.41,0,0,1,246.48,145Z"/><path class="cls-46" d="M298.76,112.61a2.87,2.87,0,0,1-1.3,2.25c-.71.41-1.29.07-1.29-.75a2.85,2.85,0,0,1,1.29-2.24C298.18,111.45,298.76,111.79,298.76,112.61Z"/><path class="cls-47" d="M297,114.11a2,2,0,0,1,.89-1.53l.05,0v.06a2,2,0,0,1-.88,1.53l-.05,0A.13.13,0,0,1,297,114.11Z"/><path class="cls-48" d="M294.8,114.9a2.87,2.87,0,0,1-1.29,2.24c-.72.41-1.3.08-1.3-.75a2.85,2.85,0,0,1,1.3-2.24C294.22,113.74,294.8,114.07,294.8,114.9Z"/><path class="cls-49" d="M293,116.39a2,2,0,0,1,.88-1.52l.05,0v.06a2.06,2.06,0,0,1-.88,1.53l0,0Z"/><path class="cls-50" d="M290.84,117.18a2.89,2.89,0,0,1-1.29,2.25c-.72.41-1.3.07-1.3-.75a2.84,2.84,0,0,1,1.3-2.24C290.26,116,290.84,116.36,290.84,117.18Z"/><path class="cls-51" d="M289.08,118.68a2.06,2.06,0,0,1,.88-1.53l.05,0a.13.13,0,0,1,0,.06,2,2,0,0,1-.89,1.53l-.05,0Z"/><path class="cls-52" d="M286.88,119.47a2.87,2.87,0,0,1-1.29,2.24c-.72.41-1.3.08-1.3-.75a2.85,2.85,0,0,1,1.3-2.24C286.3,118.31,286.88,118.64,286.88,119.47Z"/><path class="cls-53" d="M285.12,121a2,2,0,0,1,.88-1.52.09.09,0,0,1,.06,0v.06a2.06,2.06,0,0,1-.88,1.53l-.06,0Z"/><path class="cls-54" d="M282.93,121.75a2.87,2.87,0,0,1-1.3,2.25c-.71.41-1.29.07-1.29-.75a2.85,2.85,0,0,1,1.29-2.24C282.35,120.59,282.93,120.93,282.93,121.75Z"/><path class="cls-55" d="M281.16,123.25a2.06,2.06,0,0,1,.88-1.53l.06,0v.06a2,2,0,0,1-.88,1.53l-.06,0Z"/><path class="cls-56" d="M279,124a2.85,2.85,0,0,1-1.3,2.24c-.71.41-1.29.08-1.29-.75a2.87,2.87,0,0,1,1.29-2.24C278.39,122.88,279,123.21,279,124Z"/><path class="cls-57" d="M277.2,125.53a2,2,0,0,1,.89-1.52l.05,0V124a2.06,2.06,0,0,1-.88,1.53l-.05,0S277.2,125.56,277.2,125.53Z"/><path class="cls-58" d="M275,126.32a2.89,2.89,0,0,1-1.29,2.25c-.72.41-1.3.07-1.3-.75a2.84,2.84,0,0,1,1.3-2.24C274.43,125.16,275,125.5,275,126.32Z"/><path class="cls-59" d="M273.25,127.82a2.06,2.06,0,0,1,.88-1.53l.05,0a.13.13,0,0,1,0,.06,2,2,0,0,1-.89,1.53l-.05,0Z"/><path class="cls-60" d="M252.91,139.08l-.56-.33c1.23-2.18,3.38-3.43,4.62-2.67l-.57,1C255.24,136.64,254.07,137.32,252.91,139.08Z"/><path class="cls-61" d="M256.09,137.59c-.18.33-.37.65-.56,1-.58-.21-1.16.13-1.74,1l-.57-.33C253.93,137.93,255.35,137.09,256.09,137.59Z"/><path class="cls-62" d="M255.23,139.09l-.56,1-.57-.33C254.34,139.25,254.91,138.91,255.23,139.09Z"/><path class="cls-63" d="M251.09,140.25a3.22,3.22,0,0,1-.35,1.35,3.71,3.71,0,0,1-.63.88,2.3,2.3,0,0,1-.73.52,1,1,0,0,1-.78.07.79.79,0,0,1-.45-.46,1.57,1.57,0,0,1-.1-.74,3.26,3.26,0,0,1,.34-1.16,3.4,3.4,0,0,1,.28-.45c.09-.12.18-.17.27-.16s.13.09.11.22a.45.45,0,0,1-.11.27,2.85,2.85,0,0,0-.28.55,1.91,1.91,0,0,0-.11.64.77.77,0,0,0,.23.57.46.46,0,0,0,.32.11,1,1,0,0,0,.55-.19,2.08,2.08,0,0,0,.41-.38,2.11,2.11,0,0,0,.26-.4,2.57,2.57,0,0,0,.21-.52,1.67,1.67,0,0,0,0-.62.64.64,0,0,0-.25-.42l-.16-.07c-.09-.05-.1-.22,0-.39s.24-.28.37-.24a.76.76,0,0,1,.46.42,1,1,0,0,1,.11.4C251.08,140.13,251.08,140.21,251.09,140.25Z"/><path class="cls-64" d="M249.82,140v.71a.46.46,0,0,1,0,.19c-.09.23-.29.36-.4.29a.19.19,0,0,1-.07-.17v-1.45a.56.56,0,0,1,.28-.46.15.15,0,0,1,.23.14V140Z"/></g><g id="router_2"><polygon class="cls-6" points="306.6 205.88 246.48 170.95 293.5 143.81 353.55 178.7 313.82 205.88 306.6 205.88"/><path class="cls-65" d="M360.05,176.33h0s0,3-1.75,4.12h0l-.09,0-.11.06-42.95,24.87,1.76-4.13S360,176.31,360.05,176.33Z"/><path class="cls-66" d="M256.24,166.29l60.66,35,43.15-25s-9.44-6.73-30.32-18.79-30.33-16.23-30.33-16.23Z"/><path class="cls-67" d="M263.06,177.58l47,27.14c6.82,3.94,6.82-3.41,6.82-3.41s-9.45-6.73-30.33-18.78-30.33-16.24-30.33-16.24A13.84,13.84,0,0,0,263.06,177.58Z"/><path class="cls-68" d="M313.55,205c1.92,0,2.33-2.23,2.42-3.22-2-1.39-11.6-7.92-29.85-18.45C270,174,260.64,169.36,257.29,167.77a12.71,12.71,0,0,0,6.22,9l47,27.15A6.5,6.5,0,0,0,313.55,205Z"/><path class="cls-69" d="M301,195.57a2.84,2.84,0,0,0,1.3,2.24c.71.42,1.29.08,1.29-.74a2.89,2.89,0,0,0-1.29-2.25C301.59,194.41,301,194.74,301,195.57Z"/><path class="cls-70" d="M305,197.86a2.87,2.87,0,0,0,1.29,2.24c.72.41,1.3.08,1.3-.75a2.85,2.85,0,0,0-1.3-2.24C305.55,196.69,305,197,305,197.86Z"/><path class="cls-71" d="M308.93,200.14a2.85,2.85,0,0,0,1.29,2.24c.72.42,1.3.08,1.3-.74a2.87,2.87,0,0,0-1.3-2.25C309.51,199,308.93,199.31,308.93,200.14Z"/><path class="cls-72" d="M261.71,172.87a3,3,0,0,0,.35,1.35,3.35,3.35,0,0,0,.63.88,2.3,2.3,0,0,0,.72.53,1,1,0,0,0,.79.06.77.77,0,0,0,.45-.45,1.61,1.61,0,0,0,.1-.75,3.2,3.2,0,0,0-.35-1.16,4.12,4.12,0,0,0-.27-.45c-.09-.11-.18-.17-.27-.16s-.13.09-.12.22a.57.57,0,0,0,.11.27,2.71,2.71,0,0,1,.29.56,2.09,2.09,0,0,1,.11.63.75.75,0,0,1-.23.57.47.47,0,0,1-.32.12,1,1,0,0,1-.55-.19,1.67,1.67,0,0,1-.41-.39,2.7,2.7,0,0,1-.27-.39,2.78,2.78,0,0,1-.2-.52,1.37,1.37,0,0,1,0-.63.6.6,0,0,1,.25-.41l.15-.08c.1,0,.11-.22,0-.39s-.24-.28-.36-.24a.79.79,0,0,0-.46.42,1,1,0,0,0-.11.4C261.72,172.75,261.71,172.83,261.71,172.87Z"/><path class="cls-73" d="M263,172.61v.71a.68.68,0,0,0,0,.19c.1.23.29.36.41.28a.18.18,0,0,0,.07-.17c0-.48,0-1,0-1.44a.55.55,0,0,0-.29-.46.15.15,0,0,0-.22.13v.76Z"/></g><g id="laptop"><path class="cls-74" d="M122.22,212.66,182.66,178c1.35-.78,1.18-2.13-.37-3l-98.38-56.5a5.87,5.87,0,0,0-5.26-.22L17.09,153.79c-1.34.78-1.17,2.14.38,3l97.17,55.83Z"/><path class="cls-75" d="M136.19,45l.84,0c-.95-.74-1.78-.86-2.07-.69L33.71,102.74a4.7,4.7,0,0,0-1.6,3.39L55.83,174l1.78.33-.89-1.3-23.3-66.64L35,103.46Z"/><path class="cls-76" d="M58.24,174.15l101.2-58.43c.85-.49,2-1.59,1.53-2.92L137.69,46.18c-.32-1-.69-1.64-1.53-1.16L35,103.46a3.65,3.65,0,0,0-1.53,2.92L56.71,173C57,174.05,57.39,174.64,58.24,174.15Z"/><path class="cls-77" d="M40,106.89,133.39,53a.68.68,0,0,1,1,.36L154,109.55a.67.67,0,0,1-.3.81L60.35,164.28a.67.67,0,0,1-1-.36L39.71,107.7A.66.66,0,0,1,40,106.89Z"/><path class="cls-78" d="M60,164.06a.38.38,0,0,1-.35-.25L40,107.59a.36.36,0,0,1,.16-.43l93.39-53.92a.35.35,0,0,1,.18-.05.36.36,0,0,1,.34.25l19.67,56.22a.35.35,0,0,1-.16.43L60.2,164A.41.41,0,0,1,60,164.06Z"/><path class="cls-79" d="M123,208.83l-2.2-.09L58.4,172.25v3.64a1,1,0,0,0,.54.68l61.83,35.78a2.42,2.42,0,0,0,2.2.09l101.92-58.83a.66.66,0,0,0,.38-.54v-3.65Z"/><path class="cls-80" d="M123.5,208.63,224.7,150.2c.85-.49.74-1.34-.23-1.9l-61-35.22a3.71,3.71,0,0,0-3.3-.14L59,171.38c-.85.48-.74,1.34.23,1.9l61,35.22A3.67,3.67,0,0,0,123.5,208.63Z"/><path class="cls-81" d="M154.46,187.38l33.27-19.2c.27-.16.24-.44-.08-.63L167.6,156a1.18,1.18,0,0,0-1.08,0l-33.27,19.21c-.27.16-.24.44.08.62l20,11.58A1.21,1.21,0,0,0,154.46,187.38Z"/><path class="cls-82" d="M99.34,189.6l-27.9-16.1a.57.57,0,0,1,0-1l90.41-52.19a2.33,2.33,0,0,1,2.34,0l27.7,16a.56.56,0,0,1,0,1L101.28,189.6A1.92,1.92,0,0,1,99.34,189.6Z"/><path class="cls-83" d="M181,130l-8.34-4.81a2.08,2.08,0,0,0-1.86.07l-.63.37c-.55.32-.61.8-.13,1.07l8.34,4.82a2.06,2.06,0,0,0,1.85-.08l.64-.37C181.46,130.8,181.52,130.32,181,130Z"/><path class="cls-84" d="M101.17,189.67l3.78-2.19c.48-.27.42-.75-.13-1.07l-2.66-1.53a2.06,2.06,0,0,0-1.85-.08L96.52,187c-.47.27-.41.75.14,1.07l2.65,1.53A2.08,2.08,0,0,0,101.17,189.67Z"/><path class="cls-85" d="M157.69,138.26l3.78-2.18c.48-.28.42-.76-.13-1.07l-2.66-1.54a2.05,2.05,0,0,0-1.85-.07L153,135.58c-.47.28-.41.75.13,1.07l2.66,1.54A2.08,2.08,0,0,0,157.69,138.26Z"/><path class="cls-86" d="M95.75,186.54l8.09-4.67c.48-.28.42-.76-.13-1.07l-2.66-1.54a2.06,2.06,0,0,0-1.85-.08l-8.1,4.68c-.47.27-.41.75.14,1.07l2.65,1.53A2.08,2.08,0,0,0,95.75,186.54Z"/><path class="cls-87" d="M90.33,183.41l6.15-3.55c.47-.27.41-.75-.14-1.07l-2.66-1.53a2,2,0,0,0-1.85-.08l-6.15,3.55c-.47.27-.41.75.14,1.07l2.65,1.53A2.08,2.08,0,0,0,90.33,183.41Z"/><path class="cls-88" d="M79.49,177.15l2.92-1.69c.48-.27.42-.75-.13-1.07l-2.66-1.53a2.06,2.06,0,0,0-1.85-.08l-2.93,1.69c-.47.27-.41.75.14,1.07l2.66,1.54A2.05,2.05,0,0,0,79.49,177.15Z"/><path class="cls-89" d="M84.91,180.28l5.29-3.05c.47-.28.41-.76-.14-1.07l-2.66-1.54a2.05,2.05,0,0,0-1.85-.07l-5.29,3c-.47.27-.41.75.14,1.07l2.66,1.53A2,2,0,0,0,84.91,180.28Z"/><path class="cls-90" d="M87.83,171.34l-2.92-1.69a2.06,2.06,0,0,0-1.85.08l-2.66,1.53c-.55.32-.61.8-.14,1.07L83.19,174A2.05,2.05,0,0,0,85,174l2.66-1.54C88.25,172.09,88.31,171.62,87.83,171.34Z"/><path class="cls-91" d="M93.25,168.21l-2.92-1.69a2.08,2.08,0,0,0-1.86.08l-2.65,1.54c-.55.31-.61.79-.14,1.07l2.93,1.68a2.05,2.05,0,0,0,1.85-.07l2.66-1.54C93.67,169,93.73,168.49,93.25,168.21Z"/><path class="cls-92" d="M98.67,165.08l-2.92-1.69a2.08,2.08,0,0,0-1.86.08L91.24,165c-.55.31-.61.79-.14,1.07L94,167.77a2.06,2.06,0,0,0,1.85-.08l2.66-1.54C99.09,165.84,99.15,165.36,98.67,165.08Z"/><path class="cls-93" d="M104.09,162l-2.92-1.68a2.08,2.08,0,0,0-1.86.07l-2.65,1.54c-.55.31-.61.79-.14,1.07l2.93,1.69a2.06,2.06,0,0,0,1.85-.08L104,163C104.51,162.71,104.57,162.23,104.09,162Z"/><path class="cls-94" d="M106.59,161.51l2.92-1.69c.48-.28.42-.75-.13-1.07l-2.66-1.54a2.05,2.05,0,0,0-1.85-.07l-2.93,1.69c-.47.27-.41.75.13,1.07l2.66,1.53A2.08,2.08,0,0,0,106.59,161.51Z"/><path class="cls-95" d="M114.93,155.7,112,154a2.08,2.08,0,0,0-1.86.07l-2.66,1.54c-.54.32-.6.8-.13,1.07l2.93,1.69a2.06,2.06,0,0,0,1.85-.08l2.66-1.53C115.35,156.45,115.41,156,114.93,155.7Z"/><path class="cls-96" d="M120.35,152.57l-2.92-1.69a2,2,0,0,0-1.86.08l-2.66,1.53c-.54.32-.6.8-.13,1.07l2.93,1.69a2.06,2.06,0,0,0,1.85-.08l2.66-1.53C120.77,153.32,120.83,152.84,120.35,152.57Z"/><path class="cls-97" d="M125.77,149.44l-2.92-1.69a2.08,2.08,0,0,0-1.86.08l-2.66,1.53c-.54.32-.6.8-.13,1.07l2.93,1.69A2.06,2.06,0,0,0,123,152l2.66-1.53C126.19,150.19,126.25,149.71,125.77,149.44Z"/><path class="cls-98" d="M131.19,146.31l-2.92-1.69a2.08,2.08,0,0,0-1.86.08l-2.66,1.53c-.55.32-.6.8-.13,1.07l2.93,1.69a2,2,0,0,0,1.85-.08l2.66-1.53C131.61,147.06,131.67,146.58,131.19,146.31Z"/><path class="cls-99" d="M136.61,143.18l-2.92-1.69a2.08,2.08,0,0,0-1.86.08l-2.66,1.53c-.55.32-.61.8-.13,1.07l2.92,1.69a2.08,2.08,0,0,0,1.86-.07l2.66-1.54C137,143.93,137.09,143.45,136.61,143.18Z"/><path class="cls-100" d="M142,140.05l-2.93-1.69a2.06,2.06,0,0,0-1.85.08L134.59,140c-.55.32-.61.8-.13,1.07l2.92,1.69a2.08,2.08,0,0,0,1.86-.07l2.66-1.54C142.45,140.8,142.5,140.33,142,140.05Z"/><path class="cls-101" d="M147.45,136.92l-2.93-1.69a2.06,2.06,0,0,0-1.85.08L140,136.85c-.55.31-.61.79-.13,1.07l2.92,1.68a2.08,2.08,0,0,0,1.86-.07l2.66-1.54C147.86,137.68,147.92,137.2,147.45,136.92Z"/><path class="cls-102" d="M156.05,132l-2.92-1.69a2.08,2.08,0,0,0-1.86.07l-5.84,3.38c-.55.31-.61.79-.13,1.07l2.92,1.69a2.08,2.08,0,0,0,1.86-.08l5.84-3.37C156.47,132.71,156.53,132.23,156.05,132Z"/><path class="cls-103" d="M170.9,148.42,168,146.73a2,2,0,0,0-1.85.08L156,152.64c-.55.31-.61.79-.14,1.07l2.93,1.69a2.06,2.06,0,0,0,1.85-.08l10.1-5.83C171.31,149.17,171.37,148.69,170.9,148.42Z"/><path class="cls-104" d="M166.89,138.21,164,136.52a2.08,2.08,0,0,0-1.86.08l-8,4.63c-.55.32-.61.8-.14,1.07l2.93,1.69a2.05,2.05,0,0,0,1.85-.07l8-4.64C167.31,139,167.37,138.49,166.89,138.21Z"/><path class="cls-105" d="M95.58,173.13l-2.93-1.69a2.06,2.06,0,0,0-1.85.08l-2.66,1.53c-.55.32-.61.8-.13,1.07l2.92,1.69a2,2,0,0,0,1.85-.08l2.66-1.53C96,173.88,96.05,173.4,95.58,173.13Z"/><path class="cls-106" d="M101,170l-2.93-1.69a2.06,2.06,0,0,0-1.85.08l-2.66,1.53c-.55.32-.61.8-.13,1.07l2.92,1.69a2.05,2.05,0,0,0,1.85-.07l2.66-1.54C101.41,170.75,101.47,170.27,101,170Z"/><path class="cls-107" d="M106.42,166.87l-2.93-1.69a2.06,2.06,0,0,0-1.85.08L99,166.79c-.55.32-.61.8-.13,1.07l2.92,1.69a2.05,2.05,0,0,0,1.85-.07l2.66-1.54C106.83,167.62,106.89,167.15,106.42,166.87Z"/><path class="cls-108" d="M111.83,163.74l-2.92-1.69a2.06,2.06,0,0,0-1.85.08l-2.66,1.54c-.55.31-.61.79-.14,1.07l2.93,1.68a2.05,2.05,0,0,0,1.85-.07l2.66-1.54C112.25,164.5,112.31,164,111.83,163.74Z"/><path class="cls-109" d="M114.33,163.3l2.92-1.69c.48-.28.42-.76-.13-1.07L114.46,159a2.06,2.06,0,0,0-1.85-.08l-2.93,1.69c-.47.28-.41.76.14,1.07l2.66,1.54A2.06,2.06,0,0,0,114.33,163.3Z"/><path class="cls-110" d="M122.67,157.48l-2.92-1.68a2.05,2.05,0,0,0-1.85.07l-2.66,1.54c-.55.31-.61.79-.14,1.07l2.93,1.69a2.06,2.06,0,0,0,1.85-.08l2.66-1.54C123.09,158.24,123.15,157.76,122.67,157.48Z"/><path class="cls-111" d="M128.09,154.36l-2.92-1.69a2.05,2.05,0,0,0-1.85.07l-2.66,1.54c-.55.31-.61.79-.14,1.07l2.93,1.69a2.06,2.06,0,0,0,1.85-.08l2.66-1.53C128.51,155.11,128.57,154.63,128.09,154.36Z"/><path class="cls-112" d="M133.51,151.23l-2.92-1.69a2.08,2.08,0,0,0-1.86.07l-2.65,1.54c-.55.32-.61.8-.14,1.07l2.93,1.69a2.06,2.06,0,0,0,1.85-.08l2.66-1.53C133.93,152,134,151.5,133.51,151.23Z"/><path class="cls-113" d="M138.93,148.1,136,146.41a2,2,0,0,0-1.86.08L131.5,148c-.55.32-.61.8-.14,1.07l2.93,1.69a2.06,2.06,0,0,0,1.85-.08l2.66-1.53C139.35,148.85,139.41,148.37,138.93,148.1Z"/><path class="cls-114" d="M144.35,145l-2.92-1.69a2.08,2.08,0,0,0-1.86.08l-2.65,1.53c-.55.32-.61.8-.14,1.07l2.93,1.69a2.06,2.06,0,0,0,1.85-.08l2.66-1.53C144.77,145.72,144.83,145.24,144.35,145Z"/><path class="cls-115" d="M149.77,141.84l-2.92-1.69a2.08,2.08,0,0,0-1.86.08l-2.66,1.53c-.54.32-.6.8-.13,1.07l2.93,1.69a2,2,0,0,0,1.85-.08l2.66-1.53C150.19,142.59,150.25,142.11,149.77,141.84Z"/><path class="cls-116" d="M155.19,138.71,152.27,137a2.08,2.08,0,0,0-1.86.08l-2.66,1.53c-.54.32-.6.8-.13,1.07l2.93,1.69a2.05,2.05,0,0,0,1.85-.07l2.66-1.54C155.61,139.46,155.67,139,155.19,138.71Z"/><path class="cls-117" d="M101.91,175.73,99,174a2.06,2.06,0,0,0-1.85.08l-2.66,1.53c-.55.32-.61.8-.13,1.07l2.92,1.69a2.08,2.08,0,0,0,1.86-.07l2.66-1.54C102.33,176.48,102.38,176,101.91,175.73Z"/><path class="cls-118" d="M107.33,172.6l-2.93-1.69a2.06,2.06,0,0,0-1.85.08l-2.66,1.53c-.55.32-.61.8-.13,1.07l2.92,1.69a2.08,2.08,0,0,0,1.86-.07l2.66-1.54C107.74,173.35,107.8,172.88,107.33,172.6Z"/><path class="cls-119" d="M112.75,169.47l-2.93-1.69a2.06,2.06,0,0,0-1.85.08l-2.66,1.54c-.55.31-.61.79-.13,1.07l2.92,1.68a2.08,2.08,0,0,0,1.86-.07l2.66-1.54C113.16,170.23,113.22,169.75,112.75,169.47Z"/><path class="cls-120" d="M115.24,169l2.93-1.69c.47-.28.41-.76-.13-1.07l-2.66-1.54a2.08,2.08,0,0,0-1.86-.08l-2.92,1.69c-.48.28-.42.76.13,1.07l2.66,1.54A2.06,2.06,0,0,0,115.24,169Z"/><path class="cls-121" d="M123.59,163.21l-2.93-1.68a2.05,2.05,0,0,0-1.85.07l-2.66,1.54c-.55.31-.61.79-.13,1.07l2.92,1.69a2.08,2.08,0,0,0,1.86-.08l2.66-1.54C124,164,124.06,163.49,123.59,163.21Z"/><path class="cls-122" d="M129,160.09l-2.93-1.69a2.05,2.05,0,0,0-1.85.07L121.57,160c-.55.32-.61.79-.13,1.07l2.92,1.69a2.08,2.08,0,0,0,1.86-.08l2.65-1.53C129.42,160.84,129.48,160.36,129,160.09Z"/><path class="cls-123" d="M134.43,157l-2.93-1.69a2.05,2.05,0,0,0-1.85.07L127,156.88c-.55.32-.61.8-.13,1.07l2.92,1.69a2.08,2.08,0,0,0,1.86-.08l2.65-1.53C134.84,157.71,134.9,157.23,134.43,157Z"/><path class="cls-124" d="M139.85,153.83l-2.93-1.69a2,2,0,0,0-1.85.08l-2.66,1.53c-.55.32-.61.8-.13,1.07l2.92,1.69a2.08,2.08,0,0,0,1.86-.08l2.65-1.53C140.26,154.58,140.32,154.1,139.85,153.83Z"/><path class="cls-125" d="M145.27,150.7,142.34,149a2.06,2.06,0,0,0-1.85.08l-2.66,1.53c-.55.32-.61.8-.13,1.07l2.92,1.69a2.06,2.06,0,0,0,1.85-.08l2.66-1.53C145.68,151.45,145.74,151,145.27,150.7Z"/><path class="cls-126" d="M150.69,147.57l-2.93-1.69a2.06,2.06,0,0,0-1.85.08l-2.66,1.53c-.55.32-.61.8-.13,1.07l2.92,1.69a2,2,0,0,0,1.85-.08l2.66-1.53C151.1,148.32,151.16,147.84,150.69,147.57Z"/><path class="cls-127" d="M156.11,144.44l-2.93-1.69a2.06,2.06,0,0,0-1.85.08l-2.66,1.53c-.55.32-.61.8-.13,1.07l2.92,1.69a2.05,2.05,0,0,0,1.85-.07l2.66-1.54C156.52,145.19,156.58,144.71,156.11,144.44Z"/><path class="cls-128" d="M109.26,177.75l-2.93-1.69a2.05,2.05,0,0,0-1.85.07l-2.66,1.54c-.55.32-.61.8-.13,1.07l2.92,1.69a2.08,2.08,0,0,0,1.86-.08l2.65-1.53C109.67,178.5,109.73,178,109.26,177.75Z"/><path class="cls-129" d="M114.68,174.62l-2.93-1.69a2,2,0,0,0-1.85.08l-2.66,1.53c-.55.32-.61.8-.13,1.07L110,177.3a2.08,2.08,0,0,0,1.86-.08l2.65-1.53C115.09,175.37,115.15,174.89,114.68,174.62Z"/><path class="cls-130" d="M117.17,174.17l2.93-1.69c.47-.27.41-.75-.14-1.07l-2.66-1.53a2.06,2.06,0,0,0-1.85-.08l-2.92,1.69c-.48.27-.42.75.13,1.07l2.66,1.53A2.06,2.06,0,0,0,117.17,174.17Z"/><path class="cls-131" d="M125.52,168.36l-2.93-1.69a2.06,2.06,0,0,0-1.85.08l-2.66,1.53c-.55.32-.61.8-.13,1.07l2.92,1.69a2,2,0,0,0,1.85-.08l2.66-1.53C125.93,169.11,126,168.63,125.52,168.36Z"/><path class="cls-132" d="M110.36,183.37l-2.92-1.69a2,2,0,0,0-1.86.08l-2.66,1.53c-.54.32-.6.8-.13,1.07l2.93,1.69a2.06,2.06,0,0,0,1.85-.08l2.66-1.53C110.78,184.12,110.84,183.64,110.36,183.37Z"/><path class="cls-133" d="M112.86,182.92l2.92-1.69c.48-.27.42-.75-.13-1.07L113,178.63a2.06,2.06,0,0,0-1.85-.08l-2.93,1.69c-.47.27-.42.75.13,1.07l2.66,1.53A2.08,2.08,0,0,0,112.86,182.92Z"/><path class="cls-134" d="M121.2,177.11l-2.92-1.69a2.08,2.08,0,0,0-1.86.08L113.76,177c-.55.32-.61.8-.13,1.07l2.92,1.69a2,2,0,0,0,1.86-.08l2.66-1.53C121.62,177.86,121.68,177.38,121.2,177.11Z"/><path class="cls-135" d="M147.19,162.1l-2.92-1.69a2.06,2.06,0,0,0-1.85.08L119.18,173.9c-.55.32-.61.8-.13,1.07l2.92,1.69a2.08,2.08,0,0,0,1.86-.07l23.23-13.42C147.61,162.85,147.67,162.38,147.19,162.1Z"/><path class="cls-136" d="M130.94,165.23,128,163.54a2.06,2.06,0,0,0-1.85.08l-2.66,1.53c-.55.32-.61.8-.13,1.07l2.92,1.69a2.05,2.05,0,0,0,1.85-.07l2.66-1.54C131.35,166,131.41,165.5,130.94,165.23Z"/><path class="cls-137" d="M136.36,162.1l-2.93-1.69a2.06,2.06,0,0,0-1.85.08L128.92,162c-.55.32-.61.8-.14,1.07l2.93,1.69a2.05,2.05,0,0,0,1.85-.07l2.66-1.54C136.77,162.85,136.83,162.38,136.36,162.1Z"/><path class="cls-138" d="M141.77,159l-2.92-1.69a2.06,2.06,0,0,0-1.85.08l-2.66,1.54c-.55.31-.61.79-.14,1.07l2.93,1.68a2.05,2.05,0,0,0,1.85-.07l2.66-1.54C142.19,159.73,142.25,159.25,141.77,159Z"/><path class="cls-139" d="M147.19,155.84l-2.92-1.69a2.06,2.06,0,0,0-1.85.08l-2.66,1.54c-.55.31-.61.79-.14,1.07l2.93,1.69a2.06,2.06,0,0,0,1.85-.08l2.66-1.54C147.61,156.6,147.67,156.12,147.19,155.84Z"/><path class="cls-140" d="M152.61,152.71,149.69,151a2.05,2.05,0,0,0-1.85.07l-2.66,1.54c-.55.31-.61.79-.14,1.07L148,155.4a2.06,2.06,0,0,0,1.85-.08l2.66-1.54C153,153.47,153.09,153,152.61,152.71Z"/><path class="cls-141" d="M152.61,159l-2.92-1.69a2.06,2.06,0,0,0-1.85.08l-2.66,1.54c-.55.31-.61.79-.14,1.07l2.93,1.68a2.05,2.05,0,0,0,1.85-.07l2.66-1.54C153,159.73,153.09,159.25,152.61,159Z"/><path class="cls-142" d="M158,155.84l-2.92-1.69a2.06,2.06,0,0,0-1.85.08l-2.66,1.54c-.55.31-.61.79-.14,1.07l2.93,1.69a2.06,2.06,0,0,0,1.85-.08l2.66-1.54C158.45,156.6,158.51,156.12,158,155.84Z"/><path class="cls-143" d="M158,149.59l-2.92-1.69a2.05,2.05,0,0,0-1.85.07l-2.66,1.54c-.55.32-.61.79-.14,1.07l2.93,1.69a2.06,2.06,0,0,0,1.85-.08l2.66-1.53C158.45,150.34,158.51,149.86,158,149.59Z"/><path class="cls-143" d="M158,149.59l-2.92-1.69a2.05,2.05,0,0,0-1.85.07l-2.66,1.54c-.55.32-.61.79-.14,1.07l2.93,1.69a2.06,2.06,0,0,0,1.85-.08l2.66-1.53C158.45,150.34,158.51,149.86,158,149.59Z"/><path class="cls-144" d="M168.89,143.32,166,141.63a2.05,2.05,0,0,0-1.85.07l-8.1,4.68c-.55.32-.61.8-.14,1.07l2.93,1.69a2.06,2.06,0,0,0,1.85-.08l8.1-4.67C169.31,144.07,169.37,143.59,168.89,143.32Z"/><path class="cls-145" d="M74.07,174,77,172.33c.48-.27.42-.75-.13-1.07l-.63-.36a2.08,2.08,0,0,0-1.86-.08l-2.92,1.69c-.48.27-.42.75.13,1.07l.64.37A2.05,2.05,0,0,0,74.07,174Z"/><path class="cls-146" d="M172.31,141.34l-2.92-1.69a2.08,2.08,0,0,0-1.86.08l-.63.37c-.55.31-.61.79-.14,1.07l2.93,1.69a2.06,2.06,0,0,0,1.85-.08l.64-.37C172.73,142.1,172.79,141.62,172.31,141.34Z"/><path class="cls-147" d="M177.73,144.47l-2.92-1.69a2.08,2.08,0,0,0-1.86.08l-.63.37c-.55.31-.61.79-.14,1.07l2.93,1.68a2.05,2.05,0,0,0,1.85-.07l.64-.37C178.15,145.22,178.21,144.75,177.73,144.47Z"/><path class="cls-148" d="M176.21,139.09l-2.93-1.69a2.06,2.06,0,0,0-1.85.08l-.63.37c-.55.31-.61.79-.14,1.07l2.93,1.68a2.05,2.05,0,0,0,1.85-.07l.64-.37C176.63,139.84,176.68,139.37,176.21,139.09Z"/><path class="cls-149" d="M181.63,142.22l-2.93-1.69a2.06,2.06,0,0,0-1.85.08l-.63.36c-.55.32-.61.8-.14,1.08l2.93,1.68a2.05,2.05,0,0,0,1.85-.07l.64-.37C182,143,182.1,142.49,181.63,142.22Z"/><path class="cls-150" d="M174.31,146.44l-2.92-1.68a2.08,2.08,0,0,0-1.86.07l-.63.37c-.55.32-.61.79-.13,1.07l2.92,1.69a2.08,2.08,0,0,0,1.86-.08l.63-.37C174.73,147.2,174.79,146.72,174.31,146.44Z"/><path class="cls-150" d="M174.31,146.44l-2.92-1.68a2.08,2.08,0,0,0-1.86.07l-.63.37c-.55.32-.61.79-.13,1.07l2.92,1.69a2.08,2.08,0,0,0,1.86-.08l.63-.37C174.73,147.2,174.79,146.72,174.31,146.44Z"/><path class="cls-151" d="M179.63,137.12l-2.93-1.69a2.06,2.06,0,0,0-1.85.08l-.64.36c-.54.32-.6.8-.13,1.07l2.93,1.69a2.05,2.05,0,0,0,1.85-.07l.63-.37C180,137.87,180.1,137.39,179.63,137.12Z"/><path class="cls-152" d="M185.05,140.25l-2.93-1.69a2,2,0,0,0-1.85.08l-.64.36c-.55.32-.6.8-.13,1.07l2.93,1.69a2,2,0,0,0,1.85-.08l.63-.36C185.46,141,185.52,140.52,185.05,140.25Z"/><path class="cls-153" d="M183,135.15l-2.92-1.69a2.05,2.05,0,0,0-1.85.07l-.64.37c-.55.32-.61.8-.13,1.07l2.92,1.69a2.08,2.08,0,0,0,1.86-.08l.63-.36C183.46,135.9,183.52,135.42,183,135.15Z"/><path class="cls-154" d="M188.46,138.27l-2.92-1.68a2.08,2.08,0,0,0-1.86.07l-.63.37c-.55.32-.61.8-.13,1.07l2.92,1.69a2.08,2.08,0,0,0,1.86-.08l.63-.36C188.88,139,188.94,138.55,188.46,138.27Z"/><path class="cls-155" d="M191.88,136.3l-8.34-4.82a2.08,2.08,0,0,0-1.86.08l-.63.37c-.55.31-.61.79-.14,1.07l8.35,4.82a2.06,2.06,0,0,0,1.85-.08l.64-.37C192.3,137.06,192.36,136.58,191.88,136.3Z"/><path class="cls-156" d="M165.37,132.83l-2.92-1.69a2.08,2.08,0,0,0-1.86.08l-.63.37c-.55.31-.61.79-.14,1.07l2.93,1.69a2.06,2.06,0,0,0,1.85-.08l.64-.37C165.79,133.59,165.85,133.11,165.37,132.83Z"/><path class="cls-157" d="M170.79,136l-2.92-1.69a2.08,2.08,0,0,0-1.86.08l-.63.37c-.55.31-.61.79-.14,1.07l2.93,1.69a2.06,2.06,0,0,0,1.85-.08l.64-.37C171.21,136.72,171.27,136.24,170.79,136Z"/><path class="cls-158" d="M168.79,130.86l-2.93-1.69a2.06,2.06,0,0,0-1.85.08l-.64.36c-.54.32-.6.8-.13,1.08l2.93,1.68a2.05,2.05,0,0,0,1.85-.07l.63-.37C169.2,131.61,169.26,131.13,168.79,130.86Z"/><path class="cls-159" d="M174.21,134l-2.93-1.69a2.06,2.06,0,0,0-1.85.08l-.64.36c-.54.32-.6.8-.13,1.07l2.93,1.69a2.05,2.05,0,0,0,1.85-.07l.63-.37C174.62,134.74,174.68,134.26,174.21,134Z"/><path class="cls-160" d="M172.2,128.89l-2.92-1.69a2,2,0,0,0-1.85.08l-.64.36c-.55.32-.61.8-.13,1.07l2.92,1.69a2,2,0,0,0,1.86-.08l.63-.36C172.62,129.64,172.68,129.16,172.2,128.89Z"/><path class="cls-161" d="M160,129.7,157,128a2.08,2.08,0,0,0-1.86.07l-.63.37c-.55.32-.61.79-.14,1.07l2.93,1.69a2.06,2.06,0,0,0,1.85-.08l.64-.37C160.37,130.46,160.43,130,160,129.7Z"/><path class="cls-162" d="M82.69,168.05l-.9-.52a2.06,2.06,0,0,0-1.85.08l-.63.36c-.55.32-.61.8-.14,1.07l.9.52a2.08,2.08,0,0,0,1.86-.07l.63-.37C83.11,168.8,83.17,168.32,82.69,168.05Z"/><path class="cls-163" d="M86.09,166.09l-.9-.52a2,2,0,0,0-1.85.08l-.64.36c-.55.32-.61.8-.13,1.07l.9.52a2.05,2.05,0,0,0,1.85-.07l.64-.37C86.51,166.84,86.57,166.36,86.09,166.09Z"/><path class="cls-164" d="M89.49,164.13l-.9-.52a2.08,2.08,0,0,0-1.86.07l-.63.37c-.55.32-.61.8-.13,1.07l.9.52a2,2,0,0,0,1.85-.08l.64-.36C89.9,164.88,90,164.4,89.49,164.13Z"/><path class="cls-165" d="M92.89,162.17l-.91-.52a2.05,2.05,0,0,0-1.85.07l-.63.37c-.55.32-.61.8-.14,1.07l.9.52a2.08,2.08,0,0,0,1.86-.08l.63-.36C93.3,162.92,93.36,162.44,92.89,162.17Z"/><path class="cls-166" d="M96.28,160.21l-.9-.52a2.05,2.05,0,0,0-1.85.07l-.64.37c-.55.32-.6.79-.13,1.07l.9.52a2.06,2.06,0,0,0,1.85-.08l.64-.36C96.7,161,96.76,160.48,96.28,160.21Z"/><path class="cls-167" d="M99.68,158.24l-.9-.52a2.08,2.08,0,0,0-1.86.08l-.63.37c-.55.31-.61.79-.13,1.07l.9.52a2.06,2.06,0,0,0,1.85-.08l.64-.37C100.09,159,100.15,158.52,99.68,158.24Z"/><path class="cls-168" d="M103.08,156.28l-.9-.52a2.08,2.08,0,0,0-1.86.08l-.63.37c-.55.31-.61.79-.14,1.07l.9.52a2.08,2.08,0,0,0,1.86-.08l.63-.37C103.49,157,103.55,156.56,103.08,156.28Z"/><path class="cls-169" d="M106.47,154.32l-.9-.52a2.06,2.06,0,0,0-1.85.08l-.64.37c-.54.31-.6.79-.13,1.07l.9.52a2.08,2.08,0,0,0,1.86-.08l.63-.37C106.89,155.08,107,154.6,106.47,154.32Z"/><path class="cls-170" d="M109.87,152.36l-.9-.52a2.06,2.06,0,0,0-1.85.08l-.64.36c-.55.32-.61.8-.13,1.07l.9.52a2.05,2.05,0,0,0,1.85-.07l.64-.37C110.29,153.11,110.34,152.63,109.87,152.36Z"/><path class="cls-171" d="M113.27,150.4l-.9-.52a2.08,2.08,0,0,0-1.86.08l-.63.36c-.55.32-.61.8-.14,1.07l.91.52a2.05,2.05,0,0,0,1.85-.07l.63-.37C113.68,151.15,113.74,150.67,113.27,150.4Z"/><path class="cls-172" d="M116.66,148.44l-.9-.52a2,2,0,0,0-1.85.08l-.64.36c-.54.32-.6.8-.13,1.07l.9.52a2,2,0,0,0,1.86-.08l.63-.36C117.08,149.19,117.14,148.71,116.66,148.44Z"/><path class="cls-173" d="M120.06,146.48l-.9-.52a2.05,2.05,0,0,0-1.85.07l-.64.37c-.55.32-.61.8-.13,1.07l.9.52a2.06,2.06,0,0,0,1.85-.08l.64-.36C120.48,147.23,120.54,146.75,120.06,146.48Z"/><path class="cls-174" d="M123.46,144.52l-.9-.52a2.08,2.08,0,0,0-1.86.07l-.63.37c-.55.32-.61.79-.13,1.07l.9.52a2.06,2.06,0,0,0,1.85-.08l.63-.36C123.87,145.27,123.93,144.79,123.46,144.52Z"/><path class="cls-175" d="M126.85,142.55,126,142a2.06,2.06,0,0,0-1.85.08l-.63.37c-.55.31-.61.79-.14,1.07l.9.52a2.08,2.08,0,0,0,1.86-.08l.63-.37C127.27,143.31,127.33,142.83,126.85,142.55Z"/><path class="cls-176" d="M130.25,140.59l-.9-.52a2.06,2.06,0,0,0-1.85.08l-.64.37c-.55.31-.61.79-.13,1.07l.9.52a2.06,2.06,0,0,0,1.85-.08l.64-.37C130.67,141.35,130.73,140.87,130.25,140.59Z"/><path class="cls-177" d="M133.65,138.63l-.9-.52a2.08,2.08,0,0,0-1.86.08l-.63.37c-.55.31-.61.79-.13,1.07l.9.52a2.06,2.06,0,0,0,1.85-.08l.63-.37C134.06,139.39,134.12,138.91,133.65,138.63Z"/><path class="cls-178" d="M137,136.67l-.9-.52a2.06,2.06,0,0,0-1.85.08l-.63.36c-.55.32-.61.8-.14,1.07l.9.52a2.08,2.08,0,0,0,1.86-.07l.63-.37C137.46,137.42,137.52,137,137,136.67Z"/><path class="cls-179" d="M140.44,134.71l-.9-.52a2.06,2.06,0,0,0-1.85.08l-.64.36c-.55.32-.61.8-.13,1.07l.9.52a2.05,2.05,0,0,0,1.85-.07l.64-.37C140.86,135.46,140.92,135,140.44,134.71Z"/><path class="cls-180" d="M143.84,132.75l-.9-.52a2,2,0,0,0-1.86.08l-.63.36c-.55.32-.61.8-.13,1.07l.9.52a2.05,2.05,0,0,0,1.85-.07l.64-.37C144.25,133.5,144.31,133,143.84,132.75Z"/><path class="cls-181" d="M147.24,130.79l-.91-.52a2.05,2.05,0,0,0-1.85.07l-.63.37c-.55.32-.61.8-.14,1.07l.9.52a2,2,0,0,0,1.86-.08l.63-.36C147.65,131.54,147.71,131.06,147.24,130.79Z"/><path class="cls-182" d="M150.63,128.83l-.9-.52a2.05,2.05,0,0,0-1.85.07l-.64.37c-.54.32-.6.8-.13,1.07l.9.52a2.06,2.06,0,0,0,1.85-.08l.64-.36C151.05,129.58,151.11,129.1,150.63,128.83Z"/><path class="cls-183" d="M154.53,126.58l-.9-.52a2.05,2.05,0,0,0-1.85.07l-.64.37c-.55.32-.61.79-.13,1.07l.9.52a2.06,2.06,0,0,0,1.85-.08l.64-.36C155,127.33,155,126.85,154.53,126.58Z"/><path class="cls-184" d="M157.93,124.61l-.9-.52a2.08,2.08,0,0,0-1.86.08l-.63.37c-.55.31-.61.79-.13,1.07l.9.52a2.06,2.06,0,0,0,1.85-.08l.63-.37C158.34,125.37,158.4,124.89,157.93,124.61Z"/><path class="cls-185" d="M161.32,122.65l-.9-.52a2.06,2.06,0,0,0-1.85.08l-.63.37c-.55.31-.61.79-.14,1.07l.9.52a2.08,2.08,0,0,0,1.86-.08l.63-.37C161.74,123.41,161.8,122.93,161.32,122.65Z"/><path class="cls-186" d="M164.72,120.69l-.9-.52a2.06,2.06,0,0,0-1.85.08l-.64.36c-.55.32-.6.8-.13,1.08l.9.52a2.09,2.09,0,0,0,1.85-.08l.64-.37C165.14,121.45,165.2,121,164.72,120.69Z"/><path class="cls-187" d="M163.37,127.73,160.44,126a2.06,2.06,0,0,0-1.85.08l-.64.37c-.54.31-.6.79-.13,1.07l2.93,1.68a2.05,2.05,0,0,0,1.85-.07l.63-.37C163.78,128.48,163.84,128,163.37,127.73Z"/><path class="cls-188" d="M166.78,125.76l-2.92-1.69a2.06,2.06,0,0,0-1.85.08l-.64.36c-.55.32-.61.8-.13,1.07l2.92,1.69a2.08,2.08,0,0,0,1.86-.07l.63-.37C167.2,126.51,167.26,126,166.78,125.76Z"/><path class="cls-189" d="M170.2,123.79l-2.92-1.69a2.08,2.08,0,0,0-1.86.07l-.63.37c-.55.32-.61.8-.13,1.07l2.92,1.69a2.06,2.06,0,0,0,1.85-.08l.64-.36C170.62,124.54,170.68,124.06,170.2,123.79Z"/><path class="cls-190" d="M177.62,132l-2.92-1.69a2.05,2.05,0,0,0-1.85.07l-.64.37c-.55.32-.61.8-.13,1.07l2.92,1.69a2.08,2.08,0,0,0,1.86-.08l.63-.36C178,132.77,178.1,132.29,177.62,132Z"/><path class="cls-191" d="M155.82,120.08a4.39,4.39,0,0,0,4,0,1.21,1.21,0,0,0,0-2.3,4.45,4.45,0,0,0-4,0A1.21,1.21,0,0,0,155.82,120.08Z"/><path class="cls-192" d="M156.57,119.76a2.83,2.83,0,0,0,1.18.32,2.92,2.92,0,0,0,.94-.09,2,2,0,0,0,.72-.32.88.88,0,0,0,.39-.57.65.65,0,0,0-.15-.54,1.29,1.29,0,0,0-.52-.4,2.74,2.74,0,0,0-1-.25,3.53,3.53,0,0,0-.46,0,.29.29,0,0,0-.24.14c0,.07,0,.13.11.18a.46.46,0,0,0,.26,0,1.62,1.62,0,0,1,.54,0,1.5,1.5,0,0,1,.53.19.64.64,0,0,1,.34.42.41.41,0,0,1-.06.3.84.84,0,0,1-.38.33,1.73,1.73,0,0,1-.47.15,2,2,0,0,1-.42,0,1.85,1.85,0,0,1-.48-.07,1.26,1.26,0,0,1-.49-.25.55.55,0,0,1-.21-.37s0-.1,0-.15-.12-.18-.28-.19-.32.06-.34.17a.67.67,0,0,0,.11.54,1.07,1.07,0,0,0,.26.26Z"/><path class="cls-193" d="M156.93,118.68l.53.31a.43.43,0,0,0,.16.05c.22,0,.41-.06.4-.18a.17.17,0,0,0-.1-.12l-1.1-.64a.49.49,0,0,0-.47,0,.13.13,0,0,0,0,.23l.06,0Z"/><path class="cls-194" d="M164,187.16a.92.92,0,0,1-.41.71c-.23.13-.41,0-.41-.24a.9.9,0,0,1,.41-.71C163.76,186.79,164,186.9,164,187.16Z"/><path class="cls-195" d="M169.27,184.09a.92.92,0,0,1-.41.71c-.23.13-.42,0-.42-.24a.91.91,0,0,1,.42-.71C169.08,183.72,169.27,183.83,169.27,184.09Z"/><path class="cls-20" d="M174.59,181a.92.92,0,0,1-.41.71c-.23.13-.42,0-.42-.24a.91.91,0,0,1,.42-.71C174.4,180.65,174.59,180.75,174.59,181Z"/><path class="cls-196" d="M179.91,177.94a.93.93,0,0,1-.41.72c-.23.13-.42,0-.42-.24a.91.91,0,0,1,.42-.71C179.72,177.58,179.91,177.68,179.91,177.94Z"/><path class="cls-197" d="M185.23,174.87a.91.91,0,0,1-.41.71c-.23.14-.42,0-.42-.23a.91.91,0,0,1,.42-.71C185,174.5,185.23,174.61,185.23,174.87Z"/><path class="cls-20" d="M64.86,178.34c0,.72-.5,1-1.12.65a2.49,2.49,0,0,1-1.13-2c0-.72.5-1,1.13-.65A2.5,2.5,0,0,1,64.86,178.34Z"/><path class="cls-20" d="M69.68,181.12c0,.46-.33.65-.73.42a1.62,1.62,0,0,1-.73-1.27c0-.46.33-.65.73-.42A1.64,1.64,0,0,1,69.68,181.12Z"/><path class="cls-20" d="M106.06,202.12c0,.46-.33.65-.74.42a1.62,1.62,0,0,1-.73-1.26c0-.47.33-.66.73-.43A1.62,1.62,0,0,1,106.06,202.12Z"/><polygon class="cls-20" points="77.96 186.74 73.42 184.12 73.42 182.44 77.96 185.05 77.96 186.74"/><polygon class="cls-20" points="85.89 191.32 81.36 188.7 81.36 187.02 85.89 189.63 85.89 191.32"/><polygon class="cls-20" points="93.83 195.9 89.29 193.28 89.29 191.6 93.83 194.21 93.83 195.9"/></g><g id="flash_drive_2" data-name="flash drive_2"><path class="cls-6" d="M375.66,248.06c.46-.33.44-.81-.09-1.11L350,232.19l-8.43,4.86,17.14,9.9-2.05,1.18,9.37,5.41a3.21,3.21,0,0,0,1.6.38c.58,0,2.18,0,2.18,0l5.79-4A1,1,0,0,0,375.66,248.06Z"/><path class="cls-198" d="M343.05,237.29l25.56,14.76a2.27,2.27,0,0,0,2.06,0l6.37-3.67a.63.63,0,0,0,0-1.19l-34-11.27Z"/><path class="cls-199" d="M378.27,245.9v3a1.12,1.12,0,0,1-.66.92l-6.37,3.68a3.54,3.54,0,0,1-3.2,0l-9.37-5.41v-3Z"/><path class="cls-200" d="M343.05,235.92l25.56,14.76a2.27,2.27,0,0,0,2.06,0L377,247a.63.63,0,0,0,0-1.19l-25.57-14.76Z"/><path class="cls-201" d="M377.61,245a1,1,0,0,1,0,1.85l-6.37,3.67a3.54,3.54,0,0,1-3.2,0l-9.37-5.41,9.57-5.52Z"/><g class="cls-202"><path class="cls-203" d="M377.61,245a1,1,0,0,1,0,1.85l-6.37,3.67a3.54,3.54,0,0,1-3.2,0l-9.37-5.41,9.57-5.52Z"/></g><path class="cls-204" d="M347.06,237l3.2,1.85a1.77,1.77,0,0,0,1.58-.07h0c.47-.27.52-.68.12-.91l-3.2-1.85a1.79,1.79,0,0,0-1.59.07h0C346.71,236.4,346.66,236.81,347.06,237Z"/><path class="cls-205" d="M349.39,235.69l3.2,1.85a1.73,1.73,0,0,0,1.58-.06h0c.47-.27.52-.68.12-.92l-3.2-1.84a1.73,1.73,0,0,0-1.58.06h0C349,235.05,349,235.46,349.39,235.69Z"/><path class="cls-206" d="M351.72,234.35l3.2,1.85a1.79,1.79,0,0,0,1.59-.07h0c.46-.27.51-.68.11-.91l-3.2-1.85a1.77,1.77,0,0,0-1.58.06h0C351.37,233.71,351.32,234.11,351.72,234.35Z"/></g><g id="flash_drive_1" data-name="flash drive_1"><path class="cls-6" d="M382.81,202.29l-2.76-1.6a3.58,3.58,0,0,0-3.19,0l-6.37,3.68a1,1,0,0,0,0,1.85l9.37,5.41,2,0,.55-.4,15.21,8.78h1l7.43-6.24C405.62,213.56,390.5,205.91,382.81,202.29Z"/><path class="cls-207" d="M398.62,220.05l-25.56-14.76a.63.63,0,0,1,0-1.19l6.36-3.68c.57-.33,27.06,13.06,27.63,13.39v1.37Z"/><path class="cls-208" d="M382.05,199.9a3.52,3.52,0,0,0-3.19,0l-7,3v2.45a1.13,1.13,0,0,0,.66.92l9.37,5.41v-2.48Z"/><path class="cls-209" d="M398.62,218.67l-25.56-14.76a.63.63,0,0,1,0-1.19l6.36-3.67a2.27,2.27,0,0,1,2.06,0l25.57,14.76Z"/><path class="cls-210" d="M382.05,198.26a3.52,3.52,0,0,0-3.19,0l-6.37,3.67a1,1,0,0,0,0,1.85l9.37,5.41,9.57-5.52Z"/><g class="cls-211"><path class="cls-212" d="M382.05,198.26a3.52,3.52,0,0,0-3.19,0l-6.37,3.67a1,1,0,0,0,0,1.85l9.37,5.41,9.57-5.52Z"/></g><path class="cls-213" d="M396.68,216.36l-3.2-1.85c-.41-.24-.36-.64.11-.91h0a1.77,1.77,0,0,1,1.58-.07l3.2,1.85c.41.23.36.64-.11.91h0A1.77,1.77,0,0,1,396.68,216.36Z"/><path class="cls-214" d="M399,215l-3.2-1.85c-.41-.23-.36-.64.11-.91h0a1.77,1.77,0,0,1,1.58-.07l3.21,1.85c.4.24.35.64-.12.91h0A1.74,1.74,0,0,1,399,215Z"/><path class="cls-215" d="M401.34,213.66l-3.2-1.84c-.4-.24-.35-.65.11-.92h0a1.76,1.76,0,0,1,1.59-.06l3.2,1.85c.4.23.35.64-.12.91h0A1.74,1.74,0,0,1,401.34,213.66Z"/><polygon class="cls-216" points="381.86 211.67 382.99 211.02 383 209.65 391.43 204.79 391.43 203.67 381.86 209.19 381.86 211.67"/></g></g></g></svg>