<svg xmlns="http://www.w3.org/2000/svg" xmlns:xlink="http://www.w3.org/1999/xlink" viewBox="0 0 133.35 141.31"><defs><style>.cls-1{isolation:isolate;}.cls-2{fill:#0f012d;mix-blend-mode:multiply;}.cls-3{fill:url(#linear-gradient);}.cls-4{fill:url(#linear-gradient-2);}.cls-5{fill:url(#linear-gradient-3);}.cls-6{fill:url(#linear-gradient-4);}.cls-7{fill:url(#linear-gradient-5);}.cls-8{fill:url(#linear-gradient-6);}.cls-9{fill:url(#linear-gradient-7);}.cls-10{fill:url(#linear-gradient-8);}.cls-11{fill:url(#linear-gradient-9);}.cls-12{fill:url(#linear-gradient-10);}.cls-13{fill:url(#linear-gradient-11);}.cls-14{fill:url(#linear-gradient-12);}.cls-15{fill:url(#linear-gradient-13);}.cls-16{fill:url(#linear-gradient-14);}.cls-17{fill:url(#linear-gradient-15);}.cls-18{fill:url(#linear-gradient-16);}.cls-19{fill:url(#linear-gradient-17);}.cls-20{fill:url(#linear-gradient-18);}.cls-21{fill:url(#linear-gradient-19);}.cls-22{fill:url(#linear-gradient-20);}.cls-23{fill:url(#linear-gradient-21);}.cls-24{fill:url(#linear-gradient-22);}.cls-25{fill:url(#linear-gradient-23);}.cls-26{fill:url(#linear-gradient-24);}.cls-27{fill:url(#linear-gradient-25);}.cls-28{fill:url(#linear-gradient-26);}.cls-29{fill:url(#linear-gradient-27);}.cls-30{fill:url(#linear-gradient-28);}.cls-31{fill:url(#linear-gradient-29);}.cls-32{fill:url(#linear-gradient-30);}.cls-33{fill:url(#linear-gradient-31);}.cls-34{fill:url(#linear-gradient-32);}.cls-35{fill:url(#linear-gradient-33);}.cls-36{fill:url(#linear-gradient-34);}.cls-37{fill:url(#linear-gradient-35);}</style><linearGradient id="linear-gradient" x1="111.65" y1="338.88" x2="111.65" y2="345.36" gradientTransform="matrix(0.87, -0.5, 0, 1.15, -63.75, -238.45)" gradientUnits="userSpaceOnUse"><stop offset="0" stop-color="#420091"/><stop offset="0.44" stop-color="#49008e"/><stop offset="1" stop-color="#590086"/></linearGradient><linearGradient id="linear-gradient-2" x1="30.79" y1="33.68" x2="30.79" y2="107.54" gradientUnits="userSpaceOnUse"><stop offset="0" stop-color="#42007f"/><stop offset="0.46" stop-color="#470078"/><stop offset="1" stop-color="#52006a"/></linearGradient><linearGradient id="linear-gradient-3" x1="32.76" y1="491.65" x2="32.76" y2="889.99" gradientTransform="matrix(1, 0, 0, -0.15, 0, 170.29)" xlink:href="#linear-gradient"/><linearGradient id="linear-gradient-4" x1="109.57" y1="-192.81" x2="104.85" y2="-186.66" gradientTransform="matrix(0.87, 0.5, 0, 1.15, -61.61, 201.73)" gradientUnits="userSpaceOnUse"><stop offset="0" stop-color="#4600b5"/><stop offset="0.45" stop-color="#5b00be"/><stop offset="1" stop-color="#7a00cc"/></linearGradient><linearGradient id="linear-gradient-5" x1="140.98" y1="338.83" x2="140.98" y2="345.31" xlink:href="#linear-gradient"/><linearGradient id="linear-gradient-6" x1="56.19" y1="18.95" x2="56.19" y2="92.82" xlink:href="#linear-gradient-2"/><linearGradient id="linear-gradient-7" x1="58.16" y1="591.19" x2="58.16" y2="989.54" gradientTransform="matrix(1, 0, 0, -0.15, 0, 170.29)" xlink:href="#linear-gradient"/><linearGradient id="linear-gradient-8" x1="138.9" y1="-218.26" x2="134.18" y2="-212.11" xlink:href="#linear-gradient-4"/><linearGradient id="linear-gradient-9" x1="170.33" y1="338.89" x2="170.33" y2="345.36" xlink:href="#linear-gradient"/><linearGradient id="linear-gradient-10" x1="81.61" y1="4.34" x2="81.61" y2="78.2" xlink:href="#linear-gradient-2"/><linearGradient id="linear-gradient-11" x1="83.58" y1="690.01" x2="83.58" y2="1088.35" gradientTransform="matrix(1, 0, 0, -0.15, 0, 170.29)" xlink:href="#linear-gradient"/><linearGradient id="linear-gradient-12" x1="168.25" y1="-243.62" x2="163.53" y2="-237.47" xlink:href="#linear-gradient-4"/><linearGradient id="linear-gradient-13" x1="28.58" y1="109.83" x2="77.29" y2="140.92" gradientUnits="userSpaceOnUse"><stop offset="0" stop-color="#4600b5"/><stop offset="0.21" stop-color="#4900b7"/><stop offset="0.4" stop-color="#5400bb"/><stop offset="0.57" stop-color="#6600c3"/><stop offset="0.74" stop-color="#7f00ce"/><stop offset="0.91" stop-color="#a000dc"/><stop offset="1" stop-color="#b600e6"/></linearGradient><linearGradient id="linear-gradient-14" x1="186.5" y1="383.38" x2="155.16" y2="419.11" gradientTransform="matrix(0.87, -0.5, 0, 1.15, -70.46, -272.79)" gradientUnits="userSpaceOnUse"><stop offset="0" stop-color="#89b2ff"/><stop offset="0.07" stop-color="#86a5ff"/><stop offset="0.35" stop-color="#7b76ff"/><stop offset="0.57" stop-color="#7459ff"/><stop offset="0.69" stop-color="#714eff"/><stop offset="1" stop-color="#8980ff"/></linearGradient><linearGradient id="linear-gradient-15" x1="205.85" y1="406.7" x2="186.85" y2="439.62" gradientTransform="matrix(0.87, -0.5, 0, 1.15, -70.46, -272.79)" gradientUnits="userSpaceOnUse"><stop offset="0" stop-color="#89e4ff"/><stop offset="0.24" stop-color="#7fa6ff"/><stop offset="0.44" stop-color="#7776ff"/><stop offset="0.6" stop-color="#7359ff"/><stop offset="0.69" stop-color="#714eff"/><stop offset="1" stop-color="#89a3ff"/></linearGradient><linearGradient id="linear-gradient-16" x1="205.3" y1="407.84" x2="187.27" y2="439.07" gradientTransform="matrix(0.87, -0.5, 0, 1.15, -70.46, -272.79)" gradientUnits="userSpaceOnUse"><stop offset="0" stop-color="#420091"/><stop offset="0.31" stop-color="#45008a"/><stop offset="0.74" stop-color="#4c0078"/><stop offset="1" stop-color="#52006a"/></linearGradient><linearGradient id="linear-gradient-17" x1="199.18" y1="357.75" x2="197.84" y2="360.08" gradientTransform="matrix(0.87, -0.5, 0, 1.15, -47.97, -209.92)" gradientUnits="userSpaceOnUse"><stop offset="0" stop-color="#00dfff"/><stop offset="0.65" stop-color="#00baff"/><stop offset="1" stop-color="#00acff"/></linearGradient><linearGradient id="linear-gradient-18" x1="198.85" y1="358.33" x2="198.17" y2="359.5" gradientTransform="matrix(0.87, -0.5, 0, 1.15, -47.97, -209.92)" xlink:href="#linear-gradient-16"/><linearGradient id="linear-gradient-19" x1="194.61" y1="357.75" x2="193.27" y2="360.08" xlink:href="#linear-gradient-17"/><linearGradient id="linear-gradient-20" x1="194.28" y1="358.33" x2="193.6" y2="359.5" gradientTransform="matrix(0.87, -0.5, 0, 1.15, -47.97, -209.92)" xlink:href="#linear-gradient-16"/><linearGradient id="linear-gradient-21" x1="190.04" y1="357.75" x2="188.7" y2="360.08" xlink:href="#linear-gradient-17"/><linearGradient id="linear-gradient-22" x1="189.71" y1="358.33" x2="189.03" y2="359.5" gradientTransform="matrix(0.87, -0.5, 0, 1.15, -47.97, -209.92)" xlink:href="#linear-gradient-16"/><linearGradient id="linear-gradient-23" x1="185.47" y1="357.75" x2="184.13" y2="360.08" xlink:href="#linear-gradient-17"/><linearGradient id="linear-gradient-24" x1="185.14" y1="358.33" x2="184.46" y2="359.5" gradientTransform="matrix(0.87, -0.5, 0, 1.15, -47.97, -209.92)" xlink:href="#linear-gradient-16"/><linearGradient id="linear-gradient-25" x1="180.9" y1="357.75" x2="179.56" y2="360.08" xlink:href="#linear-gradient-17"/><linearGradient id="linear-gradient-26" x1="180.57" y1="358.33" x2="179.89" y2="359.5" gradientTransform="matrix(0.87, -0.5, 0, 1.15, -47.97, -209.92)" xlink:href="#linear-gradient-16"/><linearGradient id="linear-gradient-27" x1="176.33" y1="357.75" x2="174.99" y2="360.08" xlink:href="#linear-gradient-17"/><linearGradient id="linear-gradient-28" x1="176" y1="358.33" x2="175.32" y2="359.5" gradientTransform="matrix(0.87, -0.5, 0, 1.15, -47.97, -209.92)" xlink:href="#linear-gradient-16"/><linearGradient id="linear-gradient-29" x1="171.76" y1="357.75" x2="170.42" y2="360.08" xlink:href="#linear-gradient-17"/><linearGradient id="linear-gradient-30" x1="171.43" y1="358.33" x2="170.75" y2="359.5" gradientTransform="matrix(0.87, -0.5, 0, 1.15, -47.97, -209.92)" xlink:href="#linear-gradient-16"/><linearGradient id="linear-gradient-31" x1="146.41" y1="358.15" x2="151.75" y2="358.15" xlink:href="#linear-gradient-17"/><linearGradient id="linear-gradient-32" x1="147.42" y1="359.21" x2="150.74" y2="359.21" xlink:href="#linear-gradient-17"/><linearGradient id="linear-gradient-33" x1="148.44" y1="360.25" x2="149.74" y2="360.25" xlink:href="#linear-gradient-17"/><linearGradient id="linear-gradient-34" x1="141.44" y1="359.16" x2="144.96" y2="359.16" xlink:href="#linear-gradient-17"/><linearGradient id="linear-gradient-35" x1="142.91" y1="358.15" x2="143.49" y2="358.15" xlink:href="#linear-gradient-17"/></defs><g class="cls-1"><g id="equipment"><g id="router_1"><path class="cls-2" d="M80.42,76.33a17.61,17.61,0,0,0-1.87.68L60.23,66.51s-.93-.54-2.57.41S57,68.4,57,68.4L74.85,78.66c-4.4,2.07-11.95,5.94-24.39,13.08L33.43,82s-.94-.53-2.57.41-.71,1.49-.71,1.49l17,9.76c-12.37,7.18-19.07,11.54-22.66,14.08L6.62,97.46s-.93-.54-2.57.41-.7,1.48-.7,1.48l18.32,10.5a8.52,8.52,0,0,0-1.19,1.08l46.2,26.88h6.58l51-36.13Z"/><polygon class="cls-3" points="34.05 103.87 31.83 105.15 32.35 97.37 33.53 96.69 34.05 103.87"/><path class="cls-4" d="M32.35,97.57l-.52,7.58-3.77,2.39,1.25-11.65s-1.25-60.68-1.25-61.15c0-.62.77-1.06.77-1.06l4.49,5,.21.6-1.18.68Z"/><polygon class="cls-5" points="32.35 39.94 31.99 39.45 33.32 38.66 33.53 39.26 33.53 96.89 32.35 97.57 32.35 39.94"/><path class="cls-6" d="M28.83,33.68l1.29-.74a.8.8,0,0,1,1.15.44l2.05,5.28a.79.79,0,0,1-1.39.71l-3.34-4.54A.78.78,0,0,1,28.83,33.68Z"/><polygon class="cls-7" points="59.45 89.15 57.23 90.43 57.75 82.65 58.92 81.97 59.45 89.15"/><path class="cls-8" d="M57.75,82.85l-.52,7.58-3.77,2.39,1.25-11.65S53.46,20.49,53.46,20s.77-1.06.77-1.06l4.49,5,.21.61-1.18.68Z"/><polygon class="cls-9" points="57.75 25.22 57.39 24.73 58.72 23.93 58.92 24.54 58.92 82.17 57.75 82.85 57.75 25.22"/><path class="cls-10" d="M54.23,19l1.29-.74a.79.79,0,0,1,1.14.45l2.06,5.27a.79.79,0,0,1-1.39.72L54,20.11A.8.8,0,0,1,54.23,19Z"/><polygon class="cls-11" points="84.86 74.54 82.65 75.81 83.17 68.04 84.34 67.36 84.86 74.54"/><path class="cls-12" d="M83.17,68.23l-.52,7.58L78.88,78.2l1.25-11.64S78.88,5.87,78.88,5.4s.77-1.06.77-1.06l4.48,5,.21.6-1.17.69Z"/><polygon class="cls-13" points="83.17 10.61 82.81 10.11 84.13 9.32 84.34 9.92 84.34 67.56 83.17 68.23 83.17 10.61"/><path class="cls-14" d="M79.65,4.34l1.28-.74A.79.79,0,0,1,82.08,4l2,5.28a.79.79,0,0,1-1.39.71L79.41,5.5A.79.79,0,0,1,79.65,4.34Z"/><path class="cls-15" d="M26.46,108.26h0s0,3,1.76,4.12h0l.1,0,.1.06,43,24.87-1.76-4.13S26.48,108.24,26.46,108.26Z"/><path class="cls-16" d="M130.27,98.22l-60.65,35-43.16-25s9.45-6.73,30.33-18.79S87.12,73.24,87.12,73.24Z"/><path class="cls-17" d="M123.45,109.51l-47,27.14c-6.81,3.94-6.81-3.41-6.81-3.41s9.45-6.73,30.32-18.78,30.33-16.24,30.33-16.24A13.85,13.85,0,0,1,123.45,109.51Z"/><path class="cls-18" d="M73,136.91c-1.91,0-2.33-2.23-2.42-3.22,2-1.39,11.61-7.92,29.85-18.45,16.13-9.32,25.49-13.95,28.83-15.54a12.7,12.7,0,0,1-6.22,9L76,135.87A6.48,6.48,0,0,1,73,136.91Z"/><path class="cls-19" d="M125.24,104.52a2.85,2.85,0,0,1-1.3,2.24c-.71.41-1.29.08-1.29-.75a2.87,2.87,0,0,1,1.29-2.24C124.66,103.36,125.24,103.69,125.24,104.52Z"/><path class="cls-20" d="M123.47,106a2.08,2.08,0,0,1,.89-1.53l0,0v.06a2.06,2.06,0,0,1-.88,1.53l0,0A.35.35,0,0,1,123.47,106Z"/><path class="cls-21" d="M121.28,106.8a2.89,2.89,0,0,1-1.29,2.25c-.72.41-1.3.07-1.3-.75a2.87,2.87,0,0,1,1.3-2.25C120.7,105.64,121.28,106,121.28,106.8Z"/><path class="cls-22" d="M119.52,108.3a2,2,0,0,1,.88-1.53l0,0a.13.13,0,0,1,0,.06,2,2,0,0,1-.89,1.53l0,0Z"/><path class="cls-23" d="M117.32,109.09a2.87,2.87,0,0,1-1.29,2.24c-.72.41-1.3.08-1.3-.75a2.85,2.85,0,0,1,1.3-2.24C116.74,107.93,117.32,108.26,117.32,109.09Z"/><path class="cls-24" d="M115.56,110.58a2.06,2.06,0,0,1,.88-1.53l.06,0v.07a2.06,2.06,0,0,1-.88,1.53l-.06,0Z"/><path class="cls-25" d="M113.37,111.37a2.87,2.87,0,0,1-1.3,2.25c-.71.41-1.29.07-1.29-.75a2.89,2.89,0,0,1,1.29-2.25C112.79,110.21,113.37,110.55,113.37,111.37Z"/><path class="cls-26" d="M111.6,112.87a2,2,0,0,1,.88-1.53l.06,0v.06a2,2,0,0,1-.88,1.53l-.06,0Z"/><path class="cls-27" d="M109.41,113.66a2.85,2.85,0,0,1-1.3,2.24c-.71.41-1.29.08-1.29-.75a2.87,2.87,0,0,1,1.29-2.24C108.83,112.5,109.41,112.83,109.41,113.66Z"/><path class="cls-28" d="M107.64,115.15a2,2,0,0,1,.89-1.53l0,0v.06a2.06,2.06,0,0,1-.88,1.53l0,0S107.64,115.18,107.64,115.15Z"/><path class="cls-29" d="M105.45,115.94a2.89,2.89,0,0,1-1.29,2.25c-.72.41-1.3.07-1.3-.75a2.87,2.87,0,0,1,1.3-2.25C104.87,114.78,105.45,115.12,105.45,115.94Z"/><path class="cls-30" d="M103.69,117.44a2,2,0,0,1,.88-1.53l.05,0s0,0,0,.06a2.06,2.06,0,0,1-.89,1.53l0,0Z"/><path class="cls-31" d="M101.49,118.23a2.87,2.87,0,0,1-1.29,2.24c-.72.41-1.3.08-1.3-.75a2.85,2.85,0,0,1,1.3-2.24C100.91,117.07,101.49,117.4,101.49,118.23Z"/><path class="cls-32" d="M99.73,119.72a2.06,2.06,0,0,1,.88-1.53l.06,0v.06a2.06,2.06,0,0,1-.88,1.53l-.06,0Z"/><path class="cls-33" d="M79.39,131l-.56-.32c1.23-2.18,3.38-3.44,4.62-2.68l-.57,1Q81.14,128.35,79.39,131Z"/><path class="cls-34" d="M82.58,129.5l-.57,1c-.58-.2-1.16.14-1.74,1l-.57-.33C80.42,129.84,81.83,129,82.58,129.5Z"/><path class="cls-35" d="M81.71,131l-.56,1-.56-.33C80.82,131.15,81.39,130.82,81.71,131Z"/><path class="cls-36" d="M77.57,132.15a3.19,3.19,0,0,1-.35,1.35,3.35,3.35,0,0,1-.63.88,2.23,2.23,0,0,1-.73.53,1,1,0,0,1-.78.06.76.76,0,0,1-.45-.46,1.55,1.55,0,0,1-.1-.74,3.14,3.14,0,0,1,.35-1.16,3.35,3.35,0,0,1,.27-.45c.09-.12.18-.17.27-.16s.13.09.12.22a.62.62,0,0,1-.11.27,2.48,2.48,0,0,0-.29.56,1.82,1.82,0,0,0-.11.63.75.75,0,0,0,.23.57.53.53,0,0,0,.32.12,1,1,0,0,0,.55-.19,1.87,1.87,0,0,0,.41-.39,2.7,2.7,0,0,0,.27-.39,3.07,3.07,0,0,0,.2-.52,1.37,1.37,0,0,0,0-.63.6.6,0,0,0-.25-.41l-.16-.08c-.09,0-.1-.22,0-.39s.24-.28.37-.24a.79.79,0,0,1,.46.42,1,1,0,0,1,.11.4C77.56,132,77.57,132.11,77.57,132.15Z"/><path class="cls-37" d="M76.3,131.89v.71a.46.46,0,0,1,0,.19c-.09.22-.29.36-.4.28a.18.18,0,0,1-.07-.17v-1.44a.57.57,0,0,1,.29-.47.15.15,0,0,1,.22.14v.76Z"/></g></g></g></svg>