<svg xmlns="http://www.w3.org/2000/svg" xmlns:xlink="http://www.w3.org/1999/xlink" viewBox="0 0 256.15 348.7"><defs><style>.cls-1{fill:none;}.cls-2{fill:#fff;}.cls-3{isolation:isolate;}.cls-4{clip-path:url(#clip-path);}.cls-5{fill:url(#Degradado_sin_nombre_4);}.cls-6,.cls-9{mix-blend-mode:overlay;opacity:0.31;}.cls-6{fill:url(#Unnamed_Pattern_4);}.cls-7{fill:url(#Degradado_sin_nombre_152);}.cls-8{fill:url(#Degradado_sin_nombre_4-2);}.cls-9{fill:url(#Unnamed_Pattern_4-3);}.cls-10{fill:url(#Degradado_sin_nombre_3);}.cls-11{fill:url(#Degradado_sin_nombre_152-2);}.cls-12{fill:url(#Degradado_sin_nombre_2);}.cls-13{fill:url(#Degradado_sin_nombre_2-2);}.cls-14{fill:url(#Degradado_sin_nombre_2-3);}</style><clipPath id="clip-path"><rect class="cls-1" x="92.25" y="-1108.12" width="742.88" height="1361.77" transform="translate(36.45 -890.92) rotate(90)"/></clipPath><radialGradient id="Degradado_sin_nombre_4" cx="-930.04" cy="-186.21" r="226.18" gradientTransform="matrix(-0.82, -0.57, -0.37, 0.54, -756.93, -614.7)" gradientUnits="userSpaceOnUse"><stop offset="0" stop-color="#650bd9"/><stop offset="0.35" stop-color="#5107b0"/><stop offset="0.78" stop-color="#3b0483"/><stop offset="1" stop-color="#320271"/></radialGradient><pattern id="Unnamed_Pattern_4" data-name="Unnamed Pattern 4" width="7.83" height="10" patternTransform="matrix(1.11, -0.01, -0.01, -1.11, 60.31, 1027.52)" patternUnits="userSpaceOnUse" viewBox="0 0 7.83 10"><rect class="cls-1" width="7.83" height="10"/><circle class="cls-2" cx="5.42" cy="11" r="1.5"/><circle class="cls-2" cx="1.5" cy="6" r="1.5"/><circle class="cls-2" cx="5.42" cy="1" r="1.5"/></pattern><linearGradient id="Degradado_sin_nombre_152" x1="-803.68" y1="-108.39" x2="-690.95" y2="22.7" gradientTransform="matrix(-1, 0, 0, 1, -852.48, 0)" gradientUnits="userSpaceOnUse"><stop offset="0" stop-color="#00cef5"/><stop offset="0.07" stop-color="#05bdf3"/><stop offset="0.28" stop-color="#1293ed"/><stop offset="0.48" stop-color="#1c72e8"/><stop offset="0.67" stop-color="#235ae5"/><stop offset="0.85" stop-color="#284ce3"/><stop offset="1" stop-color="#2947e2"/></linearGradient><radialGradient id="Degradado_sin_nombre_4-2" cx="219.93" cy="-2032.23" r="167.24" gradientTransform="translate(1334.02 -361.78) rotate(-124.68) scale(1 0.66)" xlink:href="#Degradado_sin_nombre_4"/><pattern id="Unnamed_Pattern_4-3" data-name="Unnamed Pattern 4" width="7.83" height="10" patternTransform="matrix(-0.01, 0.82, -0.82, -0.01, 736.34, -30.25)" patternUnits="userSpaceOnUse" viewBox="0 0 7.83 10"><rect class="cls-1" width="7.83" height="10"/><circle class="cls-2" cx="5.42" cy="11" r="1.5"/><circle class="cls-2" cx="1.5" cy="6" r="1.5"/><circle class="cls-2" cx="5.42" cy="1" r="1.5"/></pattern><linearGradient id="Degradado_sin_nombre_3" x1="282.81" y1="-2019.39" x2="346.11" y2="-1937.19" gradientTransform="translate(2141.95 437.87) rotate(-90)" gradientUnits="userSpaceOnUse"><stop offset="0" stop-color="#650bd9"/><stop offset="1" stop-color="#320271"/></linearGradient><linearGradient id="Degradado_sin_nombre_152-2" x1="313.36" y1="-1974.69" x2="396.72" y2="-1877.77" gradientTransform="translate(2141.95 437.87) rotate(-90)" xlink:href="#Degradado_sin_nombre_152"/><linearGradient id="Degradado_sin_nombre_2" x1="365.79" y1="-1951.06" x2="449.15" y2="-1854.13" gradientTransform="translate(2141.95 437.87) rotate(-90)" gradientUnits="userSpaceOnUse"><stop offset="0" stop-color="#00cef5"/><stop offset="0.13" stop-color="#12b9f7"/><stop offset="0.37" stop-color="#2e98f9"/><stop offset="0.6" stop-color="#4380fb"/><stop offset="0.82" stop-color="#4f72fd"/><stop offset="1" stop-color="#536dfd"/></linearGradient><linearGradient id="Degradado_sin_nombre_2-2" x1="311.85" y1="-1967.34" x2="311.85" y2="-1954.31" xlink:href="#Degradado_sin_nombre_2"/><linearGradient id="Degradado_sin_nombre_2-3" x1="188.54" y1="-1945.8" x2="188.54" y2="-1929.04" gradientTransform="translate(327.65 2194.09) rotate(-9.24)" xlink:href="#Degradado_sin_nombre_2"/></defs><g class="cls-3"><g id="equipment"><g class="cls-4"><path class="cls-5" d="M-212.38-334.59c2.87,16.11,9.64,31.41,21,43,21.52,22,54.4,27,84.58,32.93s63.22,16.47,77.87,43.52c14.9,27.51,5.44,63,18.94,91.25C3.28-96.15,35.25-82.59,65.56-77.62s61.79,3.86,91,13.36C207.47-47.7,201.82-11.5,254.4,5.23H-217.2V-334.59Z"/><path class="cls-6" d="M-217.2,10.75V-244c21.28,16.86,50.61,21.44,77.75,26.8,30.18,6,63.22,16.47,77.87,43.52,14.9,27.51,5.45,63,18.95,91.25C-29.38-54.72,2.58-41.16,32.89-36.19s50.79,4.95,80,14.45C137.64-13.69,149-1,160.22,11.84Z"/><path class="cls-7" d="M-217.2,10.75V-194.34a105.24,105.24,0,0,0,43.46,14.93c18.71,2,38.75-.73,56.64,5.1s31.41,18.92,36.88,36.93c7.19,23.68-3.33,50.57,7.93,72.61,9.13,17.89,31.34,24.55,51.38,25.87s41-.76,59.47,7C52.08-26.27,63-15.9,73.42-5.63,79.12,0,84.86,5.69,91.05,10.75Z"/></g><path class="cls-8" d="M0,3.56C11.91,5.69,23.23,10.69,31.82,19.1,48.07,35,51.76,59.33,56.17,81.64s12.17,46.75,32.17,57.58c20.35,11,46.6,4,67.47,14,20.49,9.8,30.52,33.43,34.2,55.84s2.85,45.69,9.87,67.29c12.25,37.64,39,33.46,51.38,72.34V0H0Z"/><path class="cls-9" d="M255.34,0H67C79.45,15.74,82.84,37.42,86.8,57.49,91.2,79.8,99,104.23,119,115.07c20.34,11,46.6,4,67.47,14,20.49,9.8,30.51,33.44,34.19,55.85s3.66,37.55,10.68,59.15c6,18.3,15.34,26.71,24.83,35Z"/><path class="cls-10" d="M36.9,0l.42,2.11c4.4,22.32,12.17,46.75,32.17,57.58,20.35,11,46.6,4,67.47,14,20.49,9.8,40.23,25.79,43.91,48.2s-7.62,53.22-.59,74.81c12.24,37.65,51.84,43,66.57,83.66L236,0Z"/><path class="cls-11" d="M255.34,0H103.7a77.69,77.69,0,0,1,11,32.14C116.26,46,114.2,60.78,118.51,74s14,23.23,27.31,27.27c17.51,5.32,37.39-2.46,53.69,5.86,13.22,6.76,18.15,23.18,19.12,38s-.56,30.28,5.16,44c4.18,10,11.85,18.06,19.45,25.77,4.15,4.22,8.36,8.47,12.1,13Z"/><path class="cls-12" d="M255.34,0H122c4.69,12,13.44,23,25.68,26.7C165.21,32,185.56,21.65,201.87,30,215.09,36.72,220,53.15,221,68s-.56,30.28,5.16,44c4.18,10,11.85,18.06,19.44,25.77,3.3,3.35,6.64,6.72,9.75,10.26Z"/><path class="cls-13" d="M179.39,120.13A5.89,5.89,0,1,1,173.5,126,5.9,5.9,0,0,1,179.39,120.13Z"/><circle class="cls-14" cx="202.3" cy="249.34" r="7.58" transform="translate(-76.28 408.98) rotate(-80.76)"/></g></g></svg>