<svg xmlns="http://www.w3.org/2000/svg" xmlns:xlink="http://www.w3.org/1999/xlink" viewBox="0 0 160.88 264.02"><defs><style>.cls-1,.cls-12{fill:none;}.cls-2{fill:#fff;}.cls-3{isolation:isolate;}.cls-4{clip-path:url(#clip-path);}.cls-5{fill:url(#Degradado_sin_nombre_4);}.cls-6{mix-blend-mode:overlay;opacity:0.31;fill:url(#Unnamed_Pattern_4);}.cls-7{fill:url(#Degradado_sin_nombre_152);}.cls-8{fill:url(#Degradado_sin_nombre_2);}.cls-9{fill:url(#Degradado_sin_nombre_5);}.cls-10{fill:url(#Degradado_sin_nombre_3);}.cls-11{fill:url(#Degradado_sin_nombre_152-2);}.cls-12{stroke-miterlimit:10;stroke-width:0.66px;stroke:url(#Degradado_sin_nombre_144);}.cls-13{fill:url(#Degradado_sin_nombre_2-2);}.cls-14{fill:url(#Degradado_sin_nombre_2-3);}</style><clipPath id="clip-path"><rect class="cls-1" x="309.45" y="-1111.74" width="742.88" height="1361.77" transform="translate(250.02 -1111.74) rotate(90)"/></clipPath><radialGradient id="Degradado_sin_nombre_4" cx="-712.85" cy="-189.83" r="226.18" gradientTransform="matrix(-0.82, -0.57, -0.37, 0.54, -362.48, -492.78)" gradientUnits="userSpaceOnUse"><stop offset="0" stop-color="#650bd9"/><stop offset="0.35" stop-color="#5107b0"/><stop offset="0.78" stop-color="#3b0483"/><stop offset="1" stop-color="#320271"/></radialGradient><pattern id="Unnamed_Pattern_4" data-name="Unnamed Pattern 4" width="7.83" height="10" patternTransform="matrix(1.11, -0.01, -0.01, -1.11, 60.31, 1027.52)" patternUnits="userSpaceOnUse" viewBox="0 0 7.83 10"><rect class="cls-1" width="7.83" height="10"/><circle class="cls-2" cx="5.42" cy="11" r="1.5"/><circle class="cls-2" cx="1.5" cy="6" r="1.5"/><circle class="cls-2" cx="5.42" cy="1" r="1.5"/></pattern><linearGradient id="Degradado_sin_nombre_152" x1="-586.48" y1="-112.01" x2="-473.75" y2="19.07" gradientTransform="matrix(-1, 0, 0, 1, -418.09, 0)" gradientUnits="userSpaceOnUse"><stop offset="0" stop-color="#00cef5"/><stop offset="0.07" stop-color="#05bdf3"/><stop offset="0.28" stop-color="#1293ed"/><stop offset="0.48" stop-color="#1c72e8"/><stop offset="0.67" stop-color="#235ae5"/><stop offset="0.85" stop-color="#284ce3"/><stop offset="1" stop-color="#2947e2"/></linearGradient><linearGradient id="Degradado_sin_nombre_2" x1="-515.58" y1="-80.05" x2="-402.84" y2="51.04" gradientTransform="matrix(-1, 0, 0, 1, -418.09, 0)" gradientUnits="userSpaceOnUse"><stop offset="0" stop-color="#00cef5"/><stop offset="0.13" stop-color="#12b9f7"/><stop offset="0.37" stop-color="#2e98f9"/><stop offset="0.6" stop-color="#4380fb"/><stop offset="0.82" stop-color="#4f72fd"/><stop offset="1" stop-color="#536dfd"/></linearGradient><radialGradient id="Degradado_sin_nombre_5" cx="388.17" cy="90.37" r="136.27" gradientTransform="matrix(-0.46, -0.89, -0.46, 0.24, 334.84, 460.96)" gradientUnits="userSpaceOnUse"><stop offset="0" stop-color="#650bd9"/><stop offset="0.35" stop-color="#5107b0"/><stop offset="0.78" stop-color="#3b0483"/><stop offset="1" stop-color="#320271"/></radialGradient><linearGradient id="Degradado_sin_nombre_3" x1="395.28" y1="131.89" x2="369.28" y2="194.41" gradientTransform="matrix(0, -1, -1, 0, 204.53, 526.43)" gradientUnits="userSpaceOnUse"><stop offset="0" stop-color="#650bd9"/><stop offset="1" stop-color="#320271"/></linearGradient><linearGradient id="Degradado_sin_nombre_152-2" x1="382.8" y1="140.81" x2="351.22" y2="219.93" gradientTransform="matrix(0, -1, -1, 0, 204.53, 526.43)" xlink:href="#Degradado_sin_nombre_152"/><linearGradient id="Degradado_sin_nombre_144" x1="262.41" y1="160.08" x2="526.43" y2="160.08" gradientTransform="matrix(0, -1, -1, 0, 204.53, 526.43)" gradientUnits="userSpaceOnUse"><stop offset="0" stop-color="#536dfd"/><stop offset="0.58" stop-color="#00cef5"/><stop offset="0.64" stop-color="#12b9f7"/><stop offset="0.74" stop-color="#2e98f9"/><stop offset="0.83" stop-color="#4380fb"/><stop offset="0.92" stop-color="#4f72fd"/><stop offset="1" stop-color="#536dfd"/></linearGradient><linearGradient id="Degradado_sin_nombre_2-2" x1="322.58" y1="190.4" x2="291" y2="269.52" gradientTransform="matrix(0, -1, -1, 0, 204.53, 526.43)" xlink:href="#Degradado_sin_nombre_2"/><linearGradient id="Degradado_sin_nombre_2-3" x1="364.13" y1="132.26" x2="364.13" y2="142.07" gradientTransform="matrix(0, -1, -1, 0, 204.53, 526.43)" xlink:href="#Degradado_sin_nombre_2"/></defs><g class="cls-3"><g id="equipment"><g class="cls-4"><path class="cls-5" d="M4.82-338.22c2.87,16.11,9.64,31.41,21,43,21.52,22,54.41,27,84.59,32.93s63.22,16.47,77.87,43.52c14.89,27.52,5.44,63,18.94,91.25,13.25,27.71,45.22,41.27,75.52,46.25s61.8,3.85,91,13.35C424.67-51.33,419-15.13,471.6,1.6H0V-338.22Z"/><path class="cls-6" d="M0,7.12V-247.63c21.28,16.86,50.61,21.45,77.75,26.8,30.18,6,63.22,16.47,77.87,43.52,14.9,27.52,5.45,63,18.95,91.25,13.25,27.71,45.21,41.27,75.52,46.25s50.79,4.94,80,14.44c24.75,8.05,36.13,20.74,47.33,33.58Z"/><path class="cls-7" d="M0,7.12V-198A105.17,105.17,0,0,0,43.46-183c18.71,2,38.75-.73,56.64,5.11S131.51-159,137-141c7.19,23.69-3.34,50.57,7.92,72.62,9.14,17.88,31.35,24.55,51.38,25.86s41-.76,59.48,7c13.52,5.65,24.42,16,34.86,26.3,5.7,5.61,11.44,11.31,17.63,16.37Z"/><path class="cls-8" d="M0,7.12V-173.2c16.27,6.33,31.08,18.16,36.11,34.73,7.2,23.68-6.84,51.22,4.42,73.26,9.14,17.89,31.35,24.55,51.38,25.87s41-.76,59.48,7c13.52,5.65,24.42,16,34.86,26.29,4.53,4.46,9.08,9,13.87,13.19Z"/></g><path class="cls-9" d="M0,12.65c4.29,7.06,10.61,13.23,17,18.63,10.61,9,22.41,17.66,28,30.39,6.69,15.17,3.17,32.61.88,49S43.38,145.81,54.67,158c17.76,19.11,52,10.18,72.18,26.73,12.52,10.27,16.22,27.52,20,43.28,2.73,11.56,6.58,23.9,14.08,32.65H0Z"/><path class="cls-10" d="M0,61.22C.09,38.59.14,23.39.14,23.39,34.28,30,22.2,82.67,32.5,96.64c6.64,9,17.44,12.47,26.37,17.32S76.53,125.2,81.1,134.59c5.49,11.3,4,24.92.84,37.17S74.7,198,74.06,210.66c-1,19.66,10.37,36.35,26.26,46.88,0,0-91.21.13-100.32-.84Z"/><path class="cls-11" d="M0,50.92l2.72.15C.12,62.75,7,74.39,14.69,83.52S31.61,101.2,35.21,112.6c3.87,12.23.58,25.41-1.92,38s-4,26.55,2.83,37.42c4.94,7.88,13.42,12.74,20,19.35a50,50,0,0,1,14.24,35,49.5,49.5,0,0,1-3.69,18.28H0Z"/><path class="cls-12" d="M.22.3c30.2,14.43,7.47,52.6,33.11,80.54,6,6.57,16.45,16.81,20.06,28.22,3.86,12.23.58,25.4-1.93,38s-4,26.55,2.84,37.42c4.94,7.88,13.41,12.74,20,19.35a49.26,49.26,0,0,1,7.19,60"/><path class="cls-13" d="M0,146.54l1.06.06C-1.54,158.27,5.3,169.91,13,179S30,196.72,33.55,208.12c3.87,12.23.58,25.41-1.92,38a103,103,0,0,0-2,14.5H0Z"/><path class="cls-14" d="M68.67,157.87a4.43,4.43,0,1,0,4.43,4.43A4.43,4.43,0,0,0,68.67,157.87Z"/></g></g></svg>