<svg xmlns="http://www.w3.org/2000/svg" xmlns:xlink="http://www.w3.org/1999/xlink" viewBox="0 0 1361.77 742.88"><defs><style>.cls-1,.cls-9{fill:none;}.cls-2{fill:#fff;}.cls-3{isolation:isolate;}.cls-4{clip-path:url(#clip-path);}.cls-5{fill:url(#Degradado_sin_nombre_140);}.cls-14,.cls-20,.cls-26,.cls-28,.cls-6{mix-blend-mode:overlay;}.cls-14,.cls-6{opacity:0.31;}.cls-6{fill:url(#Unnamed_Pattern_4);}.cls-7{fill:url(#Degradado_sin_nombre_7);}.cls-8{fill:url(#Degradado_sin_nombre_14);}.cls-9{stroke-miterlimit:10;stroke-width:1.04px;stroke:url(#Degradado_sin_nombre_2);}.cls-10{fill:url(#Degradado_sin_nombre_6);}.cls-11{fill:url(#Degradado_sin_nombre_2-2);}.cls-12{fill:url(#Degradado_sin_nombre_2-3);}.cls-13{fill:url(#Degradado_sin_nombre_4);}.cls-14{fill:url(#Unnamed_Pattern_4-3);}.cls-15{fill:url(#Degradado_sin_nombre_3);}.cls-16{fill:url(#Degradado_sin_nombre_152);}.cls-17{fill:url(#Degradado_sin_nombre_2-4);}.cls-18{fill:url(#Degradado_sin_nombre_2-5);}.cls-19{fill:url(#Degradado_sin_nombre_2-6);}.cls-20{opacity:0.05;}.cls-21{fill:url(#Unnamed_Pattern_3);}.cls-22{fill:url(#Unnamed_Pattern_3-3);}.cls-23{fill:url(#Unnamed_Pattern_3-5);}.cls-24{fill:url(#Unnamed_Pattern_3-7);}.cls-25{mix-blend-mode:saturation;opacity:0.1;}.cls-26{opacity:0.3;}.cls-27{fill:url(#linear-gradient);}.cls-29{fill:url(#linear-gradient-2);}.cls-30{fill:url(#linear-gradient-3);}.cls-31{fill:url(#linear-gradient-6);}.cls-32{fill:url(#linear-gradient-7);}.cls-33{fill:url(#linear-gradient-12);}.cls-34{fill:url(#linear-gradient-13);}.cls-35{fill:url(#linear-gradient-14);}.cls-36{fill:url(#linear-gradient-15);}.cls-37{fill:url(#linear-gradient-18);}.cls-38{fill:url(#linear-gradient-19);}.cls-39{fill:url(#linear-gradient-24);}.cls-40{fill:url(#linear-gradient-25);}.cls-41{fill:url(#linear-gradient-30);}.cls-42{fill:url(#linear-gradient-31);}.cls-43{fill:url(#linear-gradient-34);}.cls-44{fill:url(#linear-gradient-35);}.cls-45{fill:url(#linear-gradient-40);}.cls-46{fill:url(#linear-gradient-41);}.cls-47{fill:url(#linear-gradient-44);}.cls-48{fill:url(#linear-gradient-45);}.cls-49{fill:url(#linear-gradient-46);}.cls-50{fill:url(#linear-gradient-47);}.cls-51{fill:url(#linear-gradient-50);}.cls-52{fill:url(#linear-gradient-51);}.cls-53{fill:url(#linear-gradient-56);}.cls-54{fill:url(#linear-gradient-57);}.cls-55{fill:url(#linear-gradient-60);}.cls-56{fill:url(#linear-gradient-61);}.cls-57{fill:url(#linear-gradient-64);}.cls-58{fill:url(#linear-gradient-65);}.cls-59{fill:url(#linear-gradient-70);}.cls-60{fill:url(#linear-gradient-71);}.cls-61{fill:url(#linear-gradient-72);}.cls-62{fill:url(#linear-gradient-73);}.cls-63{fill:url(#linear-gradient-76);}.cls-64{fill:url(#linear-gradient-77);}.cls-65{fill:url(#linear-gradient-82);}.cls-66{fill:url(#linear-gradient-83);}.cls-67{fill:url(#linear-gradient-88);}.cls-68{fill:url(#linear-gradient-89);}.cls-69{fill:url(#linear-gradient-94);}.cls-70{fill:url(#linear-gradient-95);}.cls-71{fill:url(#linear-gradient-98);}.cls-72{fill:url(#linear-gradient-99);}.cls-73{fill:url(#linear-gradient-100);}.cls-74{fill:url(#linear-gradient-101);}.cls-75{fill:url(#linear-gradient-102);}.cls-76{fill:url(#linear-gradient-103);}.cls-77{fill:url(#linear-gradient-106);}.cls-78{fill:url(#linear-gradient-107);}.cls-79{fill:url(#linear-gradient-108);}.cls-80{fill:url(#linear-gradient-109);}.cls-81{fill:url(#linear-gradient-114);}.cls-82{fill:url(#linear-gradient-115);}.cls-83{fill:url(#linear-gradient-118);}.cls-84{fill:url(#linear-gradient-119);}.cls-85{fill:url(#linear-gradient-120);}.cls-86{fill:url(#linear-gradient-123);}.cls-87{fill:url(#linear-gradient-124);}.cls-88{fill:url(#linear-gradient-125);}.cls-89{fill:url(#linear-gradient-126);}.cls-90{fill:url(#linear-gradient-127);}.cls-91{fill:url(#linear-gradient-128);}</style><clipPath id="clip-path"><rect class="cls-1" x="309.45" y="-309.45" width="742.88" height="1361.77" transform="translate(1052.32 -309.45) rotate(90)"/></clipPath><radialGradient id="Degradado_sin_nombre_140" cx="1129.07" cy="238.07" r="183.16" gradientUnits="userSpaceOnUse"><stop offset="0" stop-color="#650bd9"/><stop offset="0.39" stop-color="#4d07a7"/><stop offset="0.79" stop-color="#37037a"/><stop offset="1" stop-color="#2e0268"/></radialGradient><pattern id="Unnamed_Pattern_4" data-name="Unnamed Pattern 4" width="7.83" height="10" patternTransform="translate(40.08 805.43) rotate(-179.26) scale(0.97)" patternUnits="userSpaceOnUse" viewBox="0 0 7.83 10"><rect class="cls-1" width="7.83" height="10"/><circle class="cls-2" cx="5.42" cy="11" r="1.5"/><circle class="cls-2" cx="1.5" cy="6" r="1.5"/><circle class="cls-2" cx="5.42" cy="1" r="1.5"/></pattern><radialGradient id="Degradado_sin_nombre_7" cx="1189.86" cy="133.46" r="225.14" gradientTransform="matrix(0.69, 0.72, -0.43, 0.41, 422.99, -779.7)" gradientUnits="userSpaceOnUse"><stop offset="0" stop-color="#650bd9"/><stop offset="0.17" stop-color="#600ace"/><stop offset="0.48" stop-color="#5107b0"/><stop offset="0.88" stop-color="#3a0381"/><stop offset="1" stop-color="#320271"/></radialGradient><linearGradient id="Degradado_sin_nombre_14" x1="1243.42" y1="49.77" x2="1299.34" y2="-33.42" gradientUnits="userSpaceOnUse"><stop offset="0" stop-color="#00cef5"/><stop offset="1" stop-color="#2947e2"/></linearGradient><linearGradient id="Degradado_sin_nombre_2" x1="1191.64" y1="121.31" x2="1254.82" y2="27.31" gradientUnits="userSpaceOnUse"><stop offset="0" stop-color="#00cef5"/><stop offset="0.13" stop-color="#12b9f7"/><stop offset="0.37" stop-color="#2e98f9"/><stop offset="0.6" stop-color="#4380fb"/><stop offset="0.82" stop-color="#4f72fd"/><stop offset="1" stop-color="#536dfd"/></linearGradient><linearGradient id="Degradado_sin_nombre_6" x1="1363.29" y1="47.62" x2="1423.98" y2="-42.65" gradientUnits="userSpaceOnUse"><stop offset="0" stop-color="#00cef5"/><stop offset="1" stop-color="#536dfd"/></linearGradient><linearGradient id="Degradado_sin_nombre_2-2" x1="-3152.11" y1="53.9" x2="-3152.11" y2="75.79" gradientTransform="matrix(-0.07, -1, -1, 0.07, 820.35, -3086.63)" xlink:href="#Degradado_sin_nombre_2"/><linearGradient id="Degradado_sin_nombre_2-3" x1="-3430.03" y1="459.72" x2="-3430.03" y2="485.05" gradientTransform="matrix(-1, -0.03, -0.03, 1, -2154.83, -100.55)" xlink:href="#Degradado_sin_nombre_2"/><radialGradient id="Degradado_sin_nombre_4" cx="-2464.85" cy="612.46" r="226.18" gradientTransform="matrix(-0.82, -0.57, -0.37, 0.54, -1502.94, -1121.33)" gradientUnits="userSpaceOnUse"><stop offset="0" stop-color="#650bd9"/><stop offset="0.35" stop-color="#5107b0"/><stop offset="0.78" stop-color="#3b0483"/><stop offset="1" stop-color="#320271"/></radialGradient><pattern id="Unnamed_Pattern_4-3" data-name="Unnamed Pattern 4" width="7.83" height="10" patternTransform="matrix(1.11, -0.01, -0.01, -1.11, 90.64, 986.98)" patternUnits="userSpaceOnUse" viewBox="0 0 7.83 10"><rect class="cls-1" width="7.83" height="10"/><circle class="cls-2" cx="5.42" cy="11" r="1.5"/><circle class="cls-2" cx="1.5" cy="6" r="1.5"/><circle class="cls-2" cx="5.42" cy="1" r="1.5"/></pattern><linearGradient id="Degradado_sin_nombre_3" x1="-2379.8" y1="629.83" x2="-2294.19" y2="741.01" gradientTransform="matrix(-1, 0, 0, 1, -2170.09, 0)" gradientUnits="userSpaceOnUse"><stop offset="0" stop-color="#650bd9"/><stop offset="1" stop-color="#320271"/></linearGradient><linearGradient id="Degradado_sin_nombre_152" x1="-2338.48" y1="690.28" x2="-2225.75" y2="821.37" gradientTransform="matrix(-1, 0, 0, 1, -2170.09, 0)" gradientUnits="userSpaceOnUse"><stop offset="0" stop-color="#00cef5"/><stop offset="0.07" stop-color="#05bdf3"/><stop offset="0.28" stop-color="#1293ed"/><stop offset="0.48" stop-color="#1c72e8"/><stop offset="0.67" stop-color="#235ae5"/><stop offset="0.85" stop-color="#284ce3"/><stop offset="1" stop-color="#2947e2"/></linearGradient><linearGradient id="Degradado_sin_nombre_2-4" x1="-2267.58" y1="722.25" x2="-2154.84" y2="853.33" gradientTransform="matrix(-1, 0, 0, 1, -2170.09, 0)" xlink:href="#Degradado_sin_nombre_2"/><linearGradient id="Degradado_sin_nombre_2-5" x1="-2240.94" y1="534.96" x2="-2240.94" y2="557.88" gradientTransform="matrix(-1, 0, 0, 1, -2170.09, 0)" xlink:href="#Degradado_sin_nombre_2"/><linearGradient id="Degradado_sin_nombre_2-6" x1="-2485.13" y1="739.6" x2="-2485.13" y2="762.28" gradientTransform="matrix(-0.96, -0.29, -0.29, 0.96, -1844.48, -691.42)" xlink:href="#Degradado_sin_nombre_2"/><pattern id="Unnamed_Pattern_3" data-name="Unnamed Pattern 3" width="18.99" height="18.74" patternTransform="translate(673.42 1207.89) rotate(-6.87) scale(1.37)" patternUnits="userSpaceOnUse" viewBox="0 0 18.99 18.74"><rect class="cls-1" width="18.99" height="18.74"/><polygon class="cls-2" points="19 18.74 0 24.99 0 22.99 19 16.74 19 18.74"/><polygon class="cls-2" points="0.01 18.74 -18.99 24.99 -18.99 22.99 0.01 16.74 0.01 18.74"/><polygon class="cls-2" points="19 12.49 0 18.74 0 16.74 19 10.49 19 12.49"/><polygon class="cls-2" points="0.01 12.49 -18.99 18.74 -18.99 16.74 0.01 10.49 0.01 12.49"/><polygon class="cls-2" points="19 6.24 0 12.49 0 10.49 19 4.24 19 6.24"/><polygon class="cls-2" points="0.01 6.24 -18.99 12.49 -18.99 10.49 0.01 4.24 0.01 6.24"/><polygon class="cls-2" points="19 0 0 6.25 0 4.25 19 -2 19 0"/><polygon class="cls-2" points="0.01 0 -18.99 6.25 -18.99 4.25 0.01 -2 0.01 0"/></pattern><pattern id="Unnamed_Pattern_3-3" data-name="Unnamed Pattern 3" width="18.99" height="18.74" patternTransform="translate(632.25 1210.73) rotate(-6.87) scale(1.37)" patternUnits="userSpaceOnUse" viewBox="0 0 18.99 18.74"><rect class="cls-1" width="18.99" height="18.74"/><polygon class="cls-2" points="19 18.74 0 24.99 0 22.99 19 16.74 19 18.74"/><polygon class="cls-2" points="0.01 18.74 -18.99 24.99 -18.99 22.99 0.01 16.74 0.01 18.74"/><polygon class="cls-2" points="19 12.49 0 18.74 0 16.74 19 10.49 19 12.49"/><polygon class="cls-2" points="0.01 12.49 -18.99 18.74 -18.99 16.74 0.01 10.49 0.01 12.49"/><polygon class="cls-2" points="19 6.24 0 12.49 0 10.49 19 4.24 19 6.24"/><polygon class="cls-2" points="0.01 6.24 -18.99 12.49 -18.99 10.49 0.01 4.24 0.01 6.24"/><polygon class="cls-2" points="19 0 0 6.25 0 4.25 19 -2 19 0"/><polygon class="cls-2" points="0.01 0 -18.99 6.25 -18.99 4.25 0.01 -2 0.01 0"/></pattern><pattern id="Unnamed_Pattern_3-5" data-name="Unnamed Pattern 3" width="18.99" height="18.74" patternTransform="translate(659.09 1201.17) rotate(-6.87) scale(1.37)" patternUnits="userSpaceOnUse" viewBox="0 0 18.99 18.74"><rect class="cls-1" width="18.99" height="18.74"/><polygon class="cls-2" points="19 18.74 0 24.99 0 22.99 19 16.74 19 18.74"/><polygon class="cls-2" points="0.01 18.74 -18.99 24.99 -18.99 22.99 0.01 16.74 0.01 18.74"/><polygon class="cls-2" points="19 12.49 0 18.74 0 16.74 19 10.49 19 12.49"/><polygon class="cls-2" points="0.01 12.49 -18.99 18.74 -18.99 16.74 0.01 10.49 0.01 12.49"/><polygon class="cls-2" points="19 6.24 0 12.49 0 10.49 19 4.24 19 6.24"/><polygon class="cls-2" points="0.01 6.24 -18.99 12.49 -18.99 10.49 0.01 4.24 0.01 6.24"/><polygon class="cls-2" points="19 0 0 6.25 0 4.25 19 -2 19 0"/><polygon class="cls-2" points="0.01 0 -18.99 6.25 -18.99 4.25 0.01 -2 0.01 0"/></pattern><pattern id="Unnamed_Pattern_3-7" data-name="Unnamed Pattern 3" width="18.99" height="18.74" patternTransform="translate(650.59 1158.98) rotate(-6.87) scale(1.37)" patternUnits="userSpaceOnUse" viewBox="0 0 18.99 18.74"><rect class="cls-1" width="18.99" height="18.74"/><polygon class="cls-2" points="19 18.74 0 24.99 0 22.99 19 16.74 19 18.74"/><polygon class="cls-2" points="0.01 18.74 -18.99 24.99 -18.99 22.99 0.01 16.74 0.01 18.74"/><polygon class="cls-2" points="19 12.49 0 18.74 0 16.74 19 10.49 19 12.49"/><polygon class="cls-2" points="0.01 12.49 -18.99 18.74 -18.99 16.74 0.01 10.49 0.01 12.49"/><polygon class="cls-2" points="19 6.24 0 12.49 0 10.49 19 4.24 19 6.24"/><polygon class="cls-2" points="0.01 6.24 -18.99 12.49 -18.99 10.49 0.01 4.24 0.01 6.24"/><polygon class="cls-2" points="19 0 0 6.25 0 4.25 19 -2 19 0"/><polygon class="cls-2" points="0.01 0 -18.99 6.25 -18.99 4.25 0.01 -2 0.01 0"/></pattern><linearGradient id="linear-gradient" x1="618.68" y1="-193.27" x2="618.68" y2="209.74" gradientTransform="translate(524.05 -606.89) rotate(80.78)" gradientUnits="userSpaceOnUse"><stop offset="0" stop-color="#2947e2"/><stop offset="1" stop-color="#00cef5"/></linearGradient><linearGradient id="linear-gradient-2" x1="485.7" y1="-193.27" x2="485.7" y2="209.75" gradientTransform="matrix(1, 0, 0, 1, 0, 0)" xlink:href="#linear-gradient"/><linearGradient id="linear-gradient-3" x1="509.92" y1="-193.27" x2="509.92" y2="209.75" gradientTransform="translate(592.97 -386.6) rotate(84.33)" xlink:href="#linear-gradient"/><linearGradient id="linear-gradient-6" x1="400.33" y1="-193.27" x2="400.33" y2="209.75" gradientTransform="matrix(1, 0, 0, 1, 0, 0)" xlink:href="#linear-gradient"/><linearGradient id="linear-gradient-7" x1="410.98" y1="-193.28" x2="410.98" y2="209.75" gradientTransform="matrix(1, 0, 0, 1, 0, 0)" xlink:href="#linear-gradient"/><linearGradient id="linear-gradient-12" x1="415.88" y1="-193.27" x2="415.88" y2="209.75" gradientTransform="matrix(1, 0, 0, 1, 0, 0)" xlink:href="#linear-gradient"/><linearGradient id="linear-gradient-13" x1="427.76" y1="-193.27" x2="427.76" y2="209.75" gradientTransform="matrix(1, 0, 0, 1, 0, 0)" xlink:href="#linear-gradient"/><linearGradient id="linear-gradient-14" x1="553.12" y1="-193.27" x2="553.12" y2="209.75" gradientTransform="matrix(1, 0, 0, 1, 0, 0)" xlink:href="#linear-gradient"/><linearGradient id="linear-gradient-15" x1="530.5" y1="-193.27" x2="530.5" y2="209.75" gradientTransform="matrix(1, 0, 0, 1, 0, 0)" xlink:href="#linear-gradient"/><linearGradient id="linear-gradient-18" x1="542.99" y1="-193.27" x2="542.99" y2="209.75" gradientTransform="matrix(1, 0, 0, 1, 0, 0)" xlink:href="#linear-gradient"/><linearGradient id="linear-gradient-19" x1="521.71" y1="-193.27" x2="521.71" y2="209.75" gradientTransform="matrix(1, 0, 0, 1, 0, 0)" xlink:href="#linear-gradient"/><linearGradient id="linear-gradient-24" x1="354" y1="-193.27" x2="354" y2="209.74" gradientTransform="matrix(1, 0, 0, 1, 0, 0)" xlink:href="#linear-gradient"/><linearGradient id="linear-gradient-25" x1="333.59" y1="-193.27" x2="333.59" y2="209.75" gradientTransform="matrix(1, 0, 0, 1, 0, 0)" xlink:href="#linear-gradient"/><linearGradient id="linear-gradient-30" x1="330.34" y1="-193.27" x2="330.34" y2="209.74" gradientTransform="matrix(1, 0, 0, 1, 0, 0)" xlink:href="#linear-gradient"/><linearGradient id="linear-gradient-31" x1="300.79" y1="-193.27" x2="300.79" y2="209.75" gradientTransform="matrix(1, 0, 0, 1, 0, 0)" xlink:href="#linear-gradient"/><linearGradient id="linear-gradient-34" x1="309.71" y1="-193.27" x2="309.71" y2="209.75" gradientTransform="matrix(1, 0, 0, 1, 0, 0)" xlink:href="#linear-gradient"/><linearGradient id="linear-gradient-35" x1="309.71" y1="-193.27" x2="309.71" y2="209.75" gradientTransform="matrix(1, 0, 0, 1, 0, 0)" xlink:href="#linear-gradient"/><linearGradient id="linear-gradient-40" x1="366.86" y1="-193.27" x2="366.86" y2="209.75" gradientTransform="matrix(1, 0, 0, 1, 0, 0)" xlink:href="#linear-gradient"/><linearGradient id="linear-gradient-41" x1="354.9" y1="-193.27" x2="354.9" y2="209.75" gradientTransform="matrix(1, 0, 0, 1, 0, 0)" xlink:href="#linear-gradient"/><linearGradient id="linear-gradient-44" x1="389.1" y1="-193.27" x2="389.1" y2="209.75" gradientTransform="matrix(1, 0, 0, 1, 0, 0)" xlink:href="#linear-gradient"/><linearGradient id="linear-gradient-45" x1="398.84" y1="-193.27" x2="398.84" y2="209.75" gradientTransform="matrix(1, 0, 0, 1, 0, 0)" xlink:href="#linear-gradient"/><linearGradient id="linear-gradient-46" x1="374.4" y1="-193.27" x2="374.4" y2="209.74" gradientTransform="matrix(1, 0, 0, 1, 0, 0)" xlink:href="#linear-gradient"/><linearGradient id="linear-gradient-47" x1="374.4" y1="-193.27" x2="374.4" y2="209.75" gradientTransform="matrix(1, 0, 0, 1, 0, 0)" xlink:href="#linear-gradient"/><linearGradient id="linear-gradient-50" x1="575.6" y1="-193.27" x2="575.6" y2="209.75" gradientTransform="matrix(1, 0, 0, 1, 0, 0)" xlink:href="#linear-gradient"/><linearGradient id="linear-gradient-51" x1="556.7" y1="-193.27" x2="556.7" y2="209.75" gradientTransform="matrix(1, 0, 0, 1, 0, 0)" xlink:href="#linear-gradient"/><linearGradient id="linear-gradient-56" x1="564.64" y1="-193.27" x2="564.64" y2="209.75" gradientTransform="matrix(1, 0, 0, 1, 0, 0)" xlink:href="#linear-gradient"/><linearGradient id="linear-gradient-57" x1="556.55" y1="-193.27" x2="556.55" y2="209.75" gradientTransform="matrix(1, 0, 0, 1, 0, 0)" xlink:href="#linear-gradient"/><linearGradient id="linear-gradient-60" x1="488.98" y1="-193.27" x2="488.98" y2="209.74" gradientTransform="matrix(1, 0, 0, 1, 0, 0)" xlink:href="#linear-gradient"/><linearGradient id="linear-gradient-61" x1="488.98" y1="-193.27" x2="488.98" y2="209.75" gradientTransform="matrix(1, 0, 0, 1, 0, 0)" xlink:href="#linear-gradient"/><linearGradient id="linear-gradient-64" x1="263.87" y1="-193.27" x2="263.87" y2="209.75" gradientTransform="matrix(1, 0, 0, 1, 0, 0)" xlink:href="#linear-gradient"/><linearGradient id="linear-gradient-65" x1="253.7" y1="-193.27" x2="253.7" y2="209.75" gradientTransform="matrix(1, 0, 0, 1, 0, 0)" xlink:href="#linear-gradient"/><linearGradient id="linear-gradient-70" x1="274.03" y1="-193.27" x2="274.03" y2="209.75" gradientTransform="matrix(1, 0, 0, 1, 0, 0)" xlink:href="#linear-gradient"/><linearGradient id="linear-gradient-71" x1="274.03" y1="-193.27" x2="274.03" y2="209.75" gradientTransform="matrix(1, 0, 0, 1, 0, 0)" xlink:href="#linear-gradient"/><linearGradient id="linear-gradient-72" x1="652.88" y1="-193.27" x2="652.88" y2="209.75" gradientTransform="matrix(1, 0, 0, 1, 0, 0)" xlink:href="#linear-gradient"/><linearGradient id="linear-gradient-73" x1="663.5" y1="-193.27" x2="663.5" y2="209.75" gradientTransform="matrix(1, 0, 0, 1, 0, 0)" xlink:href="#linear-gradient"/><linearGradient id="linear-gradient-76" x1="646.8" y1="-193.27" x2="646.8" y2="209.74" gradientTransform="matrix(1, 0, 0, 1, 0, 0)" xlink:href="#linear-gradient"/><linearGradient id="linear-gradient-77" x1="646.8" y1="-193.27" x2="646.8" y2="209.75" gradientTransform="matrix(0.1, 1, -1, 0.1, 716.33, -522.81)" xlink:href="#linear-gradient"/><linearGradient id="linear-gradient-82" x1="608.25" y1="-193.27" x2="608.25" y2="209.75" gradientTransform="matrix(1, 0, 0, 1, 0, 0)" xlink:href="#linear-gradient"/><linearGradient id="linear-gradient-83" x1="597.82" y1="-193.27" x2="597.82" y2="209.75" gradientTransform="matrix(1, 0, 0, 1, 0, 0)" xlink:href="#linear-gradient"/><linearGradient id="linear-gradient-88" x1="421.6" y1="-193.27" x2="421.6" y2="209.75" gradientTransform="matrix(1, 0, 0, 1, 0, 0)" xlink:href="#linear-gradient"/><linearGradient id="linear-gradient-89" x1="436.95" y1="-193.27" x2="436.95" y2="209.75" gradientTransform="matrix(1, 0, 0, 1, 0, 0)" xlink:href="#linear-gradient"/><linearGradient id="linear-gradient-94" x1="433.49" y1="-193.27" x2="433.49" y2="209.75" gradientTransform="matrix(1, 0, 0, 1, 0, 0)" xlink:href="#linear-gradient"/><linearGradient id="linear-gradient-95" x1="448.84" y1="-193.27" x2="448.84" y2="209.75" gradientTransform="matrix(1, 0, 0, 1, 0, 0)" xlink:href="#linear-gradient"/><linearGradient id="linear-gradient-98" x1="473.25" y1="-193.27" x2="473.25" y2="209.74" gradientTransform="matrix(1, 0, 0, 1, 0, 0)" xlink:href="#linear-gradient"/><linearGradient id="linear-gradient-99" x1="497.66" y1="-193.27" x2="497.66" y2="209.75" gradientTransform="matrix(1, 0, 0, 1, 0, 0)" xlink:href="#linear-gradient"/><linearGradient id="linear-gradient-100" x1="686.28" y1="-193.27" x2="686.28" y2="209.75" gradientTransform="matrix(1, 0, 0, 1, 0, 0)" xlink:href="#linear-gradient"/><linearGradient id="linear-gradient-101" x1="686.28" y1="-193.27" x2="686.28" y2="209.75" gradientTransform="matrix(1, 0, 0, 1, 0, 0)" xlink:href="#linear-gradient"/><linearGradient id="linear-gradient-102" x1="716.63" y1="-193.27" x2="716.63" y2="209.74" gradientTransform="matrix(1, 0, 0, 1, 0, 0)" xlink:href="#linear-gradient"/><linearGradient id="linear-gradient-103" x1="728.83" y1="-193.27" x2="728.83" y2="209.75" gradientTransform="matrix(1, 0, 0, 1, 0, 0)" xlink:href="#linear-gradient"/><linearGradient id="linear-gradient-106" x1="712.58" y1="-193.27" x2="712.58" y2="209.75" gradientTransform="matrix(1, 0, 0, 1, 0, 0)" xlink:href="#linear-gradient"/><linearGradient id="linear-gradient-107" x1="712.58" y1="-193.27" x2="712.58" y2="209.75" gradientTransform="matrix(1, 0, 0, 1, 0, 0)" xlink:href="#linear-gradient"/><linearGradient id="linear-gradient-108" x1="742.01" y1="-193.27" x2="742.01" y2="209.75" gradientTransform="matrix(1, 0, 0, 1, 0, 0)" xlink:href="#linear-gradient"/><linearGradient id="linear-gradient-109" x1="755.18" y1="-193.27" x2="755.18" y2="209.75" gradientTransform="matrix(1, 0, 0, 1, 0, 0)" xlink:href="#linear-gradient"/><linearGradient id="linear-gradient-114" x1="774.26" y1="-193.27" x2="774.26" y2="209.75" gradientTransform="matrix(1, 0, 0, 1, 0, 0)" xlink:href="#linear-gradient"/><linearGradient id="linear-gradient-115" x1="774.26" y1="-193.27" x2="774.26" y2="209.75" gradientTransform="matrix(1, 0, 0, 1, 0, 0)" xlink:href="#linear-gradient"/><linearGradient id="linear-gradient-118" x1="230.98" y1="-193.27" x2="230.98" y2="209.75" gradientTransform="matrix(1, 0, 0, 1, 0, 0)" xlink:href="#linear-gradient"/><linearGradient id="linear-gradient-119" x1="194.48" y1="-193.27" x2="194.48" y2="209.75" gradientTransform="matrix(1, 0, 0, 1, 0, 0)" xlink:href="#linear-gradient"/><linearGradient id="linear-gradient-120" x1="175.2" y1="-193.27" x2="175.2" y2="209.75" gradientTransform="matrix(1, 0, 0, 1, 0, 0)" xlink:href="#linear-gradient"/><linearGradient id="linear-gradient-123" x1="194.48" y1="-193.27" x2="194.48" y2="209.75" gradientTransform="matrix(1, 0, 0, 1, 0, 0)" xlink:href="#linear-gradient"/><linearGradient id="linear-gradient-124" x1="194.48" y1="-193.27" x2="194.48" y2="209.75" gradientTransform="matrix(1, 0, 0, 1, 0, 0)" xlink:href="#linear-gradient"/><linearGradient id="linear-gradient-125" x1="168.29" y1="-193.27" x2="168.29" y2="209.75" gradientTransform="matrix(1, 0, 0, 1, 0, 0)" xlink:href="#linear-gradient"/><linearGradient id="linear-gradient-126" x1="151.85" y1="-193.27" x2="151.85" y2="209.75" gradientTransform="matrix(1, 0, 0, 1, 0, 0)" xlink:href="#linear-gradient"/><linearGradient id="linear-gradient-127" x1="127.59" y1="-193.27" x2="127.59" y2="209.75" gradientTransform="matrix(1, 0, 0, 1, 0, 0)" xlink:href="#linear-gradient"/><linearGradient id="linear-gradient-128" x1="127.59" y1="-193.27" x2="127.59" y2="209.75" gradientTransform="matrix(1, 0, 0, 1, 0, 0)" xlink:href="#linear-gradient"/></defs><g class="cls-3"><g id="equipment"><g class="cls-4"><path class="cls-5" d="M1382.48-15.15h-267.3q1.39,5.09,2.72,10.18c1.64,6.29,3.2,12.6,4.72,18.92q1.16,4.77,2.26,9.54c.71,3.06,1.31,6.17,2.18,9.19,1.15,4,2.32,8.07,3.37,12.14a88.74,88.74,0,0,1,12.69.81c11.92,1.66,22.62,4.48,31.41,13.3a44.32,44.32,0,0,1,12.77,29.44c.72,20.62-12.93,39.38-13.92,60a50.17,50.17,0,0,0,10.74,33.29c9.16,11.53,22.93,18.4,36.68,23.67s31.65,9.15,44.76,15.87c70,35.86,49.09,84.6,40.38,97.13-10.79,11.84-27.5,97.13,50.13,110,9.06,1.5,17.94-2.75,26.41-10.69Z"/><path class="cls-6" d="M1388.75-15.15H1165.27c.45,2,.9,4.06,1.47,6.05,1.16,4,2.33,8.08,3.38,12.15a87.39,87.39,0,0,1,12.69.8c11.92,1.66,22.62,4.48,31.41,13.3A44.36,44.36,0,0,1,1227,46.59c.72,20.62-12.94,39.38-13.92,60a50.12,50.12,0,0,0,10.74,33.28c9.16,11.54,22.92,18.4,36.68,23.67s31.65,9.15,44.76,15.87c70,35.86,90.16,84.6,81.46,97.13-10.45,11.47-67.54,91.87,2,108.6Z"/><path class="cls-7" d="M1364.79,251.42h17.69V-15.15H993.07c7.66,54.62,49,77.69,91.63,81.24,23.49,2,46.34-5.15,68.53-11.9s45.49-13.91,68.92-10.65c11.91,1.66,22.62,4.48,31.41,13.3a44.34,44.34,0,0,1,12.77,29.44c.72,20.62-12.94,39.38-13.92,60a50.2,50.2,0,0,0,10.73,33.29c9.17,11.53,22.93,18.4,36.69,23.67s28.1,9.38,40.7,17c7.81,4.73,14.93,11,19.79,18.82A29.64,29.64,0,0,1,1364.79,251.42Z"/><path class="cls-8" d="M1382.48-15.15H1045.4c17.06,19.83,41.83,31.89,70.46,32C1154.53,17,1198-.26,1236.49,3.73c36.88,3.82,72.58,27.73,76.49,70.42,1.46,15.9-10.64,40.45-8.87,56.35,5.47,48.91,57.78,54.39,78.37,71.87Z"/><path class="cls-9" d="M1378.39,241.25a42.38,42.38,0,0,0-13.09-19.89c-15.45-13.33-37.08-17.76-53.53-29.89-9.42-6.95-17.18-15.88-21.42-26.9-6.78-17.59-.92-34.48,2.69-52.11,11.51-56.29-25.74-90.41-74-89.93-38.67.38-79.86,14-118.54,13.86-44.73-.14-76.24-17.12-78.33-60.64"/><path class="cls-10" d="M1382.48-15.15H1342a43,43,0,0,1,1.47,9.69c.72,20.63-12.93,39.39-13.92,60a50.17,50.17,0,0,0,10.74,33.29c9.16,11.53,22.93,18.39,36.68,23.66,1.84.71,3.69,1.39,5.54,2.06Z"/><circle class="cls-11" cx="982.02" cy="61.94" r="9.89" transform="translate(850.62 1037.09) rotate(-85.93)"/><circle class="cls-12" cx="1259.94" cy="469.02" r="11.45" transform="translate(-13.23 37.21) rotate(-1.68)"/><path class="cls-13" d="M4.82,464.08c2.87,16.11,9.64,31.41,21,43,21.52,22,54.41,27,84.59,32.93s63.22,16.47,77.87,43.52c14.89,27.52,5.44,63,18.94,91.25,13.25,27.71,45.22,41.27,75.52,46.24s61.8,3.86,91,13.36C424.67,751,419,787.17,471.6,803.9H0V464.08Z"/><path class="cls-14" d="M0,809.42V554.67c21.28,16.86,50.61,21.44,77.75,26.8,30.18,6,63.22,16.47,77.87,43.52,14.9,27.51,5.45,63,18.95,91.25,13.25,27.71,45.21,41.27,75.52,46.24s50.79,4.95,80,14.45c24.75,8.05,36.13,20.74,47.33,33.58Z"/><path class="cls-15" d="M0,514l2.86.56C33,520.5,66.08,531,80.73,558.07c14.9,27.51,5.45,63,18.94,91.24,13.26,27.71,34.88,54.41,65.19,59.38s72-10.3,101.18-.8c50.91,16.56,58.17,70.12,113.14,90L0,783.23Z"/><path class="cls-16" d="M0,809.42V604.33a105,105,0,0,0,43.46,14.93c18.71,2,38.75-.73,56.64,5.1s31.41,18.92,36.88,36.93c7.19,23.68-3.34,50.57,7.92,72.61,9.14,17.89,31.35,24.55,51.38,25.87s41-.76,59.48,7c13.52,5.65,24.42,16,34.86,26.29,5.7,5.62,11.44,11.32,17.63,16.38Z"/><path class="cls-17" d="M0,809.42V629.09c16.27,6.34,31.08,18.17,36.11,34.73,7.2,23.69-6.84,51.22,4.42,73.27C49.67,755,71.88,761.64,91.91,763s41-.76,59.48,7c13.52,5.64,24.42,16,34.86,26.29,4.53,4.46,9.08,9,13.87,13.19Z"/><circle class="cls-18" cx="70.85" cy="543.37" r="10.36"/><circle class="cls-19" cx="315.04" cy="747.93" r="10.25" transform="translate(-204.19 124.19) rotate(-16.93)"/><g class="cls-20"><circle class="cls-21" cx="947" cy="653.82" r="44.43" transform="translate(-140.56 1030.01) rotate(-53.7)"/></g><g class="cls-20"><path class="cls-22" d="M56,159.83a44.43,44.43,0,1,1,7.52,62.38A44.43,44.43,0,0,1,56,159.83Z"/></g><g class="cls-20"><circle class="cls-23" cx="350.34" cy="588.3" r="44.43" transform="translate(-319.36 730.92) rotate(-71.25)"/></g><g class="cls-20"><circle class="cls-24" cx="1026.69" cy="153.91" r="44.43" transform="translate(191.88 771.06) rotate(-45)"/></g><g class="cls-25"><g class="cls-26"><circle class="cls-27" cx="618.68" cy="4.53" r="7.6" transform="translate(515.1 614.5) rotate(-80.78)"/></g><g class="cls-28"><polygon class="cls-29" points="510.83 134.24 509.02 134.24 509.02 -14.44 460.56 -62.89 460.56 -146.71 462.38 -146.71 462.38 -63.64 510.83 -15.19 510.83 134.24"/><circle class="cls-30" cx="509.92" cy="134.07" r="3.41" transform="translate(326.14 628.26) rotate(-84.33)"/></g><g class="cls-28"><polygon class="cls-29" points="510.83 134.24 509.02 134.24 509.02 -14.44 460.56 -62.89 460.56 -146.71 462.38 -146.71 462.38 -63.64 510.83 -15.19 510.83 134.24"/><circle class="cls-30" cx="509.92" cy="134.07" r="3.41" transform="translate(326.14 628.26) rotate(-84.33)"/></g><g class="cls-28"><polygon class="cls-31" points="411.89 191.08 410.08 191.08 410.08 44.53 388.76 17.77 388.76 -149.43 390.58 -149.43 390.58 17.14 411.89 43.9 411.89 191.08"/><path class="cls-32" d="M407.57,190.91A3.41,3.41,0,1,0,411,187.5,3.41,3.41,0,0,0,407.57,190.91Z"/></g><g class="cls-28"><polygon class="cls-31" points="411.89 191.08 410.08 191.08 410.08 44.53 388.76 17.77 388.76 -149.43 390.58 -149.43 390.58 17.14 411.89 43.9 411.89 191.08"/><path class="cls-32" d="M407.57,190.91A3.41,3.41,0,1,0,411,187.5,3.41,3.41,0,0,0,407.57,190.91Z"/></g><g class="cls-28"><polygon class="cls-31" points="411.89 191.08 410.08 191.08 410.08 44.53 388.76 17.77 388.76 -149.43 390.58 -149.43 390.58 17.14 411.89 43.9 411.89 191.08"/><path class="cls-32" d="M407.57,190.91A3.41,3.41,0,1,0,411,187.5,3.41,3.41,0,0,0,407.57,190.91Z"/></g><polygon class="cls-33" points="428.67 150.72 426.86 150.72 426.86 21.91 403.09 -1.85 404.37 -3.14 428.67 21.16 428.67 150.72"/><path class="cls-34" d="M424.35,150.55a3.41,3.41,0,1,0,3.41-3.41A3.41,3.41,0,0,0,424.35,150.55Z"/><g class="cls-28"><polygon class="cls-35" points="531.4 179.62 529.59 179.56 535.55 -25.57 574.84 -63.05 574.84 -146.71 576.66 -146.71 576.66 -62.27 537.35 -24.77 531.4 179.62"/><path class="cls-36" d="M527.09,179.32A3.41,3.41,0,1,0,530.6,176,3.42,3.42,0,0,0,527.09,179.32Z"/></g><g class="cls-28"><polygon class="cls-35" points="531.4 179.62 529.59 179.56 535.55 -25.57 574.84 -63.05 574.84 -146.71 576.66 -146.71 576.66 -62.27 537.35 -24.77 531.4 179.62"/><path class="cls-36" d="M527.09,179.32A3.41,3.41,0,1,0,530.6,176,3.42,3.42,0,0,0,527.09,179.32Z"/></g><g class="cls-28"><polygon class="cls-37" points="522.62 9.23 520.8 9.23 520.8 -37.41 563.36 -79.97 563.36 -152.15 565.17 -152.15 565.17 -79.21 522.62 -36.66 522.62 9.23"/><path class="cls-38" d="M518.3,9.06a3.41,3.41,0,1,0,3.41-3.41A3.41,3.41,0,0,0,518.3,9.06Z"/></g><g class="cls-28"><polygon class="cls-37" points="522.62 9.23 520.8 9.23 520.8 -37.41 563.36 -79.97 563.36 -152.15 565.17 -152.15 565.17 -79.21 522.62 -36.66 522.62 9.23"/><path class="cls-38" d="M518.3,9.06a3.41,3.41,0,1,0,3.41-3.41A3.41,3.41,0,0,0,518.3,9.06Z"/></g><g class="cls-28"><polygon class="cls-37" points="522.62 9.23 520.8 9.23 520.8 -37.41 563.36 -79.97 563.36 -152.15 565.17 -152.15 565.17 -79.21 522.62 -36.66 522.62 9.23"/><path class="cls-38" d="M518.3,9.06a3.41,3.41,0,1,0,3.41-3.41A3.41,3.41,0,0,0,518.3,9.06Z"/></g><g class="cls-28"><polygon class="cls-39" points="334.5 99.17 332.68 99.17 332.68 -10.13 373.5 -50.94 373.5 -146.71 375.31 -146.71 375.31 -50.19 334.5 -9.38 334.5 99.17"/><path class="cls-40" d="M330.18,99a3.41,3.41,0,1,0,3.41-3.41A3.41,3.41,0,0,0,330.18,99Z"/></g><g class="cls-28"><polygon class="cls-39" points="334.5 99.17 332.68 99.17 332.68 -10.13 373.5 -50.94 373.5 -146.71 375.31 -146.71 375.31 -50.19 334.5 -9.38 334.5 99.17"/><path class="cls-40" d="M330.18,99a3.41,3.41,0,1,0,3.41-3.41A3.41,3.41,0,0,0,330.18,99Z"/></g><g class="cls-28"><polygon class="cls-39" points="334.5 99.17 332.68 99.17 332.68 -10.13 373.5 -50.94 373.5 -146.71 375.31 -146.71 375.31 -50.19 334.5 -9.38 334.5 99.17"/><path class="cls-40" d="M330.18,99a3.41,3.41,0,1,0,3.41-3.41A3.41,3.41,0,0,0,330.18,99Z"/></g><g class="cls-28"><polygon class="cls-41" points="301.69 157.82 299.88 157.82 299.88 2.12 358.99 -56.99 358.99 -152.15 360.8 -152.15 360.8 -56.24 301.69 2.87 301.69 157.82"/><path class="cls-42" d="M297.38,157.65a3.41,3.41,0,1,0,3.41-3.41A3.41,3.41,0,0,0,297.38,157.65Z"/></g><g class="cls-28"><polygon class="cls-41" points="301.69 157.82 299.88 157.82 299.88 2.12 358.99 -56.99 358.99 -152.15 360.8 -152.15 360.8 -56.24 301.69 2.87 301.69 157.82"/><path class="cls-42" d="M297.38,157.65a3.41,3.41,0,1,0,3.41-3.41A3.41,3.41,0,0,0,297.38,157.65Z"/></g><g class="cls-28"><rect class="cls-43" x="308.8" y="4.46" width="1.81" height="82.62"/><path class="cls-44" d="M306.3,86.91a3.41,3.41,0,1,0,3.41-3.41A3.41,3.41,0,0,0,306.3,86.91Z"/></g><g class="cls-28"><rect class="cls-43" x="308.8" y="4.46" width="1.81" height="82.62"/><path class="cls-44" d="M306.3,86.91a3.41,3.41,0,1,0,3.41-3.41A3.41,3.41,0,0,0,306.3,86.91Z"/></g><g class="cls-28"><rect class="cls-43" x="308.8" y="4.46" width="1.81" height="82.62"/><path class="cls-44" d="M306.3,86.91a3.41,3.41,0,1,0,3.41-3.41A3.41,3.41,0,0,0,306.3,86.91Z"/></g><g class="cls-28"><polygon class="cls-45" points="355.81 144.52 354 144.52 354 -1.97 378.44 -26.42 379.73 -25.13 355.81 -1.22 355.81 144.52"/><path class="cls-46" d="M351.49,144.35a3.41,3.41,0,1,0,3.41-3.41A3.41,3.41,0,0,0,351.49,144.35Z"/></g><g class="cls-28"><polygon class="cls-45" points="355.81 144.52 354 144.52 354 -1.97 378.44 -26.42 379.73 -25.13 355.81 -1.22 355.81 144.52"/><path class="cls-46" d="M351.49,144.35a3.41,3.41,0,1,0,3.41-3.41A3.41,3.41,0,0,0,351.49,144.35Z"/></g><polygon class="cls-47" points="399.75 126.98 397.93 126.98 397.93 56.63 378.44 37.14 379.73 35.86 399.75 55.88 399.75 126.98"/><path class="cls-48" d="M395.43,126.81a3.41,3.41,0,1,0,3.41-3.41A3.41,3.41,0,0,0,395.43,126.81Z"/><g class="cls-28"><rect class="cls-49" x="373.5" y="68.75" width="1.81" height="141.67"/><path class="cls-50" d="M371,210.25a3.41,3.41,0,1,0,3.41-3.41A3.41,3.41,0,0,0,371,210.25Z"/></g><g class="cls-28"><rect class="cls-49" x="373.5" y="68.75" width="1.81" height="141.67"/><path class="cls-50" d="M371,210.25a3.41,3.41,0,1,0,3.41-3.41A3.41,3.41,0,0,0,371,210.25Z"/></g><g class="cls-28"><polygon class="cls-51" points="557.61 108.84 555.8 108.84 555.8 6.8 593.59 -30.99 593.59 -152.15 595.4 -152.15 595.4 -30.24 557.61 7.55 557.61 108.84"/><path class="cls-52" d="M553.29,108.67a3.41,3.41,0,1,0,3.41-3.41A3.41,3.41,0,0,0,553.29,108.67Z"/></g><g class="cls-28"><polygon class="cls-51" points="557.61 108.84 555.8 108.84 555.8 6.8 593.59 -30.99 593.59 -152.15 595.4 -152.15 595.4 -30.24 557.61 7.55 557.61 108.84"/><path class="cls-52" d="M553.29,108.67a3.41,3.41,0,1,0,3.41-3.41A3.41,3.41,0,0,0,553.29,108.67Z"/></g><g class="cls-28"><polygon class="cls-51" points="557.61 108.84 555.8 108.84 555.8 6.8 593.59 -30.99 593.59 -152.15 595.4 -152.15 595.4 -30.24 557.61 7.55 557.61 108.84"/><path class="cls-52" d="M553.29,108.67a3.41,3.41,0,1,0,3.41-3.41A3.41,3.41,0,0,0,553.29,108.67Z"/></g><g class="cls-28"><polygon class="cls-53" points="557.46 204.98 555.65 204.98 555.65 163.56 571.82 147.38 571.82 15.34 573.63 15.34 573.63 148.13 557.46 164.31 557.46 204.98"/><path class="cls-54" d="M553.14,204.81a3.41,3.41,0,1,0,3.41-3.41A3.41,3.41,0,0,0,553.14,204.81Z"/></g><g class="cls-28"><polygon class="cls-53" points="557.46 204.98 555.65 204.98 555.65 163.56 571.82 147.38 571.82 15.34 573.63 15.34 573.63 148.13 557.46 164.31 557.46 204.98"/><path class="cls-54" d="M553.14,204.81a3.41,3.41,0,1,0,3.41-3.41A3.41,3.41,0,0,0,553.14,204.81Z"/></g><g class="cls-28"><rect class="cls-55" x="488.08" y="21.99" width="1.81" height="164.25"/><path class="cls-56" d="M485.57,186.07a3.41,3.41,0,1,0,3.41-3.41A3.41,3.41,0,0,0,485.57,186.07Z"/></g><g class="cls-28"><rect class="cls-55" x="488.08" y="21.99" width="1.81" height="164.25"/><path class="cls-56" d="M485.57,186.07a3.41,3.41,0,1,0,3.41-3.41A3.41,3.41,0,0,0,485.57,186.07Z"/></g><g class="cls-28"><polygon class="cls-57" points="254.61 83.15 252.79 83.15 252.79 -14.44 273.13 -34.77 273.13 -152.15 274.94 -152.15 274.94 -34.02 254.61 -13.69 254.61 83.15"/><path class="cls-58" d="M250.29,83a3.41,3.41,0,1,0,3.41-3.41A3.41,3.41,0,0,0,250.29,83Z"/></g><g class="cls-28"><polygon class="cls-57" points="254.61 83.15 252.79 83.15 252.79 -14.44 273.13 -34.77 273.13 -152.15 274.94 -152.15 274.94 -34.02 254.61 -13.69 254.61 83.15"/><path class="cls-58" d="M250.29,83a3.41,3.41,0,1,0,3.41-3.41A3.41,3.41,0,0,0,250.29,83Z"/></g><g class="cls-28"><polygon class="cls-57" points="254.61 83.15 252.79 83.15 252.79 -14.44 273.13 -34.77 273.13 -152.15 274.94 -152.15 274.94 -34.02 254.61 -13.69 254.61 83.15"/><path class="cls-58" d="M250.29,83a3.41,3.41,0,1,0,3.41-3.41A3.41,3.41,0,0,0,250.29,83Z"/></g><rect class="cls-59" x="273.13" y="-11.87" width="1.81" height="130.39"/><path class="cls-60" d="M270.62,118.35a3.41,3.41,0,1,0,3.41-3.41A3.41,3.41,0,0,0,270.62,118.35Z"/><g class="cls-28"><polygon class="cls-61" points="664.41 51.7 662.59 51.7 662.59 -81.86 641.36 -103.1 641.36 -152.15 643.17 -152.15 643.17 -103.85 664.41 -82.61 664.41 51.7"/><path class="cls-62" d="M660.09,51.53a3.41,3.41,0,1,0,3.41-3.41A3.41,3.41,0,0,0,660.09,51.53Z"/></g><g class="cls-28"><polygon class="cls-61" points="664.41 51.7 662.59 51.7 662.59 -81.86 641.36 -103.1 641.36 -152.15 643.17 -152.15 643.17 -103.85 664.41 -82.61 664.41 51.7"/><path class="cls-62" d="M660.09,51.53a3.41,3.41,0,1,0,3.41-3.41A3.41,3.41,0,0,0,660.09,51.53Z"/></g><g class="cls-28"><rect class="cls-63" x="645.89" y="-69.84" width="1.81" height="204.08"/><circle class="cls-64" cx="646.8" cy="134.07" r="3.41" transform="translate(449.5 764.46) rotate(-84.33)"/></g><g class="cls-28"><rect class="cls-63" x="645.89" y="-69.84" width="1.81" height="204.08"/><circle class="cls-64" cx="646.8" cy="134.07" r="3.41" transform="translate(449.5 764.46) rotate(-84.33)"/></g><g class="cls-28"><rect class="cls-63" x="645.89" y="-69.84" width="1.81" height="204.08"/><circle class="cls-64" cx="646.8" cy="134.07" r="3.41" transform="translate(449.5 764.46) rotate(-84.33)"/></g><g class="cls-28"><polygon class="cls-65" points="598.73 108.54 596.91 108.54 596.91 24.94 617.77 4.08 617.77 -149.43 619.59 -149.43 619.59 4.83 598.73 25.69 598.73 108.54"/><path class="cls-66" d="M594.41,108.37a3.41,3.41,0,1,0,3.41-3.41A3.41,3.41,0,0,0,594.41,108.37Z"/></g><g class="cls-28"><polygon class="cls-65" points="598.73 108.54 596.91 108.54 596.91 24.94 617.77 4.08 617.77 -149.43 619.59 -149.43 619.59 4.83 598.73 25.69 598.73 108.54"/><path class="cls-66" d="M594.41,108.37a3.41,3.41,0,1,0,3.41-3.41A3.41,3.41,0,0,0,594.41,108.37Z"/></g><g class="cls-28"><polygon class="cls-65" points="598.73 108.54 596.91 108.54 596.91 24.94 617.77 4.08 617.77 -149.43 619.59 -149.43 619.59 4.83 598.73 25.69 598.73 108.54"/><path class="cls-66" d="M594.41,108.37a3.41,3.41,0,1,0,3.41-3.41A3.41,3.41,0,0,0,594.41,108.37Z"/></g><g class="cls-28"><polygon class="cls-67" points="437.85 104.46 436.04 104.46 436.04 4.09 405.34 -26.61 405.34 -140.36 407.16 -140.36 407.16 -27.36 437.85 3.34 437.85 104.46"/><path class="cls-68" d="M433.54,104.29a3.41,3.41,0,1,0,3.41-3.41A3.41,3.41,0,0,0,433.54,104.29Z"/></g><g class="cls-28"><polygon class="cls-67" points="437.85 104.46 436.04 104.46 436.04 4.09 405.34 -26.61 405.34 -140.36 407.16 -140.36 407.16 -27.36 437.85 3.34 437.85 104.46"/><path class="cls-68" d="M433.54,104.29a3.41,3.41,0,1,0,3.41-3.41A3.41,3.41,0,0,0,433.54,104.29Z"/></g><g class="cls-28"><polygon class="cls-67" points="437.85 104.46 436.04 104.46 436.04 4.09 405.34 -26.61 405.34 -140.36 407.16 -140.36 407.16 -27.36 437.85 3.34 437.85 104.46"/><path class="cls-68" d="M433.54,104.29a3.41,3.41,0,1,0,3.41-3.41A3.41,3.41,0,0,0,433.54,104.29Z"/></g><g class="cls-28"><polygon class="cls-69" points="449.75 65.51 447.93 65.51 447.93 1.27 417.23 -29.43 417.23 -143.18 419.05 -143.18 419.05 -30.18 449.75 0.52 449.75 65.51"/><path class="cls-70" d="M445.43,65.34a3.41,3.41,0,1,0,3.41-3.41A3.4,3.4,0,0,0,445.43,65.34Z"/></g><g class="cls-28"><polygon class="cls-69" points="449.75 65.51 447.93 65.51 447.93 1.27 417.23 -29.43 417.23 -143.18 419.05 -143.18 419.05 -30.18 449.75 0.52 449.75 65.51"/><path class="cls-70" d="M445.43,65.34a3.41,3.41,0,1,0,3.41-3.41A3.4,3.4,0,0,0,445.43,65.34Z"/></g><polygon class="cls-71" points="498.56 223.12 496.75 223.12 496.75 17.37 447.93 -31.45 447.93 -146.71 449.75 -146.71 449.75 -32.2 498.56 16.62 498.56 223.12"/><path class="cls-72" d="M494.25,223a3.41,3.41,0,1,0,3.41-3.41A3.4,3.4,0,0,0,494.25,223Z"/><rect class="cls-73" x="685.37" y="-132.19" width="1.81" height="212.32"/><path class="cls-74" d="M682.87,80a3.41,3.41,0,1,0,3.41-3.41A3.41,3.41,0,0,0,682.87,80Z"/><g class="cls-28"><polygon class="cls-75" points="729.74 108.54 727.92 108.54 727.92 -37.87 703.51 -62.28 703.51 -124.94 705.33 -124.94 705.33 -63.03 729.74 -38.62 729.74 108.54"/><path class="cls-76" d="M725.42,108.37a3.41,3.41,0,1,0,3.41-3.41A3.41,3.41,0,0,0,725.42,108.37Z"/></g><g class="cls-28"><polygon class="cls-75" points="729.74 108.54 727.92 108.54 727.92 -37.87 703.51 -62.28 703.51 -124.94 705.33 -124.94 705.33 -63.03 729.74 -38.62 729.74 108.54"/><path class="cls-76" d="M725.42,108.37a3.41,3.41,0,1,0,3.41-3.41A3.41,3.41,0,0,0,725.42,108.37Z"/></g><rect class="cls-77" x="711.68" y="-11.87" width="1.81" height="146.11"/><path class="cls-78" d="M709.17,134.07a3.41,3.41,0,1,0,3.41-3.41A3.41,3.41,0,0,0,709.17,134.07Z"/><g class="cls-28"><polygon class="cls-79" points="756.09 44.15 754.27 44.15 754.27 -58.62 727.92 -84.97 727.92 -124.94 729.74 -124.94 729.74 -85.72 756.09 -59.38 756.09 44.15"/><path class="cls-80" d="M751.77,44a3.41,3.41,0,1,0,3.41-3.41A3.41,3.41,0,0,0,751.77,44Z"/></g><g class="cls-28"><polygon class="cls-79" points="756.09 44.15 754.27 44.15 754.27 -58.62 727.92 -84.97 727.92 -124.94 729.74 -124.94 729.74 -85.72 756.09 -59.38 756.09 44.15"/><path class="cls-80" d="M751.77,44a3.41,3.41,0,1,0,3.41-3.41A3.41,3.41,0,0,0,751.77,44Z"/></g><g class="cls-28"><polygon class="cls-79" points="756.09 44.15 754.27 44.15 754.27 -58.62 727.92 -84.97 727.92 -124.94 729.74 -124.94 729.74 -85.72 756.09 -59.38 756.09 44.15"/><path class="cls-80" d="M751.77,44a3.41,3.41,0,1,0,3.41-3.41A3.41,3.41,0,0,0,751.77,44Z"/></g><g class="cls-28"><rect class="cls-81" x="773.35" y="-132.19" width="1.81" height="208.08"/><path class="cls-82" d="M770.85,75.72a3.41,3.41,0,1,0,3.41-3.41A3.41,3.41,0,0,0,770.85,75.72Z"/></g><g class="cls-28"><rect class="cls-81" x="773.35" y="-132.19" width="1.81" height="208.08"/><path class="cls-82" d="M770.85,75.72a3.41,3.41,0,1,0,3.41-3.41A3.41,3.41,0,0,0,770.85,75.72Z"/></g><rect class="cls-83" x="230.07" y="4.46" width="1.81" height="136.75"/><g class="cls-28"><polygon class="cls-84" points="176.11 157.82 174.29 157.82 174.29 -4.23 212.84 -42.78 212.84 -132.19 214.66 -132.19 214.66 -42.03 176.11 -3.48 176.11 157.82"/><path class="cls-85" d="M171.79,157.65a3.41,3.41,0,1,0,3.41-3.41A3.41,3.41,0,0,0,171.79,157.65Z"/></g><g class="cls-28"><polygon class="cls-84" points="176.11 157.82 174.29 157.82 174.29 -4.23 212.84 -42.78 212.84 -132.19 214.66 -132.19 214.66 -42.03 176.11 -3.48 176.11 157.82"/><path class="cls-85" d="M171.79,157.65a3.41,3.41,0,1,0,3.41-3.41A3.41,3.41,0,0,0,171.79,157.65Z"/></g><rect class="cls-86" x="193.57" y="18.06" width="1.81" height="104.99"/><path class="cls-87" d="M191.07,122.88a3.41,3.41,0,1,0,3.41-3.41A3.4,3.4,0,0,0,191.07,122.88Z"/><g class="cls-28"><polygon class="cls-88" points="152.75 69.59 150.94 69.59 150.94 -22.3 183.82 -55.17 183.82 -132.19 185.63 -132.19 185.63 -54.42 152.75 -21.55 152.75 69.59"/><path class="cls-89" d="M148.44,69.42A3.41,3.41,0,1,0,151.85,66,3.4,3.4,0,0,0,148.44,69.42Z"/></g><g class="cls-28"><rect class="cls-90" x="126.68" y="-124.94" width="1.81" height="231.67"/><path class="cls-91" d="M124.18,106.56a3.41,3.41,0,1,0,3.41-3.41A3.41,3.41,0,0,0,124.18,106.56Z"/></g><g class="cls-28"><rect class="cls-90" x="126.68" y="-124.94" width="1.81" height="231.67"/><path class="cls-91" d="M124.18,106.56a3.41,3.41,0,1,0,3.41-3.41A3.41,3.41,0,0,0,124.18,106.56Z"/></g></g></g></g></g></svg>